<svg width="21" height="21" viewBox="0 0 21 21" fill="none" xmlns="http://www.w3.org/2000/svg">
<path d="M10.5 20.9902C16.299 20.9902 21 16.2892 21 10.4902C21 4.69124 16.299 -0.00976562 10.5 -0.00976562C4.70101 -0.00976562 0 4.69124 0 10.4902C0 16.2892 4.70101 20.9902 10.5 20.9902Z" fill="white"/>
<path d="M13.0193 13.0477C12.4465 14.2277 11.4926 15.1801 10.3117 15.7511C9.13085 16.322 7.79195 16.4781 6.51137 16.1942C5.2308 15.9102 4.08337 15.2028 3.25448 14.1863C2.4256 13.1697 1.96367 11.9033 1.94336 10.5918C1.95085 10.7288 1.96596 10.8652 1.98863 11.0005C2.02736 11.2392 2.08711 11.474 2.16719 11.7022C2.52321 12.7098 3.26439 13.535 4.22811 13.9968C5.19183 14.4587 6.29939 14.5193 7.30779 14.1656C7.85273 13.9758 8.34969 13.6694 8.76396 13.2677L8.77276 13.2602L8.78785 13.2451C8.7954 13.2375 8.8042 13.23 8.81174 13.2212C9.28805 12.7476 9.63822 12.1622 9.83031 11.5186L9.83785 11.4947C9.83785 11.4947 9.83785 11.4808 9.83785 11.4746L11.6373 12.3372L11.6876 12.3611L13.0331 13.0062L13.0117 13.0514L13.0193 13.0477Z" fill="url(#paint0_linear_2994_52217)"/>
<path d="M13.0193 13.0477C12.4465 14.2277 11.4926 15.1801 10.3117 15.7511C9.13085 16.322 7.79195 16.4781 6.51137 16.1942C5.2308 15.9102 4.08337 15.2028 3.25448 14.1863C2.4256 13.1697 1.96367 11.9033 1.94336 10.5918C1.95085 10.7288 1.96596 10.8652 1.98863 11.0005C2.02736 11.2392 2.08711 11.474 2.16719 11.7022C2.52321 12.7098 3.26439 13.535 4.22811 13.9968C5.19183 14.4587 6.29939 14.5193 7.30779 14.1656C7.85273 13.9758 8.34969 13.6694 8.76396 13.2677L8.77276 13.2602L8.78785 13.2451C8.7954 13.2375 8.8042 13.23 8.81174 13.2212C9.28805 12.7476 9.63822 12.1622 9.83031 11.5186L9.83785 11.4947C9.83785 11.4947 9.83785 11.4808 9.83785 11.4746L11.6373 12.3372L11.6876 12.3611L13.0331 13.0062L13.0117 13.0514L13.0193 13.0477Z" fill="url(#paint1_linear_2994_52217)"/>
<path d="M13.0161 13.0477C12.4437 14.2281 11.49 15.1809 10.3091 15.7522C9.12816 16.3235 7.78907 16.4797 6.50834 16.1957C5.22761 15.9117 4.08011 15.204 3.25137 14.1871C2.42263 13.1702 1.9611 11.9035 1.94141 10.5918C1.94847 10.7287 1.96317 10.8652 1.98542 11.0005C2.08005 11.5828 2.30111 12.1374 2.63305 12.6251C2.965 13.1129 3.39976 13.522 3.90678 13.8237C4.41379 14.1253 4.98075 14.3123 5.56777 14.3714C6.15479 14.4304 6.74762 14.3602 7.30458 14.1656C7.84976 13.9755 8.34707 13.6692 8.76201 13.2677L8.76955 13.2602L8.78464 13.2451C8.79322 13.2378 8.80121 13.2298 8.80853 13.2212C9.28484 12.7476 9.63501 12.1622 9.8271 11.5186C9.83018 11.5108 9.8327 11.5028 9.83464 11.4947C9.83464 11.4947 9.83464 11.4808 9.83464 11.4746L11.6341 12.3372L11.6844 12.3611L13.0312 13.0062C13.0312 13.0062 13.0123 13.0426 13.0098 13.0514L13.0161 13.0477Z" fill="url(#paint2_linear_2994_52217)"/>
<path d="M10.2559 5.38313L10.2333 5.42966H10.2131L10.188 5.42337C9.52906 5.24128 8.83434 5.23193 8.17075 5.39624C7.50715 5.56054 6.89705 5.89295 6.3992 6.36145L6.37405 6.38409L6.35896 6.39918L6.35141 6.40672C5.80914 6.93629 5.42882 7.60928 5.25491 8.34702C5.081 9.08475 5.12068 9.85675 5.36931 10.5728C5.46894 10.8535 5.5988 11.1225 5.75662 11.375C5.78931 11.4266 5.82327 11.4794 5.85973 11.5297C5.91255 11.6064 5.97039 11.6819 6.02949 11.7561C6.1409 11.8936 6.26148 12.0234 6.39039 12.1446C6.63892 12.3551 6.93226 12.506 7.248 12.5858C7.56374 12.6656 7.89354 12.6722 8.21223 12.6051C8.53092 12.5381 8.83007 12.399 9.08684 12.1987C9.34361 11.9984 9.55121 11.742 9.69381 11.4492L9.70512 11.4266L9.71644 11.404L9.76171 11.4253L9.79441 11.4404L9.83967 11.4631C9.84025 11.4698 9.84025 11.4765 9.83967 11.4832L9.83213 11.5071C9.63945 12.1505 9.28937 12.7357 8.81357 13.2097L8.78967 13.2336L8.77458 13.2487L8.76578 13.2562C8.35085 13.6574 7.85351 13.9634 7.30836 14.1528C6.30126 14.5074 5.19466 14.4483 4.23107 13.9885C3.26749 13.5286 2.52551 12.7055 2.16776 11.6995C2.08695 11.472 2.02718 11.2375 1.98919 10.9991C1.96659 10.8633 1.95148 10.7265 1.94393 10.5891C1.93304 10.3984 1.93599 10.2072 1.95273 10.017C1.97906 9.7045 2.04108 9.39609 2.13758 9.09774C2.37162 8.166 2.83278 7.30672 3.47987 6.59666C4.12696 5.88659 4.93984 5.34784 5.8459 5.02852C6.56049 4.77421 7.31829 4.66363 8.07575 4.70312C8.83321 4.74261 9.57541 4.9314 10.2597 5.25864L10.2823 5.2687L10.3049 5.28002L10.2559 5.38313Z" fill="url(#paint3_linear_2994_52217)"/>
<path opacity="0.61" d="M7.30808 14.1649C7.85302 13.9751 8.34998 13.6687 8.76425 13.267L8.77305 13.2595L8.78814 13.2444C8.79569 13.2369 8.80449 13.2293 8.81204 13.2205C9.28834 12.7469 9.63851 12.1615 9.8306 11.5179L9.83814 11.494C9.83872 11.4873 9.83872 11.4806 9.83814 11.4739L10.1588 11.6273C9.94926 12.3218 9.57129 12.9538 9.0585 13.467L9.02204 13.5034L8.99814 13.5261C8.56133 13.9456 8.04238 14.2702 7.47398 14.4793C6.90557 14.6884 6.30002 14.7776 5.69546 14.7412C5.09089 14.7049 4.50041 14.5437 3.96119 14.2679C3.42197 13.9921 2.94569 13.6077 2.56234 13.1388C2.16135 12.3481 1.94629 11.4763 1.93359 10.5898C1.94115 10.7272 1.95626 10.8641 1.97886 10.9998C2.07283 11.5824 2.2935 12.1374 2.62531 12.6254C2.95711 13.1135 3.39197 13.5228 3.8992 13.8245C4.40644 14.1262 4.97369 14.313 5.56095 14.3716C6.14822 14.4301 6.74118 14.3592 7.29802 14.1636L7.30808 14.1649Z" fill="url(#paint4_linear_2994_52217)"/>
<g opacity="0.79">
<path d="M3.01782 10.051C3.02452 10.1774 3.03837 10.3034 3.05931 10.4282C3.08245 10.5718 3.11479 10.7138 3.15614 10.8533C3.20309 11.014 3.2615 11.1712 3.33093 11.3236C3.38109 11.4335 3.43735 11.5406 3.49943 11.6442C3.60632 11.8269 3.73009 11.999 3.86913 12.1585C4.24077 12.5907 4.71146 12.9265 5.24102 13.1373C5.77058 13.3481 6.34329 13.4276 6.91025 13.369C7.47721 13.3105 8.02157 13.1156 8.49687 12.801C8.97217 12.4864 9.36428 12.0615 9.63973 11.5625L9.6586 11.5273L9.685 11.4782C9.69011 11.4693 9.69473 11.46 9.69883 11.4506L9.71015 11.4279L9.72147 11.4053L9.76674 11.4267L9.79943 11.4418L9.8447 11.4644C9.84527 11.4711 9.84527 11.4778 9.8447 11.4845L9.83716 11.5084C9.64448 12.1518 9.2944 12.737 8.81859 13.2111L8.7947 13.235L8.77961 13.25L8.77081 13.2576C8.35588 13.6587 7.85854 13.9647 7.31339 14.1542C6.30566 14.5103 5.19778 14.452 4.23302 13.992C3.26825 13.532 2.52547 12.708 2.16776 11.7008C2.08695 11.4733 2.02718 11.2388 1.98919 11.0004C1.96659 10.8647 1.95148 10.7278 1.94393 10.5905C1.93304 10.3998 1.93599 10.2086 1.95273 10.0183C1.97906 9.70585 2.04108 9.39743 2.13758 9.09908C2.50187 7.63912 3.41772 6.37712 4.69279 5.57812C4.06948 6.13015 3.5909 6.82647 3.29891 7.60621C3.00692 8.38594 2.91041 9.22534 3.01782 10.051Z" fill="url(#paint5_linear_2994_52217)"/>
</g>
<path opacity="0.41" d="M2.38841 8.47509C2.34147 8.6152 2.30284 8.75797 2.27272 8.90263C2.23781 9.06483 2.21303 9.22904 2.19853 9.39431C2.18221 9.5846 2.17968 9.77582 2.19099 9.96647C2.19805 10.1038 2.21275 10.2407 2.235 10.3764C2.33 10.9585 2.5513 11.5128 2.88336 12.0003C3.21542 12.4878 3.65019 12.8966 4.15713 13.1982C4.66407 13.4997 5.23087 13.6866 5.81774 13.7457C6.4046 13.8047 6.99728 13.7346 7.55416 13.5402C8.09904 13.3502 8.59626 13.0443 9.01159 12.6437L9.01913 12.6361L9.03422 12.621C9.04302 12.6135 9.05057 12.6047 9.05811 12.5971C9.37318 12.2834 9.63407 11.9197 9.83021 11.5207C9.63789 12.1619 9.28866 12.7449 8.81416 13.2171C8.80662 13.2259 8.79781 13.2334 8.79027 13.241L8.77518 13.256L8.76638 13.2636C8.35144 13.665 7.85413 13.9714 7.30895 14.1614C6.30072 14.5152 5.19333 14.4545 4.22981 13.9926C3.2663 13.5308 2.52536 12.7055 2.16961 11.698C2.08894 11.47 2.02917 11.2352 1.99105 10.9963C1.96838 10.8611 1.95326 10.7246 1.94578 10.5877C1.92566 10.2305 1.95358 9.87229 2.02877 9.52257C2.05922 9.37852 2.09742 9.23622 2.1432 9.09629C2.23234 8.74253 2.354 8.39777 2.50662 8.06641C2.4626 8.20096 2.42236 8.33677 2.38841 8.47509Z" fill="url(#paint6_linear_2994_52217)"/>
<path d="M7.97967 7.93322C8.55243 6.75321 9.50632 5.80078 10.6872 5.22983C11.8681 4.65888 13.207 4.50276 14.4876 4.7867C15.7682 5.07064 16.9156 5.77806 17.7445 6.79464C18.5734 7.81122 19.0353 9.07757 19.0556 10.3891C19.0475 10.2522 19.0324 10.1158 19.0103 9.98041C18.9716 9.74171 18.9118 9.50691 18.8318 9.27873C18.4757 8.27112 17.7346 7.44587 16.7708 6.98405C15.8071 6.52223 14.6996 6.46155 13.6912 6.81532C13.1462 7.00507 12.6493 7.31148 12.235 7.71316L12.2262 7.72071L12.2111 7.7358L12.1872 7.75969C11.7109 8.23333 11.3607 8.81866 11.1686 9.46233C11.1656 9.4701 11.163 9.47808 11.1611 9.48622C11.1611 9.48622 11.1611 9.50005 11.1611 9.50634L9.3541 8.64747L9.3038 8.62358L7.95703 7.97849L7.97967 7.93322Z" fill="url(#paint7_linear_2994_52217)"/>
<path d="M7.97967 7.93322C8.55243 6.75321 9.50632 5.80078 10.6872 5.22983C11.8681 4.65888 13.207 4.50276 14.4876 4.7867C15.7682 5.07064 16.9156 5.77806 17.7445 6.79464C18.5734 7.81122 19.0353 9.07757 19.0556 10.3891C19.0475 10.2522 19.0324 10.1158 19.0103 9.98041C18.9716 9.74171 18.9118 9.50691 18.8318 9.27873C18.4757 8.27112 17.7346 7.44587 16.7708 6.98405C15.8071 6.52223 14.6996 6.46155 13.6912 6.81532C13.1462 7.00507 12.6493 7.31148 12.235 7.71316L12.2262 7.72071L12.2111 7.7358L12.1872 7.75969C11.7109 8.23333 11.3607 8.81866 11.1686 9.46233C11.1656 9.4701 11.163 9.47808 11.1611 9.48622C11.1611 9.48622 11.1611 9.50005 11.1611 9.50634L9.3541 8.64747L9.3038 8.62358L7.95703 7.97849L7.97967 7.93322Z" fill="url(#paint8_linear_2994_52217)"/>
<path d="M7.98231 7.93322C8.55508 6.75321 9.50897 5.80078 10.6899 5.22983C11.8708 4.65888 13.2097 4.50276 14.4902 4.7867C15.7708 5.07064 16.9182 5.77806 17.7471 6.79464C18.576 7.81122 19.0379 9.07757 19.0582 10.3891C19.0508 10.2521 19.0356 10.1157 19.013 9.98041C18.9748 9.74159 18.9151 9.50673 18.8344 9.27873C18.4787 8.27121 17.7377 7.44598 16.7742 6.98414C15.8107 6.5223 14.7033 6.46159 13.6951 6.81532C13.1499 7.00535 12.6526 7.31171 12.2376 7.71316L12.2301 7.72071L12.2138 7.7358L12.1911 7.75969C11.7148 8.23333 11.3646 8.81866 11.1726 9.46233C11.1726 9.46987 11.1726 9.47867 11.1638 9.48622C11.1638 9.48622 11.1638 9.50005 11.1638 9.50634L9.35675 8.64747L9.30645 8.62358L7.96094 7.97849L7.98231 7.93322Z" fill="url(#paint9_linear_2994_52217)"/>
<path d="M10.7444 15.5978L10.767 15.5512L10.7871 15.5575H10.8123C11.4712 15.7396 12.1659 15.749 12.8295 15.5847C13.4931 15.4204 14.1032 15.088 14.6011 14.6195L14.6262 14.5968L14.6413 14.583L14.6488 14.5742C15.1919 14.0435 15.5724 13.369 15.7456 12.6298C15.9189 11.8906 15.8778 11.1173 15.6272 10.4006C15.5278 10.1202 15.3979 9.85159 15.2399 9.59957C15.2072 9.54676 15.1732 9.4952 15.1368 9.44365C15.0839 9.36694 15.0261 9.29149 14.967 9.2173C14.8556 9.0798 14.735 8.94998 14.6061 8.82874C14.3197 8.59077 13.9766 8.43096 13.6101 8.36486C13.2437 8.29875 12.8664 8.3286 12.5149 8.45149C11.9856 8.63662 11.5503 9.02229 11.3027 9.52538L11.2914 9.54802L11.28 9.57065L11.2335 9.54802L11.2008 9.53293L11.1556 9.51029C11.155 9.5036 11.155 9.49687 11.1556 9.49017L11.1631 9.46502C11.3554 8.82181 11.7055 8.23693 12.1817 7.76365L12.2056 7.73975L12.2206 7.72466C12.2239 7.72206 12.2268 7.7191 12.2294 7.71586C12.6444 7.31471 13.1417 7.00875 13.6869 6.81928C14.6951 6.46554 15.8025 6.52626 16.766 6.9881C17.7295 7.44994 18.4705 8.27517 18.8262 9.28269C18.907 9.51021 18.9668 9.74467 19.0048 9.98311C19.0274 10.1188 19.0425 10.2557 19.05 10.393C19.0609 10.5837 19.058 10.7749 19.0412 10.9652C19.0172 11.277 18.9573 11.5851 18.8627 11.8832C18.6549 12.7173 18.2644 13.4949 17.7195 14.1598C17.1745 14.8246 16.4886 15.36 15.7114 15.7274C14.9342 16.0948 14.0851 16.2849 13.2254 16.284C12.3657 16.2831 11.517 16.0912 10.7406 15.7223L10.7179 15.7122L10.6953 15.7009L10.7444 15.5978Z" fill="url(#paint10_linear_2994_52217)"/>
<path opacity="0.61" d="M13.6906 6.81561C13.1461 7.00635 12.6493 7.31264 12.2344 7.71345L12.2256 7.721L12.2105 7.73609L12.1866 7.75998C11.7103 8.23362 11.3601 8.81895 11.168 9.46262C11.165 9.47039 11.1624 9.47837 11.1605 9.48651C11.1605 9.48651 11.1605 9.50034 11.1605 9.50663L10.8398 9.35196C11.0494 8.65741 11.4274 8.02544 11.9401 7.51226L11.9766 7.47705L12.0005 7.45441C12.4513 7.01827 12.9915 6.68532 13.5837 6.4786C14.4346 6.18136 15.3564 6.15257 16.2242 6.39613C17.0921 6.63969 17.8643 7.14385 18.4363 7.84046C18.5474 8.06729 18.6432 8.30128 18.723 8.54088C18.9332 9.1354 19.0453 9.76014 19.055 10.3906C19.0469 10.2537 19.0318 10.1173 19.0097 9.98196C18.971 9.74326 18.9112 9.50845 18.8312 9.28028C18.4751 8.27267 17.734 7.44742 16.7702 6.9856C15.8065 6.52378 14.699 6.4631 13.6906 6.81687V6.81561Z" fill="url(#paint11_linear_2994_52217)"/>
<g opacity="0.79">
<path d="M17.9824 10.9297C17.9761 10.8003 17.9622 10.6714 17.9409 10.5436C17.9178 10.4 17.8855 10.2581 17.8441 10.1186C17.7973 9.95766 17.7385 9.80045 17.6681 9.64831C17.6183 9.53839 17.5625 9.43134 17.5008 9.32765C17.3936 9.14524 17.2699 8.97307 17.1311 8.81334C16.52 8.10298 15.6519 7.66425 14.7175 7.59351C13.7831 7.52278 12.8588 7.82583 12.1477 8.4361C11.8292 8.70891 11.5626 9.03691 11.3605 9.40436L11.3417 9.43957L11.3153 9.48861L11.3002 9.51628L11.2901 9.53891L11.2788 9.56155L11.2335 9.54646L11.2008 9.53137L11.1543 9.50873C11.1543 9.50873 11.1543 9.4949 11.1543 9.48861C11.1562 9.48007 11.1588 9.47166 11.1618 9.46346C11.3541 8.82025 11.7043 8.23537 12.1804 7.76209L12.2043 7.73819L12.2194 7.7231C12.2226 7.72049 12.2256 7.71754 12.2282 7.7143C12.6429 7.31343 13.1397 7.0075 13.6844 6.81771C14.2412 6.62217 14.8342 6.55118 15.4214 6.60977C16.0087 6.66836 16.5759 6.85509 17.0832 7.15679C17.5904 7.45849 18.0253 7.86782 18.3571 8.35589C18.6889 8.84396 18.9095 9.3989 19.0035 9.98155C19.0261 10.1173 19.0412 10.2541 19.0488 10.3915C19.0597 10.5822 19.0567 10.7734 19.04 10.9636C19.0255 11.1293 19.0007 11.294 18.9658 11.4566C18.9355 11.6008 18.8969 11.7431 18.8501 11.8829C18.4858 13.3428 17.57 14.6048 16.2949 15.4038C16.9207 14.853 17.4017 14.157 17.696 13.377C17.9902 12.5969 18.0885 11.7566 17.9824 10.9297Z" fill="url(#paint12_linear_2994_52217)"/>
</g>
<path opacity="0.41" d="M18.6117 12.5056C18.6587 12.3655 18.6973 12.2227 18.7274 12.0781C18.7618 11.9158 18.7866 11.7516 18.8016 11.5864C18.8179 11.3961 18.8204 11.2049 18.8091 11.0142C18.8016 10.8769 18.7865 10.74 18.7639 10.6043C18.7259 10.3659 18.6661 10.1314 18.5853 9.90389C18.3609 9.26769 17.9805 8.69796 17.4789 8.24686C16.9773 7.79575 16.3705 7.47769 15.7141 7.3218C15.0578 7.1659 14.3728 7.17716 13.7219 7.35453C13.071 7.5319 12.4751 7.86972 11.9885 8.33706L11.981 8.34586L11.9647 8.35969L11.942 8.38359C11.6273 8.69757 11.3665 9.06124 11.1699 9.45999C11.3622 8.81884 11.7115 8.23578 12.186 7.76365C12.1935 7.75484 12.2023 7.7473 12.2099 7.73975L12.225 7.72466L12.2338 7.71712C12.6483 7.31516 13.1457 7.00872 13.6912 6.81928C14.6994 6.46554 15.8068 6.52626 16.7703 6.9881C17.7338 7.44994 18.4748 8.27517 18.8305 9.28269C18.9112 9.51068 18.971 9.74554 19.0091 9.98437C19.0317 10.1197 19.0468 10.2561 19.0544 10.393C19.0652 10.5837 19.0623 10.7749 19.0455 10.9652C19.0178 11.2783 18.954 11.5871 18.8557 11.8857C18.7675 12.2393 18.6458 12.5837 18.4923 12.9143C18.5375 12.7798 18.5778 12.6439 18.6117 12.5056Z" fill="url(#paint13_linear_2994_52217)"/>
<defs>
<linearGradient id="paint0_linear_2994_52217" x1="2.93408" y1="14.3172" x2="12.3374" y2="11.0058" gradientUnits="userSpaceOnUse">
<stop stop-color="#5729EA"/>
<stop offset="1" stop-color="#4010BB"/>
</linearGradient>
<linearGradient id="paint1_linear_2994_52217" x1="2.93408" y1="14.3172" x2="12.3374" y2="11.0058" gradientUnits="userSpaceOnUse">
<stop stop-color="#759400"/>
<stop offset="1" stop-color="#00E920"/>
</linearGradient>
<linearGradient id="paint2_linear_2994_52217" x1="2.9323" y1="14.3165" x2="12.3358" y2="11.0055" gradientUnits="userSpaceOnUse">
<stop stop-color="#3BE900"/>
<stop offset="1" stop-color="#095A1B"/>
</linearGradient>
<linearGradient id="paint3_linear_2994_52217" x1="3.88076" y1="14.6212" x2="7.9602" y2="6.10676" gradientUnits="userSpaceOnUse">
<stop stop-color="#116A00"/>
<stop offset="1" stop-color="#1CFF00"/>
</linearGradient>
<linearGradient id="paint4_linear_2994_52217" x1="1.94365" y1="12.671" x2="10.1714" y2="12.671" gradientUnits="userSpaceOnUse">
<stop stop-color="#15BF00" stop-opacity="0"/>
<stop offset="1" stop-color="#4CAA00"/>
</linearGradient>
<linearGradient id="paint5_linear_2994_52217" x1="9.71501" y1="12.1872" x2="-1.22654" y2="7.19336" gradientUnits="userSpaceOnUse">
<stop stop-color="#299400" stop-opacity="0.93"/>
<stop offset="0.01" stop-color="#279601" stop-opacity="0.9"/>
<stop offset="0.17" stop-color="#1BAF13" stop-opacity="0.63"/>
<stop offset="0.32" stop-color="#11C421" stop-opacity="0.4"/>
<stop offset="0.48" stop-color="#09D42C" stop-opacity="0.22"/>
<stop offset="0.64" stop-color="#04DF34" stop-opacity="0.1"/>
<stop offset="0.81" stop-color="#01E639" stop-opacity="0.02"/>
<stop offset="1" stop-color="#00E93B" stop-opacity="0"/>
</linearGradient>
<linearGradient id="paint6_linear_2994_52217" x1="2.28781" y1="12.0372" x2="9.15882" y2="9.61755" gradientUnits="userSpaceOnUse">
<stop stop-color="#1AE800" stop-opacity="0.02"/>
<stop offset="0.07" stop-color="#27D900" stop-opacity="0.25"/>
<stop offset="0.14" stop-color="#32CC00" stop-opacity="0.45"/>
<stop offset="0.22" stop-color="#3CC100" stop-opacity="0.62"/>
<stop offset="0.31" stop-color="#43B900" stop-opacity="0.76"/>
<stop offset="0.41" stop-color="#49B200" stop-opacity="0.87"/>
<stop offset="0.52" stop-color="#4DAD00" stop-opacity="0.94"/>
<stop offset="0.67" stop-color="#50AA00" stop-opacity="0.99"/>
<stop offset="1" stop-color="#51AA00"/>
</linearGradient>
<linearGradient id="paint7_linear_2994_52217" x1="18.0645" y1="6.66373" x2="8.6612" y2="9.97516" gradientUnits="userSpaceOnUse">
<stop stop-color="#5729EA"/>
<stop offset="1" stop-color="#4010BB"/>
</linearGradient>
<linearGradient id="paint8_linear_2994_52217" x1="18.0645" y1="6.66373" x2="8.6612" y2="9.97516" gradientUnits="userSpaceOnUse">
<stop stop-color="#759400"/>
<stop offset="1" stop-color="#00E920"/>
</linearGradient>
<linearGradient id="paint9_linear_2994_52217" x1="18.0673" y1="6.66442" x2="8.66387" y2="9.97538" gradientUnits="userSpaceOnUse">
<stop stop-color="#3BE900"/>
<stop offset="1" stop-color="#08571B"/>
</linearGradient>
<linearGradient id="paint10_linear_2994_52217" x1="17.1184" y1="6.36137" x2="13.0385" y2="14.8746" gradientUnits="userSpaceOnUse">
<stop stop-color="#116A00"/>
<stop offset="1" stop-color="#1CFF00"/>
</linearGradient>
<linearGradient id="paint11_linear_2994_52217" x1="19.055" y1="8.3095" x2="10.8273" y2="8.3095" gradientUnits="userSpaceOnUse">
<stop stop-color="#15BF00" stop-opacity="0"/>
<stop offset="1" stop-color="#4CAA00"/>
</linearGradient>
<linearGradient id="paint12_linear_2994_52217" x1="11.2889" y1="8.79473" x2="22.2292" y2="13.789" gradientUnits="userSpaceOnUse">
<stop stop-color="#299400" stop-opacity="0.93"/>
<stop offset="0.01" stop-color="#279601" stop-opacity="0.9"/>
<stop offset="0.17" stop-color="#1BAF13" stop-opacity="0.63"/>
<stop offset="0.32" stop-color="#11C421" stop-opacity="0.4"/>
<stop offset="0.48" stop-color="#09D42C" stop-opacity="0.22"/>
<stop offset="0.64" stop-color="#04DF34" stop-opacity="0.1"/>
<stop offset="0.81" stop-color="#01E639" stop-opacity="0.02"/>
<stop offset="1" stop-color="#00E93B" stop-opacity="0"/>
</linearGradient>
<linearGradient id="paint13_linear_2994_52217" x1="18.7115" y1="8.94363" x2="11.8405" y2="11.3633" gradientUnits="userSpaceOnUse">
<stop stop-color="#1AE800" stop-opacity="0.02"/>
<stop offset="0.07" stop-color="#27D900" stop-opacity="0.25"/>
<stop offset="0.14" stop-color="#32CC00" stop-opacity="0.45"/>
<stop offset="0.22" stop-color="#3CC100" stop-opacity="0.62"/>
<stop offset="0.31" stop-color="#43B900" stop-opacity="0.76"/>
<stop offset="0.41" stop-color="#49B200" stop-opacity="0.87"/>
<stop offset="0.52" stop-color="#4DAD00" stop-opacity="0.94"/>
<stop offset="0.67" stop-color="#50AA00" stop-opacity="0.99"/>
<stop offset="1" stop-color="#51AA00"/>
</linearGradient>
</defs>
</svg>
