<svg width="18" height="19" viewBox="0 0 18 19" fill="none" xmlns="http://www.w3.org/2000/svg">
<g clip-path="url(#clip0_2035_1647)">
<path d="M9 18.4951C13.9706 18.4951 18 14.4657 18 9.49512C18 4.52455 13.9706 0.495117 9 0.495117C4.02944 0.495117 0 4.52455 0 9.49512C0 14.4657 4.02944 18.4951 9 18.4951Z" fill="white"/>
<path d="M11.1599 11.6866C10.669 12.698 9.85135 13.5144 8.83916 14.0038C7.82697 14.4932 6.67933 14.627 5.5817 14.3836C4.48407 14.1402 3.50055 13.5339 2.79008 12.6625C2.0796 11.7911 1.68367 10.7057 1.66626 9.58154C1.67268 9.69894 1.68563 9.81589 1.70506 9.93184C1.73826 10.1364 1.78948 10.3377 1.85812 10.5333C2.16328 11.3969 2.79857 12.1043 3.62461 12.5001C4.45066 12.896 5.4 12.948 6.26434 12.6448C6.73144 12.4821 7.1574 12.2195 7.51249 11.8752L7.52003 11.8687L7.53297 11.8558C7.53943 11.8493 7.54698 11.8429 7.55345 11.8353C7.96171 11.4293 8.26185 10.9276 8.4265 10.3759L8.43297 10.3554C8.43297 10.3554 8.43297 10.3436 8.43297 10.3382L9.97536 11.0776L10.0185 11.0981L11.1718 11.651L11.1534 11.6898L11.1599 11.6866Z" fill="url(#paint0_linear_2035_1647)"/>
<path d="M11.1599 11.6866C10.669 12.698 9.85135 13.5144 8.83916 14.0038C7.82697 14.4932 6.67933 14.627 5.5817 14.3836C4.48407 14.1402 3.50055 13.5339 2.79008 12.6625C2.0796 11.7911 1.68367 10.7057 1.66626 9.58154C1.67268 9.69894 1.68563 9.81589 1.70506 9.93184C1.73826 10.1364 1.78948 10.3377 1.85812 10.5333C2.16328 11.3969 2.79857 12.1043 3.62461 12.5001C4.45066 12.896 5.4 12.948 6.26434 12.6448C6.73144 12.4821 7.1574 12.2195 7.51249 11.8752L7.52003 11.8687L7.53297 11.8558C7.53943 11.8493 7.54698 11.8429 7.55345 11.8353C7.96171 11.4293 8.26185 10.9276 8.4265 10.3759L8.43297 10.3554C8.43297 10.3554 8.43297 10.3436 8.43297 10.3382L9.97536 11.0776L10.0185 11.0981L11.1718 11.651L11.1534 11.6898L11.1599 11.6866Z" fill="url(#paint1_linear_2035_1647)"/>
<path d="M11.1569 11.6866C10.6663 12.6984 9.84883 13.5151 8.8366 14.0048C7.82438 14.4944 6.67659 14.6283 5.57882 14.3849C4.48106 14.1415 3.49748 13.5349 2.78713 12.6632C2.07678 11.7916 1.68119 10.7059 1.66431 9.58154C1.67036 9.69892 1.68296 9.81587 1.70203 9.93184C1.78314 10.431 1.97263 10.9063 2.25715 11.3244C2.54167 11.7425 2.91433 12.0931 3.34891 12.3517C3.7835 12.6103 4.26946 12.7705 4.77262 12.8212C5.27578 12.8718 5.78392 12.8116 6.26131 12.6448C6.72861 12.4819 7.15488 12.2193 7.51053 11.8752L7.517 11.8687L7.52994 11.8558C7.53729 11.8495 7.54414 11.8427 7.55041 11.8353C7.95868 11.4293 8.25882 10.9276 8.42347 10.3759C8.42611 10.3693 8.42827 10.3624 8.42993 10.3554C8.42993 10.3554 8.42993 10.3436 8.42993 10.3382L9.97233 11.0776L10.0154 11.0981L11.1698 11.651C11.1698 11.651 11.1536 11.6823 11.1515 11.6898L11.1569 11.6866Z" fill="url(#paint2_linear_2035_1647)"/>
<path d="M8.79095 5.11788L8.77154 5.15776H8.7543L8.73274 5.15237C8.16794 4.99629 7.57247 4.98828 7.00367 5.12911C6.43488 5.26994 5.91193 5.55487 5.4852 5.95644L5.46364 5.97584L5.45071 5.98878L5.44424 5.99524C4.97944 6.44916 4.65345 7.02601 4.50438 7.65835C4.35532 8.2907 4.38933 8.95241 4.60244 9.56614C4.68783 9.80673 4.79915 10.0373 4.93442 10.2538C4.96244 10.298 4.99155 10.3433 5.0228 10.3864C5.06807 10.4521 5.11765 10.5168 5.16831 10.5804C5.26381 10.6983 5.36716 10.8095 5.47765 10.9134C5.69068 11.0938 5.94211 11.2232 6.21274 11.2916C6.48338 11.36 6.76607 11.3657 7.03923 11.3082C7.31239 11.2507 7.5688 11.1315 7.78889 10.9598C8.00898 10.7881 8.18693 10.5684 8.30915 10.3174L8.31885 10.298L8.32855 10.2786L8.36735 10.2969L8.39538 10.3099L8.43418 10.3293C8.43467 10.335 8.43467 10.3408 8.43418 10.3465L8.42771 10.367C8.26256 10.9185 7.96249 11.4201 7.55466 11.8264L7.53418 11.8469L7.52125 11.8598L7.5137 11.8663C7.15805 12.2101 6.73176 12.4724 6.26448 12.6348C5.40126 12.9387 4.45274 12.888 3.62681 12.4939C2.80088 12.0997 2.1649 11.3942 1.85825 10.5319C1.78899 10.3369 1.73775 10.1359 1.7052 9.93153C1.68583 9.81521 1.67287 9.6979 1.6664 9.58015C1.65707 9.41671 1.65959 9.25281 1.67394 9.08973C1.69651 8.82191 1.74967 8.55756 1.83238 8.30183C2.03299 7.50319 2.42827 6.76667 2.98292 6.15804C3.53757 5.54942 4.23432 5.08763 5.01095 4.81393C5.62345 4.59595 6.27299 4.50116 6.92225 4.53501C7.5715 4.56886 8.20766 4.73068 8.79418 5.01117L8.81358 5.01979L8.83298 5.02949L8.79095 5.11788Z" fill="url(#paint3_linear_2035_1647)"/>
<path opacity="0.61" d="M6.26442 12.6444C6.73151 12.4817 7.15747 12.2191 7.51257 11.8748L7.52011 11.8683L7.53304 11.8554C7.53951 11.8489 7.54706 11.8425 7.55352 11.8349C7.96179 11.429 8.26193 10.9272 8.42658 10.3755L8.43304 10.355C8.43353 10.3493 8.43353 10.3435 8.43304 10.3378L8.7079 10.4693C8.52829 11.0646 8.20431 11.6063 7.76478 12.0462L7.73352 12.0774L7.71304 12.0968C7.33863 12.4564 6.89382 12.7346 6.40661 12.9139C5.91941 13.0932 5.40037 13.1696 4.88217 13.1384C4.36397 13.1072 3.85784 12.9691 3.39565 12.7327C2.93346 12.4963 2.52522 12.1668 2.19664 11.7649C1.85293 11.0872 1.6686 10.3399 1.65771 9.58008C1.66419 9.69783 1.67714 9.81513 1.69652 9.93146C1.77706 10.4309 1.96621 10.9065 2.25061 11.3249C2.53502 11.7432 2.90775 12.0941 3.34252 12.3527C3.7773 12.6113 4.26351 12.7713 4.76688 12.8215C5.27025 12.8718 5.77851 12.8109 6.2558 12.6433L6.26442 12.6444Z" fill="url(#paint4_linear_2035_1647)"/>
<g opacity="0.79">
<path d="M2.58688 9.11807C2.59262 9.22644 2.60449 9.3344 2.62244 9.44143C2.64228 9.56452 2.67 9.6862 2.70544 9.80574C2.74568 9.94352 2.79575 10.0782 2.85526 10.2089C2.89825 10.3031 2.94647 10.3948 2.99969 10.4837C3.0913 10.6402 3.1974 10.7878 3.31658 10.9245C3.63512 11.295 4.03856 11.5828 4.49248 11.7635C4.94639 11.9441 5.43728 12.0123 5.92324 11.9621C6.40921 11.9119 6.87581 11.7449 7.28321 11.4752C7.6906 11.2056 8.0267 10.8414 8.2628 10.4136L8.27897 10.3835L8.3016 10.3414C8.30598 10.3337 8.30994 10.3258 8.31346 10.3177L8.32316 10.2983L8.33286 10.2789L8.37167 10.2972L8.39969 10.3102L8.43849 10.3296C8.43898 10.3353 8.43898 10.3411 8.43849 10.3468L8.43202 10.3673C8.26687 10.9188 7.9668 11.4204 7.55897 11.8267L7.53849 11.8472L7.52556 11.8601L7.51801 11.8666C7.16236 12.2104 6.73607 12.4727 6.26879 12.6351C5.40503 12.9404 4.45542 12.8904 3.62848 12.4961C2.80153 12.1018 2.16486 11.3955 1.85825 10.5322C1.78899 10.3372 1.73775 10.1362 1.7052 9.93184C1.68583 9.81552 1.67287 9.69822 1.6664 9.58047C1.65707 9.41703 1.65959 9.25312 1.67394 9.09005C1.69651 8.82223 1.74967 8.55787 1.83238 8.30214C2.14464 7.05075 2.92965 5.96904 4.02256 5.28418C3.4883 5.75734 3.07809 6.35419 2.82781 7.02254C2.57753 7.69088 2.49481 8.41037 2.58688 9.11807Z" fill="url(#paint5_linear_2035_1647)"/>
</g>
<path opacity="0.41" d="M2.04791 7.76729C2.00767 7.88739 1.97456 8.00976 1.94875 8.13376C1.91882 8.27278 1.89758 8.41353 1.88515 8.5552C1.87116 8.7183 1.869 8.8822 1.87869 9.04561C1.88474 9.16335 1.89734 9.28065 1.91641 9.39699C1.99784 9.89596 2.18753 10.3711 2.47215 10.7889C2.75678 11.2067 3.12944 11.5572 3.56395 11.8156C3.99847 12.0741 4.4843 12.2343 4.98733 12.2849C5.49035 12.3356 5.99837 12.2755 6.47569 12.1088C6.94273 11.9459 7.36892 11.6838 7.72491 11.3403L7.73138 11.3339L7.74431 11.3209C7.75186 11.3145 7.75833 11.3069 7.76479 11.3005C8.03485 11.0316 8.25848 10.7198 8.42659 10.3778C8.26175 10.9274 7.96241 11.4272 7.55569 11.8318C7.54922 11.8394 7.54168 11.8459 7.53521 11.8523L7.52228 11.8653L7.51473 11.8717C7.15908 12.2158 6.73281 12.4784 6.26551 12.6413C5.40131 12.9445 4.45212 12.8925 3.62625 12.4966C2.80038 12.1007 2.16529 11.3934 1.86036 10.5298C1.79122 10.3344 1.73999 10.1331 1.70731 9.92837C1.68788 9.81241 1.67492 9.69547 1.66851 9.57807C1.65127 9.27195 1.67519 8.96489 1.73964 8.66514C1.76574 8.54166 1.79849 8.41969 1.83773 8.29975C1.91413 7.99652 2.01841 7.70102 2.14923 7.41699C2.1115 7.53232 2.07701 7.64873 2.04791 7.76729Z" fill="url(#paint6_linear_2035_1647)"/>
<path d="M6.83996 7.30381C7.3309 6.29237 8.14852 5.476 9.16071 4.98662C10.1729 4.49723 11.3205 4.36342 12.4182 4.60679C13.5158 4.85017 14.4993 5.45653 15.2098 6.32788C15.9203 7.19923 16.3162 8.28468 16.3336 9.40884C16.3267 9.29149 16.3137 9.17457 16.2948 9.05854C16.2616 8.85394 16.2104 8.65268 16.1418 8.45711C15.8366 7.59344 15.2013 6.88608 14.3753 6.49024C13.5492 6.09439 12.5999 6.04238 11.7355 6.34561C11.2684 6.50825 10.8425 6.77089 10.4874 7.11519L10.4798 7.12166L10.4669 7.13459L10.4464 7.15507C10.0382 7.56104 9.73802 8.06276 9.57337 8.61447C9.57073 8.62113 9.56857 8.62798 9.5669 8.63495C9.5669 8.63495 9.5669 8.64681 9.5669 8.65219L8.01804 7.91603L7.97493 7.89555L6.82056 7.34261L6.83996 7.30381Z" fill="url(#paint7_linear_2035_1647)"/>
<path d="M6.83996 7.30381C7.3309 6.29237 8.14852 5.476 9.16071 4.98662C10.1729 4.49723 11.3205 4.36342 12.4182 4.60679C13.5158 4.85017 14.4993 5.45653 15.2098 6.32788C15.9203 7.19923 16.3162 8.28468 16.3336 9.40884C16.3267 9.29149 16.3137 9.17457 16.2948 9.05854C16.2616 8.85394 16.2104 8.65268 16.1418 8.45711C15.8366 7.59344 15.2013 6.88608 14.3753 6.49024C13.5492 6.09439 12.5999 6.04238 11.7355 6.34561C11.2684 6.50825 10.8425 6.77089 10.4874 7.11519L10.4798 7.12166L10.4669 7.13459L10.4464 7.15507C10.0382 7.56104 9.73802 8.06276 9.57337 8.61447C9.57073 8.62113 9.56857 8.62798 9.5669 8.63495C9.5669 8.63495 9.5669 8.64681 9.5669 8.65219L8.01804 7.91603L7.97493 7.89555L6.82056 7.34261L6.83996 7.30381Z" fill="url(#paint8_linear_2035_1647)"/>
<path d="M6.84205 7.30381C7.33299 6.29237 8.15062 5.476 9.16281 4.98662C10.175 4.49723 11.3226 4.36342 12.4203 4.60679C13.5179 4.85017 14.5014 5.45653 15.2119 6.32788C15.9224 7.19923 16.3183 8.28468 16.3357 9.40884C16.3293 9.29144 16.3163 9.1745 16.2969 9.05854C16.2642 8.85384 16.213 8.65253 16.1438 8.45711C15.8389 7.59351 15.2038 6.88617 14.378 6.49031C13.5521 6.09445 12.6029 6.04241 11.7387 6.34561C11.2714 6.50849 10.8451 6.77109 10.4895 7.11519L10.483 7.12166L10.469 7.13459L10.4496 7.15507C10.0413 7.56104 9.74119 8.06276 9.57654 8.61447C9.57654 8.62094 9.57654 8.62848 9.569 8.63495C9.569 8.63495 9.569 8.64681 9.569 8.65219L8.02014 7.91603L7.97702 7.89555L6.82373 7.34261L6.84205 7.30381Z" fill="url(#paint9_linear_2035_1647)"/>
<path d="M9.20903 13.8722L9.22843 13.8324L9.24567 13.8378H9.26723C9.83203 13.9938 10.4275 14.0018 10.9963 13.861C11.5651 13.7202 12.088 13.4353 12.5148 13.0337L12.5363 13.0143L12.5493 13.0024L12.5557 12.9949C13.0212 12.54 13.3473 11.9619 13.4958 11.3283C13.6444 10.6947 13.6091 10.0318 13.3943 9.41751C13.3091 9.17718 13.1978 8.94694 13.0623 8.73093C13.0343 8.68566 13.0052 8.64147 12.9739 8.59727C12.9287 8.53153 12.8791 8.46686 12.8284 8.40326C12.7329 8.2854 12.6296 8.17413 12.5191 8.07021C12.2736 7.86624 11.9795 7.72926 11.6654 7.6726C11.3513 7.61594 11.0279 7.64152 10.7266 7.74686C10.273 7.90554 9.89982 8.23611 9.68759 8.66733L9.67789 8.68674L9.66819 8.70614L9.62831 8.68674L9.60029 8.6738L9.56148 8.6544C9.56099 8.64866 9.56099 8.64289 9.56148 8.63715L9.56795 8.6156C9.73276 8.06427 10.0329 7.56294 10.441 7.15727L10.4615 7.1368L10.4744 7.12386C10.4772 7.12163 10.4797 7.1191 10.482 7.11632C10.8376 6.77247 11.2639 6.51022 11.7312 6.34781C12.5954 6.04462 13.5446 6.09666 14.3704 6.49252C15.1963 6.88838 15.8314 7.59572 16.1363 8.45931C16.2056 8.65433 16.2568 8.85529 16.2894 9.05967C16.3088 9.17599 16.3217 9.2933 16.3282 9.41105C16.3375 9.57449 16.335 9.73839 16.3206 9.90147C16.3 10.1688 16.2487 10.4328 16.1676 10.6883C15.9895 11.4033 15.6548 12.0698 15.1877 12.6397C14.7206 13.2095 14.1327 13.6685 13.4665 13.9834C12.8003 14.2982 12.0725 14.4612 11.3356 14.4604C10.5988 14.4597 9.87132 14.2952 9.20579 13.979L9.18639 13.9703L9.16699 13.9606L9.20903 13.8722Z" fill="url(#paint10_linear_2035_1647)"/>
<path opacity="0.61" d="M11.7355 6.34558C11.2688 6.50907 10.843 6.7716 10.4873 7.11516L10.4798 7.12163L10.4668 7.13456L10.4464 7.15504C10.0381 7.56101 9.73796 8.06273 9.57331 8.61444C9.57067 8.6211 9.56851 8.62795 9.56684 8.63492C9.56684 8.63492 9.56684 8.64678 9.56684 8.65217L9.29199 8.51959C9.4716 7.92427 9.79558 7.38257 10.2351 6.9427L10.2664 6.91253L10.2868 6.89312C10.6732 6.51929 11.1363 6.2339 11.6438 6.05672C12.3733 5.80194 13.1633 5.77726 13.9072 5.98603C14.6511 6.19479 15.3129 6.62693 15.8033 7.22402C15.8984 7.41844 15.9805 7.61901 16.049 7.82438C16.2291 8.33397 16.3252 8.86946 16.3335 9.40989C16.3266 9.29254 16.3136 9.17562 16.2947 9.05959C16.2616 8.85499 16.2103 8.65373 16.1417 8.45815C15.8365 7.59448 15.2012 6.88713 14.3752 6.49128C13.5491 6.09544 12.5998 6.04342 11.7355 6.34666V6.34558Z" fill="url(#paint11_linear_2035_1647)"/>
<g opacity="0.79">
<path d="M15.4132 9.87221C15.4078 9.76132 15.3959 9.65083 15.3777 9.54131C15.3578 9.41822 15.3301 9.29654 15.2947 9.177C15.2546 9.03904 15.2041 8.90429 15.1438 8.77389C15.1012 8.67967 15.0533 8.58791 15.0004 8.49904C14.9085 8.34268 14.8025 8.19511 14.6835 8.0582C14.1597 7.44932 13.4156 7.07326 12.6147 7.01263C11.8138 6.952 11.0216 7.21176 10.412 7.73485C10.1391 7.96869 9.91051 8.24983 9.73731 8.56479L9.72115 8.59497L9.69851 8.637L9.68558 8.66072L9.67695 8.68012L9.66725 8.69952L9.62845 8.68658L9.60043 8.67365L9.56055 8.65425C9.56055 8.65425 9.56055 8.64239 9.56055 8.637C9.56221 8.62968 9.56437 8.62247 9.56701 8.61544C9.73183 8.06412 10.032 7.56279 10.4401 7.15712L10.4605 7.13664L10.4735 7.12371C10.4763 7.12147 10.4788 7.11894 10.481 7.11616C10.8365 6.77256 11.2623 6.51033 11.7292 6.34766C12.2065 6.18005 12.7147 6.11921 13.2181 6.16942C13.7215 6.21964 14.2077 6.3797 14.6424 6.6383C15.0772 6.8969 15.45 7.24775 15.7344 7.6661C16.0188 8.08445 16.2079 8.5601 16.2885 9.05952C16.3078 9.17584 16.3208 9.29315 16.3273 9.41089C16.3366 9.57434 16.3341 9.73824 16.3197 9.90131C16.3073 10.0433 16.286 10.1844 16.2561 10.3238C16.2302 10.4474 16.1971 10.5694 16.157 10.6892C15.8447 11.9406 15.0597 13.0223 13.9668 13.7072C14.5031 13.235 14.9155 12.6385 15.1677 11.9699C15.4199 11.3013 15.5042 10.581 15.4132 9.87221Z" fill="url(#paint12_linear_2035_1647)"/>
</g>
<path opacity="0.41" d="M15.9522 11.2228C15.9924 11.1027 16.0255 10.9803 16.0513 10.8563C16.0808 10.7172 16.102 10.5765 16.1149 10.4349C16.1289 10.2718 16.1311 10.1079 16.1214 9.94448C16.1149 9.82673 16.102 9.70943 16.0826 9.5931C16.05 9.38872 15.9988 9.18776 15.9295 8.99274C15.7372 8.44743 15.4111 7.95909 14.9811 7.57243C14.5512 7.18577 14.0311 6.91315 13.4685 6.77952C12.9059 6.6459 12.3188 6.65555 11.7609 6.80758C11.203 6.95961 10.6922 7.24917 10.2752 7.64975L10.2687 7.65729L10.2547 7.66915L10.2353 7.68963C9.96553 7.95876 9.74194 8.27047 9.57349 8.61226C9.73833 8.0627 10.0377 7.56294 10.4444 7.15825C10.4509 7.15071 10.4584 7.14424 10.4649 7.13777L10.4778 7.12484L10.4853 7.11837C10.8407 6.77383 11.267 6.51117 11.7346 6.34879C12.5988 6.04559 13.548 6.09763 14.3738 6.4935C15.1997 6.88936 15.8348 7.5967 16.1397 8.46029C16.2089 8.65571 16.2601 8.85702 16.2928 9.06172C16.3121 9.17769 16.3251 9.29463 16.3316 9.41202C16.3409 9.57546 16.3384 9.73937 16.324 9.90244C16.3002 10.1708 16.2456 10.4355 16.1613 10.6914C16.0857 10.9945 15.9814 11.2898 15.8498 11.5731C15.8886 11.4578 15.9231 11.3414 15.9522 11.2228Z" fill="url(#paint13_linear_2035_1647)"/>
</g>
<defs>
<linearGradient id="paint0_linear_2035_1647" x1="2.51545" y1="12.7748" x2="10.5754" y2="9.93639" gradientUnits="userSpaceOnUse">
<stop stop-color="#5729EA"/>
<stop offset="1" stop-color="#4010BB"/>
</linearGradient>
<linearGradient id="paint1_linear_2035_1647" x1="2.51545" y1="12.7748" x2="10.5754" y2="9.93639" gradientUnits="userSpaceOnUse">
<stop stop-color="#759400"/>
<stop offset="1" stop-color="#00E920"/>
</linearGradient>
<linearGradient id="paint2_linear_2035_1647" x1="2.51365" y1="12.7741" x2="10.5738" y2="9.93615" gradientUnits="userSpaceOnUse">
<stop stop-color="#3BE900"/>
<stop offset="1" stop-color="#095A1B"/>
</linearGradient>
<linearGradient id="paint3_linear_2035_1647" x1="3.32654" y1="13.0362" x2="6.8232" y2="5.73813" gradientUnits="userSpaceOnUse">
<stop stop-color="#116A00"/>
<stop offset="1" stop-color="#1CFF00"/>
</linearGradient>
<linearGradient id="paint4_linear_2035_1647" x1="1.66634" y1="11.3639" x2="8.71867" y2="11.3639" gradientUnits="userSpaceOnUse">
<stop stop-color="#15BF00" stop-opacity="0"/>
<stop offset="1" stop-color="#4CAA00"/>
</linearGradient>
<linearGradient id="paint5_linear_2035_1647" x1="8.32733" y1="10.9491" x2="-1.05114" y2="6.66867" gradientUnits="userSpaceOnUse">
<stop stop-color="#299400" stop-opacity="0.93"/>
<stop offset="0.01" stop-color="#279601" stop-opacity="0.9"/>
<stop offset="0.17" stop-color="#1BAF13" stop-opacity="0.63"/>
<stop offset="0.32" stop-color="#11C421" stop-opacity="0.4"/>
<stop offset="0.48" stop-color="#09D42C" stop-opacity="0.22"/>
<stop offset="0.64" stop-color="#04DF34" stop-opacity="0.1"/>
<stop offset="0.81" stop-color="#01E639" stop-opacity="0.02"/>
<stop offset="1" stop-color="#00E93B" stop-opacity="0"/>
</linearGradient>
<linearGradient id="paint6_linear_2035_1647" x1="1.96168" y1="10.8205" x2="7.85112" y2="8.74654" gradientUnits="userSpaceOnUse">
<stop stop-color="#1AE800" stop-opacity="0.02"/>
<stop offset="0.07" stop-color="#27D900" stop-opacity="0.25"/>
<stop offset="0.14" stop-color="#32CC00" stop-opacity="0.45"/>
<stop offset="0.22" stop-color="#3CC100" stop-opacity="0.62"/>
<stop offset="0.31" stop-color="#43B900" stop-opacity="0.76"/>
<stop offset="0.41" stop-color="#49B200" stop-opacity="0.87"/>
<stop offset="0.52" stop-color="#4DAD00" stop-opacity="0.94"/>
<stop offset="0.67" stop-color="#50AA00" stop-opacity="0.99"/>
<stop offset="1" stop-color="#51AA00"/>
</linearGradient>
<linearGradient id="paint7_linear_2035_1647" x1="15.4841" y1="6.21568" x2="7.42413" y2="9.05404" gradientUnits="userSpaceOnUse">
<stop stop-color="#5729EA"/>
<stop offset="1" stop-color="#4010BB"/>
</linearGradient>
<linearGradient id="paint8_linear_2035_1647" x1="15.4841" y1="6.21568" x2="7.42413" y2="9.05404" gradientUnits="userSpaceOnUse">
<stop stop-color="#759400"/>
<stop offset="1" stop-color="#00E920"/>
</linearGradient>
<linearGradient id="paint9_linear_2035_1647" x1="15.4864" y1="6.21627" x2="7.42625" y2="9.05423" gradientUnits="userSpaceOnUse">
<stop stop-color="#3BE900"/>
<stop offset="1" stop-color="#08571B"/>
</linearGradient>
<linearGradient id="paint10_linear_2035_1647" x1="14.6725" y1="5.95532" x2="11.1754" y2="13.2524" gradientUnits="userSpaceOnUse">
<stop stop-color="#116A00"/>
<stop offset="1" stop-color="#1CFF00"/>
</linearGradient>
<linearGradient id="paint11_linear_2035_1647" x1="16.3335" y1="7.62606" x2="9.28121" y2="7.62606" gradientUnits="userSpaceOnUse">
<stop stop-color="#15BF00" stop-opacity="0"/>
<stop offset="1" stop-color="#4CAA00"/>
</linearGradient>
<linearGradient id="paint12_linear_2035_1647" x1="9.67588" y1="8.04225" x2="19.0533" y2="12.323" gradientUnits="userSpaceOnUse">
<stop stop-color="#299400" stop-opacity="0.93"/>
<stop offset="0.01" stop-color="#279601" stop-opacity="0.9"/>
<stop offset="0.17" stop-color="#1BAF13" stop-opacity="0.63"/>
<stop offset="0.32" stop-color="#11C421" stop-opacity="0.4"/>
<stop offset="0.48" stop-color="#09D42C" stop-opacity="0.22"/>
<stop offset="0.64" stop-color="#04DF34" stop-opacity="0.1"/>
<stop offset="0.81" stop-color="#01E639" stop-opacity="0.02"/>
<stop offset="1" stop-color="#00E93B" stop-opacity="0"/>
</linearGradient>
<linearGradient id="paint13_linear_2035_1647" x1="16.0377" y1="8.16967" x2="10.1483" y2="10.2437" gradientUnits="userSpaceOnUse">
<stop stop-color="#1AE800" stop-opacity="0.02"/>
<stop offset="0.07" stop-color="#27D900" stop-opacity="0.25"/>
<stop offset="0.14" stop-color="#32CC00" stop-opacity="0.45"/>
<stop offset="0.22" stop-color="#3CC100" stop-opacity="0.62"/>
<stop offset="0.31" stop-color="#43B900" stop-opacity="0.76"/>
<stop offset="0.41" stop-color="#49B200" stop-opacity="0.87"/>
<stop offset="0.52" stop-color="#4DAD00" stop-opacity="0.94"/>
<stop offset="0.67" stop-color="#50AA00" stop-opacity="0.99"/>
<stop offset="1" stop-color="#51AA00"/>
</linearGradient>
<clipPath id="clip0_2035_1647">
<rect width="18" height="18" fill="white" transform="translate(0 0.495117)"/>
</clipPath>
</defs>
</svg>
