<svg width="58" height="57" viewBox="0 0 58 57" fill="none" xmlns="http://www.w3.org/2000/svg">
<g clip-path="url(#clip0_2035_1383)">
<g clip-path="url(#clip1_2035_1383)">
<rect x="0.5" width="57" height="57" fill="black"/>
<path d="M22.1897 16.8639L18.3199 14.6148L28.8458 8.46094L39.4027 14.6148L35.5329 16.8639L28.8458 12.9904L22.1897 16.8639ZM42.158 20.7374V25.2669L46.0279 23.0178V18.4883L42.158 16.2079L38.2882 18.4571L42.158 20.7374ZM24.976 18.4883L28.8458 20.7374L32.7157 18.4883L28.8458 16.2079L24.976 18.4883ZM39.4027 22.3617L35.5329 20.1126L28.8458 23.9862L22.1897 20.1126L18.3199 22.3617V26.8912L24.976 30.7647V38.5117L28.8458 40.7608L32.7157 38.5117V30.7647L39.4027 26.8912V22.3617ZM42.158 36.2626L35.502 40.1361V44.6655L46.0589 38.5117V26.2353L42.158 28.5156V36.2626ZM35.502 36.9185L39.3717 34.6694V30.1087L35.502 32.3578V36.9185ZM24.976 41.7604V46.2898L28.8458 48.5391L32.7157 46.2898V41.7604L28.8458 44.0095L24.976 41.7604ZM11.6328 23.0178L15.5026 25.2669V20.7374L19.3725 18.4883L15.5336 16.2079L11.6638 18.4571V23.0178H11.6328ZM15.5336 28.5156L11.6638 26.2665V38.543L22.2207 44.6967V40.1673L15.5336 36.2626V28.5156ZM22.1897 32.3891L18.3199 30.14V34.6694L22.1897 36.9185V32.3891Z" fill="#F1BA0D"/>
</g>
</g>
<defs>
<clipPath id="clip0_2035_1383">
<rect x="0.5" width="57" height="57" fill="white"/>
</clipPath>
<clipPath id="clip1_2035_1383">
<rect x="0.5" width="57" height="57" rx="5" fill="white"/>
</clipPath>
</defs>
</svg>
