<svg width="21" height="21" viewBox="0 0 21 21" fill="none" xmlns="http://www.w3.org/2000/svg">
<g clip-path="url(#clip0_2991_54387)">
<path d="M10.5 20.9902C16.299 20.9902 21 16.2892 21 10.4902C21 4.69124 16.299 -0.00976562 10.5 -0.00976562C4.70101 -0.00976562 0 4.69124 0 10.4902C0 16.2892 4.70101 20.9902 10.5 20.9902Z" fill="#F3BA2F"/>
<path d="M7.95113 9.44286L10.5 6.89398L13.0502 9.44417L14.5333 7.96105L10.5 3.92773L6.468 7.95973L7.95113 9.44286ZM3.9375 10.4902L5.42063 9.00711L6.90375 10.4902L5.42063 11.9734L3.9375 10.4902ZM7.95113 11.5376L10.5 14.0865L13.0502 11.5363L14.5333 13.0188L10.5 17.0527L6.468 13.0207L6.46603 13.0188L7.95113 11.5376ZM14.0962 10.4902L15.5794 9.00711L17.0625 10.4902L15.5794 11.9734L14.0962 10.4902ZM12.0041 10.4889H12.0054V10.4902L10.5 11.9957L8.99653 10.4929L8.99391 10.4902L8.99653 10.4883L9.25969 10.2245L9.38766 10.0965L10.5 8.9848L12.0048 10.4896L12.0041 10.4889Z" fill="white"/>
</g>
<defs>
<clipPath id="clip0_2991_54387">
<rect width="21" height="21" fill="white" transform="translate(0 -0.00976562)"/>
</clipPath>
</defs>
</svg>
