<svg width="25" height="26" viewBox="0 0 25 26" fill="none" xmlns="http://www.w3.org/2000/svg">
<path d="M12.5 24.5664C18.9721 24.5664 24.2188 19.3197 24.2188 12.8477C24.2188 6.37557 18.9721 1.12891 12.5 1.12891C6.02791 1.12891 0.78125 6.37557 0.78125 12.8477C0.78125 19.3197 6.02791 24.5664 12.5 24.5664Z" fill="#19DC00"/>
<path d="M19.2969 11.6758L17.2266 12.8867V13.043C17.2266 14.0977 16.3672 14.957 15.3516 14.957H10.7812V13.4727L6.25 16.0508L10.7812 18.707V17.2227H15.3516C16.4453 17.2227 17.5 16.793 18.2812 16.0117C19.0625 15.2305 19.4922 14.1758 19.4922 13.043C19.5313 12.5352 19.4531 12.1055 19.2969 11.6758ZM7.73437 12.6523C7.73437 11.5977 8.59375 10.7383 9.60938 10.7383H14.2188V12.2227L18.75 9.64453L14.2188 6.98828V8.47266H9.60938C8.51563 8.47266 7.46094 8.90234 6.67969 9.68359C5.89844 10.4648 5.46875 11.5195 5.46875 12.6523C5.46875 13.1211 5.54688 13.5898 5.70313 14.0195L7.77344 12.8086C7.73437 12.7695 7.73437 12.7305 7.73437 12.6523Z" fill="black"/>
</svg>
