<svg width="58" height="57" viewBox="0 0 58 57" fill="none" xmlns="http://www.w3.org/2000/svg">
<g clip-path="url(#clip0_2035_1389)">
<g clip-path="url(#clip1_2035_1389)">
<rect x="0.5" width="57" height="57" fill="#0052FF"/>
<path fill-rule="evenodd" clip-rule="evenodd" d="M8.96094 28.5C8.96094 39.5673 17.9327 48.5391 29 48.5391C40.0673 48.5391 49.0391 39.5673 49.0391 28.5C49.0391 17.4327 40.0673 8.46094 29 8.46094C17.9327 8.46094 8.96094 17.4327 8.96094 28.5ZM23.8789 22.043C23.1411 22.043 22.543 22.6411 22.543 23.3789V33.6211C22.543 34.3589 23.1411 34.957 23.8789 34.957H34.1211C34.8589 34.957 35.457 34.3589 35.457 33.6211V23.3789C35.457 22.6411 34.8589 22.043 34.1211 22.043H23.8789Z" fill="white"/>
</g>
</g>
<defs>
<clipPath id="clip0_2035_1389">
<rect x="0.5" width="57" height="57" fill="white"/>
</clipPath>
<clipPath id="clip1_2035_1389">
<rect x="0.5" width="57" height="57" rx="5" fill="white"/>
</clipPath>
</defs>
</svg>
