<svg width="64" height="65" viewBox="0 0 64 65" fill="none" xmlns="http://www.w3.org/2000/svg">
<rect y="0.5" width="64" height="64" rx="32" fill="#EA5455"/>
<path d="M42.0613 40.438C42.343 40.7198 42.5014 41.102 42.5014 41.5005C42.5014 41.899 42.343 42.2812 42.0613 42.563C41.7795 42.8448 41.3973 43.0031 40.9988 43.0031C40.6002 43.0031 40.218 42.8448 39.9363 42.563L32 34.6242L24.0613 42.5605C23.7795 42.8423 23.3973 43.0006 22.9988 43.0006C22.6002 43.0006 22.218 42.8423 21.9363 42.5605C21.6545 42.2787 21.4962 41.8965 21.4962 41.498C21.4962 41.0995 21.6545 40.7173 21.9363 40.4355L29.875 32.4992L21.9388 24.5605C21.657 24.2787 21.4987 23.8965 21.4987 23.498C21.4987 23.0995 21.657 22.7173 21.9388 22.4355C22.2205 22.1537 22.6027 21.9954 23.0013 21.9954C23.3998 21.9954 23.782 22.1537 24.0638 22.4355L32 30.3742L39.9388 22.4342C40.2205 22.1524 40.6027 21.9941 41.0013 21.9941C41.3998 21.9941 41.782 22.1524 42.0638 22.4342C42.3455 22.716 42.5039 23.0982 42.5039 23.4967C42.5039 23.8953 42.3455 24.2775 42.0638 24.5592L34.125 32.4992L42.0613 40.438Z" fill="white"/>
</svg>
