<svg width="40" height="40" viewBox="0 0 40 40" fill="none" xmlns="http://www.w3.org/2000/svg">
<g clip-path="url(#clip0_2543_15469)">
<path d="M40 0H0V40H40V0Z" fill="white"/>
<path fill-rule="evenodd" clip-rule="evenodd" d="M11.0835 12.8279C11.0868 12.3497 11.4734 11.9628 11.9515 11.959H27.7155C28.195 11.959 28.5835 12.3484 28.5835 12.8279V26.8401C28.5802 27.3183 28.1936 27.7052 27.7155 27.709H11.9515C11.472 27.7085 11.0835 27.3197 11.0835 26.8401V12.8279ZM26.8336 13.709H12.8336V25.959L20.9641 17.8268C21.3058 17.4852 21.8597 17.4852 22.2014 17.8268L26.8336 22.4678V13.709ZM14.5834 17.209C14.5834 18.1755 15.3669 18.959 16.3334 18.959C17.2999 18.959 18.0834 18.1755 18.0834 17.209C18.0834 16.2425 17.2999 15.459 16.3334 15.459C15.3669 15.459 14.5834 16.2425 14.5834 17.209Z" fill="#989898"/>
</g>
<defs>
<clipPath id="clip0_2543_15469">
<rect width="40" height="40" fill="white"/>
</clipPath>
</defs>
</svg>
