<svg width="58" height="57" viewBox="0 0 58 57" fill="none" xmlns="http://www.w3.org/2000/svg">
<g clip-path="url(#clip0_2035_1420)">
<rect x="0.5" width="57" height="57" fill="black"/>
<path d="M41.0382 10.6875H24.7524V32.6559H46.7382V16.3702C46.7379 15.6226 46.5902 14.8823 46.3034 14.1919C46.0166 13.5014 45.5965 12.8743 45.067 12.3464C44.5376 11.8186 43.9092 11.4003 43.2178 11.1157C42.5265 10.831 41.7858 10.6855 41.0382 10.6875Z" fill="white"/>
<path d="M19.6785 10.6875H16.8722C15.3645 10.6875 13.9186 11.2864 12.8525 12.3525C11.7864 13.4186 11.1875 14.8645 11.1875 16.3722L11.1875 19.1785H19.6785V10.6875Z" fill="white"/>
<path d="M11.1875 24.2546H19.6785V32.7456H11.1875V24.2546Z" fill="white"/>
<path d="M38.3215 46.2402H41.1278C41.8756 46.2402 42.6161 46.0927 43.3068 45.8061C43.9975 45.5194 44.6248 45.0993 45.1529 44.5698C45.681 44.0403 46.0994 43.4118 46.3842 42.7204C46.669 42.0289 46.8145 41.288 46.8125 40.5402V37.8215H38.3215V46.2402Z" fill="white"/>
<path d="M24.7545 37.8215H33.2455V46.3125H24.7545V37.8215Z" fill="white"/>
<path d="M11.1875 37.8215V40.6278C11.1875 41.3743 11.3345 42.1135 11.6202 42.8032C11.9059 43.4929 12.3246 44.1196 12.8525 44.6475C13.3804 45.1754 14.0071 45.5941 14.6968 45.8798C15.3865 46.1655 16.1257 46.3125 16.8722 46.3125H19.6785V37.8215H11.1875Z" fill="white"/>
</g>
<defs>
<clipPath id="clip0_2035_1420">
<rect x="0.5" width="57" height="57" rx="5" fill="white"/>
</clipPath>
</defs>
</svg>
