<svg width="58" height="57" viewBox="0 0 58 57" fill="none" xmlns="http://www.w3.org/2000/svg">
<g clip-path="url(#clip0_2035_1343)">
<g clip-path="url(#clip1_2035_1343)">
<rect x="0.5" width="57" height="57" fill="white"/>
<path d="M45.0382 12.0234L31.1375 22.3477L33.708 16.2565L45.0382 12.0234Z" fill="#E2761B" stroke="#E2761B" stroke-linecap="round" stroke-linejoin="round"/>
<path d="M12.9478 12.0234L26.7367 22.4455L24.2919 16.2565L12.9478 12.0234Z" fill="#E4761B" stroke="#E4761B" stroke-linecap="round" stroke-linejoin="round"/>
<path d="M40.0368 35.9551L36.3346 41.6271L44.2559 43.8065L46.5331 36.0808L40.0368 35.9551Z" fill="#E4761B" stroke="#E4761B" stroke-linecap="round" stroke-linejoin="round"/>
<path d="M11.4808 36.0808L13.7441 43.8065L21.6654 41.6271L17.9632 35.9551L11.4808 36.0808Z" fill="#E4761B" stroke="#E4761B" stroke-linecap="round" stroke-linejoin="round"/>
<path d="M21.2183 26.3711L19.011 29.7101L26.8764 30.0594L26.597 21.6072L21.2183 26.3711Z" fill="#E4761B" stroke="#E4761B" stroke-linecap="round" stroke-linejoin="round"/>
<path d="M36.7676 26.3713L31.3191 21.5095L31.1375 30.0595L38.9889 29.7103L36.7676 26.3713Z" fill="#E4761B" stroke="#E4761B" stroke-linecap="round" stroke-linejoin="round"/>
<path d="M21.6654 41.6272L26.3875 39.322L22.3081 36.1367L21.6654 41.6272Z" fill="#E4761B" stroke="#E4761B" stroke-linecap="round" stroke-linejoin="round"/>
<path d="M31.5985 39.322L36.3345 41.6272L35.6779 36.1367L31.5985 39.322Z" fill="#E4761B" stroke="#E4761B" stroke-linecap="round" stroke-linejoin="round"/>
<path d="M36.3345 41.6272L31.5985 39.322L31.9757 42.4095L31.9338 43.7088L36.3345 41.6272Z" fill="#D7C1B3" stroke="#D7C1B3" stroke-linecap="round" stroke-linejoin="round"/>
<path d="M21.6654 41.6272L26.0661 43.7088L26.0382 42.4095L26.3875 39.322L21.6654 41.6272Z" fill="#D7C1B3" stroke="#D7C1B3" stroke-linecap="round" stroke-linejoin="round"/>
<path d="M26.136 34.0969L22.1963 32.9373L24.9764 31.666L26.136 34.0969Z" fill="#233447" stroke="#233447" stroke-linecap="round" stroke-linejoin="round"/>
<path d="M31.85 34.0969L33.0095 31.666L35.8037 32.9373L31.85 34.0969Z" fill="#233447" stroke="#233447" stroke-linecap="round" stroke-linejoin="round"/>
<path d="M21.6655 41.6271L22.3361 35.9551L17.9633 36.0808L21.6655 41.6271Z" fill="#CD6116" stroke="#CD6116" stroke-linecap="round" stroke-linejoin="round"/>
<path d="M35.6639 35.9551L36.3345 41.6271L40.0367 36.0808L35.6639 35.9551Z" fill="#CD6116" stroke="#CD6116" stroke-linecap="round" stroke-linejoin="round"/>
<path d="M38.989 29.7102L31.1376 30.0595L31.864 34.097L33.0236 31.6661L35.8177 32.9374L38.989 29.7102Z" fill="#CD6116" stroke="#CD6116" stroke-linecap="round" stroke-linejoin="round"/>
<path d="M22.1964 32.9374L24.9905 31.6661L26.1361 34.097L26.8766 30.0595L19.0111 29.7102L22.1964 32.9374Z" fill="#CD6116" stroke="#CD6116" stroke-linecap="round" stroke-linejoin="round"/>
<path d="M19.0111 29.7102L22.3082 36.1367L22.1964 32.9374L19.0111 29.7102Z" fill="#E4751F" stroke="#E4751F" stroke-linecap="round" stroke-linejoin="round"/>
<path d="M35.8177 32.9374L35.678 36.1367L38.989 29.7102L35.8177 32.9374Z" fill="#E4751F" stroke="#E4751F" stroke-linecap="round" stroke-linejoin="round"/>
<path d="M26.8765 30.0596L26.1361 34.0971L27.0582 38.861L27.2677 32.5882L26.8765 30.0596Z" fill="#E4751F" stroke="#E4751F" stroke-linecap="round" stroke-linejoin="round"/>
<path d="M31.1375 30.0596L30.7603 32.5743L30.9279 38.861L31.8639 34.0971L31.1375 30.0596Z" fill="#E4751F" stroke="#E4751F" stroke-linecap="round" stroke-linejoin="round"/>
<path d="M31.864 34.0971L30.928 38.861L31.5986 39.3221L35.678 36.1368L35.8177 32.9375L31.864 34.0971Z" fill="#F6851B" stroke="#F6851B" stroke-linecap="round" stroke-linejoin="round"/>
<path d="M22.1963 32.9375L22.3081 36.1368L26.3875 39.3221L27.0581 38.861L26.136 34.0971L22.1963 32.9375Z" fill="#F6851B" stroke="#F6851B" stroke-linecap="round" stroke-linejoin="round"/>
<path d="M31.9338 43.7088L31.9757 42.4096L31.6264 42.1022H26.3595L26.0382 42.4096L26.0661 43.7088L21.6654 41.6272L23.2022 42.8846L26.3176 45.05H31.6683L34.7978 42.8846L36.3345 41.6272L31.9338 43.7088Z" fill="#C0AD9E" stroke="#C0AD9E" stroke-linecap="round" stroke-linejoin="round"/>
<path d="M31.5985 39.3219L30.9279 38.8608H27.0581L26.3875 39.3219L26.0382 42.4094L26.3595 42.102H31.6264L31.9757 42.4094L31.5985 39.3219Z" fill="#161616" stroke="#161616" stroke-linecap="round" stroke-linejoin="round"/>
<path d="M45.625 23.0183L46.8125 17.3183L45.0382 12.0234L31.5985 21.9984L36.7676 26.3712L44.0742 28.5087L45.6948 26.6227L44.9963 26.1198L46.114 25.0999L45.2478 24.4293L46.3654 23.5771L45.625 23.0183Z" fill="#763D16" stroke="#763D16" stroke-linecap="round" stroke-linejoin="round"/>
<path d="M11.1875 17.3183L12.375 23.0183L11.6206 23.5771L12.7382 24.4293L11.886 25.0999L13.0037 26.1198L12.3051 26.6227L13.9118 28.5087L21.2184 26.3712L26.3875 21.9984L12.9478 12.0234L11.1875 17.3183Z" fill="#763D16" stroke="#763D16" stroke-linecap="round" stroke-linejoin="round"/>
<path d="M44.0743 28.5088L36.7677 26.3713L38.989 29.7103L35.678 36.1368L40.0368 36.0809H46.5331L44.0743 28.5088Z" fill="#F6851B" stroke="#F6851B" stroke-linecap="round" stroke-linejoin="round"/>
<path d="M21.2183 26.3713L13.9117 28.5088L11.4808 36.0809H17.9632L22.308 36.1368L19.011 29.7103L21.2183 26.3713Z" fill="#F6851B" stroke="#F6851B" stroke-linecap="round" stroke-linejoin="round"/>
<path d="M31.1375 30.0595L31.5985 21.9985L33.722 16.2566H24.2919L26.3875 21.9985L26.8764 30.0595L27.0441 32.6022L27.058 38.861H30.9279L30.9558 32.6022L31.1375 30.0595Z" fill="#F6851B" stroke="#F6851B" stroke-linecap="round" stroke-linejoin="round"/>
</g>
</g>
<defs>
<clipPath id="clip0_2035_1343">
<rect x="0.5" width="57" height="57" fill="white"/>
</clipPath>
<clipPath id="clip1_2035_1343">
<rect x="0.5" width="57" height="57" rx="5" fill="white"/>
</clipPath>
</defs>
</svg>
