<svg width="12" height="13" viewBox="0 0 12 13" fill="none" xmlns="http://www.w3.org/2000/svg">
<path fill-rule="evenodd" clip-rule="evenodd" d="M6.01454 0.347656C4.50887 0.347656 3.13721 0.84499 2.32554 1.25132C2.25221 1.28799 2.18376 1.32377 2.12021 1.35866C1.99421 1.42732 1.88687 1.49132 1.80154 1.54766L2.72487 2.90699L3.15954 3.07999C4.85821 3.93699 7.13621 3.93699 8.83521 3.07999L9.32854 2.82399L10.2015 1.54766C10.0205 1.43003 9.83249 1.3235 9.63854 1.22866C8.83087 0.826656 7.49187 0.347656 6.01487 0.347656M3.86754 1.88632C3.54065 1.82481 3.21774 1.74377 2.90054 1.64366C3.66087 1.30599 4.79387 0.947656 6.01487 0.947656C6.86054 0.947656 7.66021 1.11966 8.32154 1.33766C7.54654 1.44666 6.71954 1.63166 5.93154 1.85932C5.31154 2.03866 4.58687 2.01932 3.86754 1.88632ZM9.18754 3.57432L9.10554 3.61566C7.23687 4.55832 4.75821 4.55832 2.88954 3.61566L2.81187 3.57632C0.00420696 6.65666 -2.13913 12.3467 6.01454 12.3467C14.1682 12.3467 11.9729 6.55099 9.18754 3.57432ZM5.66821 6.34766C5.4914 6.34766 5.32183 6.41789 5.1968 6.54292C5.07178 6.66794 5.00154 6.83751 5.00154 7.01432C5.00154 7.19113 5.07178 7.3607 5.1968 7.48573C5.32183 7.61075 5.4914 7.68099 5.66821 7.68099V6.34766ZM6.33487 5.68099V5.34766H5.66821V5.68099C5.31459 5.68099 4.97545 5.82147 4.7254 6.07151C4.47535 6.32156 4.33487 6.6607 4.33487 7.01432C4.33487 7.36795 4.47535 7.70708 4.7254 7.95713C4.97545 8.20718 5.31459 8.34766 5.66821 8.34766V9.68099C5.37821 9.68099 5.13121 9.49599 5.03921 9.23666C5.02556 9.19423 5.00354 9.15497 4.97445 9.1212C4.94536 9.08743 4.9098 9.05984 4.86986 9.04005C4.82992 9.02027 4.78642 9.00869 4.74193 9.00601C4.69744 9.00333 4.65287 9.0096 4.61085 9.02445C4.56882 9.0393 4.5302 9.06242 4.49727 9.09245C4.46434 9.12249 4.43777 9.15882 4.41912 9.1993C4.40048 9.23979 4.39014 9.2836 4.38873 9.32814C4.38731 9.37269 4.39484 9.41707 4.41087 9.45866C4.50278 9.71868 4.67305 9.9438 4.89823 10.103C5.12341 10.2622 5.39242 10.3477 5.66821 10.3477V10.681H6.33487V10.3477C6.6885 10.3477 7.02763 10.2072 7.27768 9.95713C7.52773 9.70708 7.66821 9.36794 7.66821 9.01432C7.66821 8.6607 7.52773 8.32156 7.27768 8.07151C7.02763 7.82147 6.6885 7.68099 6.33487 7.68099V6.34766C6.62487 6.34766 6.87187 6.53266 6.96387 6.79199C6.97752 6.83442 6.99954 6.87368 7.02863 6.90745C7.05772 6.94122 7.09328 6.96881 7.13322 6.9886C7.17316 7.00838 7.21666 7.01996 7.26115 7.02264C7.30564 7.02532 7.35021 7.01905 7.39224 7.0042C7.43426 6.98935 7.47288 6.96623 7.50581 6.93619C7.53874 6.90616 7.56531 6.86983 7.58396 6.82934C7.6026 6.78886 7.61294 6.74505 7.61436 6.7005C7.61577 6.65595 7.60824 6.61158 7.59221 6.56999C7.5003 6.30997 7.33003 6.08485 7.10485 5.92563C6.87967 5.76642 6.61066 5.68095 6.33487 5.68099ZM6.33487 8.34766V9.68099C6.51168 9.68099 6.68125 9.61075 6.80628 9.48573C6.9313 9.3607 7.00154 9.19113 7.00154 9.01432C7.00154 8.83751 6.9313 8.66794 6.80628 8.54292C6.68125 8.41789 6.51168 8.34766 6.33487 8.34766Z" fill="#19DC00"/>
</svg>
