<svg width="64" height="64" viewBox="0 0 64 64" fill="none" xmlns="http://www.w3.org/2000/svg">
<g clip-path="url(#clip0_2715_30541)">
<path d="M53.2637 33.7413C54.2254 21.9985 45.4857 11.6995 33.7429 10.7378C22.0002 9.77603 11.7012 18.5158 10.7394 30.2585C10.499 33.1942 7.92423 35.3792 4.98854 35.1387C2.05285 34.8983 -0.132084 32.3235 0.108349 29.3879C1.55095 11.7737 16.9995 -1.33591 34.6136 0.106694C52.2278 1.54929 65.3374 16.9978 63.8948 34.612C63.6543 37.5477 61.0796 39.7326 58.1439 39.4922C55.2082 39.2517 53.0233 36.677 53.2637 33.7413Z" fill="#D8FFD3"/>
<path d="M20.1099 49.7133C29.8929 56.2791 43.1463 53.671 49.7121 43.8879C56.2778 34.1049 53.6697 20.8516 43.8867 14.2858C41.4409 12.6443 40.7889 9.33101 42.4304 6.88526C44.0718 4.4395 47.3851 3.78747 49.8309 5.42892C64.5055 15.2776 68.4176 35.1576 58.5689 49.8321C48.7203 64.5067 28.8403 68.4189 14.1657 58.5702C11.7199 56.9287 11.0679 53.6154 12.7094 51.1696C14.3508 48.7239 17.6641 48.0719 20.1099 49.7133Z" fill="#16C500"/>
</g>
<defs>
<clipPath id="clip0_2715_30541">
<rect width="64" height="64" fill="white"/>
</clipPath>
</defs>
</svg>
