<svg width="58" height="57" viewBox="0 0 58 57" fill="none" xmlns="http://www.w3.org/2000/svg">
<g clip-path="url(#clip0_2035_1407)">
<g clip-path="url(#clip1_2035_1407)">
<rect x="0.5" width="57" height="57" fill="url(#paint0_linear_2035_1407)"/>
<path d="M49.7444 28.9071H44.6492C44.6492 18.5985 36.202 10.2422 25.7815 10.2422C15.4898 10.2422 7.12251 18.3939 6.91776 28.526C6.70588 38.9991 16.6386 48.0938 27.227 48.0938H28.5589C37.8939 48.0938 50.4057 40.8649 52.3607 32.0569C52.7218 30.4332 51.4251 28.9071 49.7444 28.9071ZM18.2096 29.3663C18.2096 30.7449 17.0699 31.8723 15.6763 31.8723C14.2828 31.8723 13.1431 30.7443 13.1431 29.3663V25.3122C13.1431 23.9336 14.2828 22.8062 15.6763 22.8062C17.0699 22.8062 18.2096 23.9336 18.2096 25.3122V29.3663ZM27.0061 29.3663C27.0061 30.7449 25.8664 31.8723 24.4729 31.8723C23.0794 31.8723 21.9396 30.7443 21.9396 29.3663V25.3122C21.9396 23.9336 23.0798 22.8062 24.4729 22.8062C25.8664 22.8062 27.0061 23.9336 27.0061 25.3122V29.3663Z" fill="url(#paint1_linear_2035_1407)"/>
</g>
</g>
<defs>
<linearGradient id="paint0_linear_2035_1407" x1="29" y1="0" x2="29" y2="57" gradientUnits="userSpaceOnUse">
<stop stop-color="#534BB1"/>
<stop offset="1" stop-color="#551BF9"/>
</linearGradient>
<linearGradient id="paint1_linear_2035_1407" x1="29.6679" y1="10.2422" x2="29.6679" y2="48.0938" gradientUnits="userSpaceOnUse">
<stop stop-color="white"/>
<stop offset="1" stop-color="white" stop-opacity="0.82"/>
</linearGradient>
<clipPath id="clip0_2035_1407">
<rect x="0.5" width="57" height="57" fill="white"/>
</clipPath>
<clipPath id="clip1_2035_1407">
<rect x="0.5" width="57" height="57" rx="5" fill="white"/>
</clipPath>
</defs>
</svg>
