<svg width="176" height="57" viewBox="0 0 176 57" fill="none" xmlns="http://www.w3.org/2000/svg">
<g clip-path="url(#clip0_2201_5414)">
<path d="M31.985 0L59.0718 26.8258C59.2931 27.045 59.4687 27.3052 59.5885 27.5916C59.7083 27.8781 59.77 28.185 59.77 28.495C59.77 28.805 59.7083 29.112 59.5885 29.3984C59.4687 29.6848 59.2931 29.9451 59.0718 30.1642L52.5462 36.6269C52.3249 36.8462 52.0622 37.02 51.773 37.1387C51.4839 37.2573 51.1739 37.3184 50.861 37.3184C50.548 37.3184 50.238 37.2573 49.9489 37.1387C49.6597 37.02 49.397 36.8462 49.1757 36.6269L32.6832 20.2933C32.2362 19.8506 31.985 19.2503 31.985 18.6243V0Z" fill="url(#paint0_linear_2201_5414)"/>
<path d="M32.6832 36.697L49.1757 20.3633C49.397 20.1441 49.6597 19.9702 49.9489 19.8516C50.238 19.7329 50.548 19.6719 50.861 19.6719C51.1739 19.6719 51.4839 19.7329 51.773 19.8516C52.0622 19.9702 52.3249 20.1441 52.5462 20.3633L59.0718 26.826C59.2931 27.0452 59.4687 27.3054 59.5885 27.5918C59.7083 27.8782 59.77 28.1852 59.77 28.4952C59.77 28.8052 59.7083 29.1122 59.5885 29.3986C59.4687 29.685 59.2931 29.9453 59.0718 30.1644L31.985 56.9903V38.366C31.985 37.74 32.2362 37.1396 32.6832 36.697Z" fill="url(#paint1_linear_2201_5414)"/>
<path d="M27.7849 56.9903L0.698174 30.1641C0.47683 29.9449 0.301246 29.6847 0.181452 29.3983C0.0616578 29.112 0 28.805 0 28.4951C0 28.1851 0.0616578 27.8781 0.181452 27.5918C0.301246 27.3054 0.47683 27.0452 0.698174 26.8261L7.22247 20.3634C7.44379 20.1441 7.70655 19.9702 7.99574 19.8516C8.28494 19.7329 8.59489 19.6719 8.90792 19.6719C9.22094 19.6719 9.5309 19.7329 9.82009 19.8516C10.1093 19.9702 10.372 20.1441 10.5934 20.3634L27.0868 36.6966C27.3082 36.9158 27.4838 37.1761 27.6036 37.4625C27.7234 37.749 27.785 38.056 27.7849 38.366V56.9903Z" fill="url(#paint2_linear_2201_5414)"/>
<path d="M27.0868 20.2937L10.5946 36.6269C10.3733 36.8462 10.1106 37.0201 9.82136 37.1387C9.53217 37.2574 9.22221 37.3184 8.90919 37.3184C8.59616 37.3184 8.2862 37.2574 7.99701 37.1387C7.70782 37.0201 7.44506 36.8462 7.22373 36.6269L0.698174 30.1643C0.47683 29.9451 0.301246 29.6849 0.181452 29.3985C0.0616578 29.1122 0 28.8052 0 28.4952C0 28.1853 0.0616578 27.8783 0.181452 27.592C0.301246 27.3056 0.47683 27.0454 0.698174 26.8262L27.7849 0V18.6243C27.785 18.9343 27.7233 19.2413 27.6035 19.5278C27.4837 19.8142 27.3081 20.0745 27.0868 20.2937Z" fill="url(#paint3_linear_2201_5414)"/>
<path d="M75.3788 25.3489C74.7335 25.3489 74.1733 25.2336 73.6983 25.003C73.2407 24.7881 72.8584 24.4429 72.6001 24.0116C72.3427 23.5813 72.2142 23.0749 72.2145 22.4924V18.5265C72.2145 17.9409 72.343 17.4333 72.6001 17.0039C72.8592 16.574 73.2414 16.23 73.6983 16.0154C74.173 15.7854 74.7332 15.6702 75.3788 15.6699C76.0245 15.6696 76.5847 15.7848 77.0594 16.0154C77.5162 16.23 77.8984 16.574 78.1576 17.0039C78.4147 17.4322 78.5432 17.9397 78.5432 18.5265V22.4919C78.5432 23.0745 78.4147 23.5809 78.1576 24.0112C77.8993 24.4425 77.517 24.7877 77.0594 25.0025C76.5847 25.2334 76.0245 25.3489 75.3788 25.3489ZM75.3788 23.6464C75.7762 23.6464 76.0907 23.5349 76.3224 23.3118C76.5542 23.0887 76.67 22.7854 76.67 22.402V18.6114C76.67 18.2285 76.5542 17.9252 76.3224 17.7016C76.0907 17.4779 75.7762 17.3664 75.3788 17.367C74.9846 17.367 74.6712 17.4785 74.4387 17.7016C74.2061 17.9247 74.0891 18.2279 74.0877 18.6114V22.4003C74.0877 22.7829 74.2047 23.0862 74.4387 23.3101C74.6727 23.534 74.986 23.646 75.3788 23.646V23.6464ZM78.4102 25.6229L74.9227 22.8835L76.0103 21.6901L79.4906 24.409L78.4102 25.6229Z" fill="white"/>
<path d="M86.2894 25.3485C85.3166 25.3485 84.5611 25.0898 84.023 24.5722C83.4849 24.0546 83.216 23.3263 83.2163 22.3874V15.7695H85.0477V22.4326C85.0477 22.8199 85.1553 23.1211 85.3704 23.3361C85.5855 23.5511 85.8919 23.6588 86.2894 23.659C86.6873 23.659 86.9961 23.5514 87.2157 23.3361C87.4353 23.1208 87.5453 22.8197 87.5456 22.4326V15.7695H89.3769V22.387C89.3769 23.3259 89.1056 24.0542 88.563 24.5718C88.0204 25.0893 87.2626 25.3483 86.2894 25.3485Z" fill="white"/>
<path d="M95.6022 15.7695V25.2523H93.7438V15.7695H95.6022Z" fill="white"/>
<path d="M103.195 25.3488C102.549 25.3488 101.997 25.2325 101.539 24.9999C101.091 24.7773 100.723 24.423 100.486 23.9855C100.243 23.5421 100.121 23.0052 100.121 22.3747V18.6518C100.121 18.0174 100.243 17.4784 100.486 17.0347C100.723 16.5973 101.091 16.2431 101.539 16.0207C101.997 15.7882 102.549 15.6719 103.195 15.6719C103.831 15.6719 104.368 15.7882 104.805 16.0207C105.243 16.2533 105.581 16.6098 105.819 17.0903C106.057 17.5711 106.2 18.1744 106.247 18.9003H104.367C104.339 18.5567 104.277 18.273 104.181 18.0491C104.085 17.8251 103.955 17.6588 103.791 17.55C103.613 17.4376 103.405 17.3809 103.195 17.3873C102.825 17.3873 102.534 17.497 102.321 17.7165C102.108 17.936 102.002 18.2472 102.001 18.6502V22.373C102.001 22.7729 102.108 23.0827 102.321 23.3025C102.534 23.5222 102.825 23.6319 103.194 23.6317C103.545 23.6317 103.818 23.5077 104.012 23.2598C104.206 23.0119 104.324 22.6315 104.366 22.1187H106.247C106.195 22.8437 106.05 23.447 105.812 23.9286C105.573 24.4102 105.236 24.7668 104.801 24.9982C104.367 25.2319 103.831 25.3488 103.195 25.3488Z" fill="white"/>
<path d="M110.556 25.2508V15.7701H112.38V25.2529L110.556 25.2508ZM111.945 23.8014L111.818 21.2054L114.864 15.7676H117.046L111.945 23.8014ZM115.334 25.2491L112.983 20.2551L114.408 19.2838L117.425 25.2512L115.334 25.2491Z" fill="white"/>
<path d="M126.59 17.4042V15.7695H132.876V17.4063L126.59 17.4042ZM128.815 25.2502V16.5568H130.646V25.2502H128.815Z" fill="white"/>
<path d="M139.656 25.3489C139.01 25.3489 138.45 25.2336 137.975 25.003C137.518 24.7881 137.135 24.4429 136.877 24.0116C136.62 23.5813 136.491 23.0749 136.491 22.4924V18.5265C136.491 17.9409 136.62 17.4333 136.877 17.0039C137.136 16.574 137.518 16.23 137.975 16.0154C138.45 15.7854 139.01 15.6702 139.656 15.6699C140.301 15.6696 140.862 15.7848 141.336 16.0154C141.793 16.2301 142.175 16.5741 142.435 17.0039C142.692 17.4322 142.82 17.9397 142.82 18.5265V22.4919C142.82 23.0745 142.692 23.5809 142.435 24.0112C142.176 24.4424 141.794 24.7876 141.336 25.0026C140.861 25.2335 140.301 25.3489 139.656 25.3489ZM139.656 23.6464C140.053 23.6464 140.368 23.5349 140.599 23.3118C140.831 23.0887 140.947 22.7854 140.947 22.402V18.6114C140.947 18.2285 140.831 17.9252 140.599 17.7016C140.368 17.4779 140.053 17.3664 139.656 17.367C139.262 17.367 138.948 17.4785 138.716 17.7016C138.483 17.9247 138.366 18.2279 138.365 18.6114V22.4003C138.365 22.7829 138.482 23.0862 138.716 23.3101C138.95 23.5341 139.263 23.646 139.656 23.646V23.6464Z" fill="white"/>
<path d="M147.347 25.2508V15.7701H149.171V25.2529L147.347 25.2508ZM148.736 23.8014L148.609 21.2054L151.654 15.7676H153.837L148.736 23.8014ZM152.125 25.2491L149.774 20.2534L151.199 19.2838L154.216 25.2512L152.125 25.2491Z" fill="white"/>
<path d="M158.181 25.2502V15.7695H160.005V25.2523L158.181 25.2502ZM158.911 17.4176V15.7695H163.858V17.4176H158.911ZM158.911 21.3567V19.7195H163.296V21.3567H158.911ZM158.911 25.2502V23.6001H163.858V25.2502H158.911Z" fill="white"/>
<path d="M168.209 25.2435V15.7695H170.061L173.162 22.5589L172.98 22.7739V15.7695H174.691V25.2435H172.817L169.745 18.6892L169.914 18.4738V25.2435H168.209Z" fill="white"/>
<path d="M75.7843 34.0991H79.9366V37.2933C79.9366 38.1215 79.7616 38.8372 79.4116 39.4404C79.0692 40.0366 78.5583 40.5208 77.9417 40.8333C77.3121 41.1587 76.5609 41.3213 75.688 41.321C74.81 41.321 74.0479 41.1643 73.4017 40.8509C72.7555 40.5374 72.2575 40.0939 71.9078 39.5203C71.5578 38.9464 71.3828 38.2661 71.3828 37.4794V32.2268C71.3828 31.3869 71.5563 30.6638 71.9032 30.0575C72.2452 29.4559 72.758 28.9669 73.3781 28.6512C74.0142 28.3199 74.7651 28.1543 75.631 28.1543C76.4833 28.1543 77.2088 28.3036 77.8074 28.6023C78.4033 28.899 78.8941 29.3678 79.2152 29.9467C79.5556 30.544 79.7576 31.2893 79.8213 32.1825H77.2153C77.1646 31.6206 77.0007 31.2051 76.7236 30.936C76.4466 30.6669 76.0823 30.5323 75.631 30.5323C75.1216 30.5323 74.7143 30.6857 74.4091 30.9924C74.1038 31.2992 73.9511 31.7102 73.9508 32.2256V37.4802C73.9508 37.9239 74.1083 38.2788 74.4234 38.5448C74.7385 38.8108 75.16 38.944 75.688 38.9443C76.2162 38.9443 76.6363 38.8023 76.9483 38.5184C77.2603 38.2346 77.4162 37.8352 77.4159 37.3204V36.3262H75.7835L75.7843 34.0991Z" fill="white"/>
<path d="M83.9347 41.1878V28.2871H86.4161V41.1878H83.9347ZM84.9273 30.5321V28.2871H91.6572V30.5321H84.9273ZM84.9273 35.8909V33.6639H90.8932V35.8905L84.9273 35.8909ZM84.9273 41.1878V38.9441H91.6572V41.1886L84.9273 41.1878Z" fill="white"/>
<path d="M95.426 41.179V28.2871H97.9467L102.165 37.5219L101.917 37.8147V28.2871H104.246V41.179H101.697L97.5159 32.2622L97.7452 31.9694V41.179H95.426Z" fill="white"/>
<path d="M108.587 41.1878V28.2871H111.07V41.1878H108.587ZM109.58 30.5321V28.2871H116.31V30.5321H109.58ZM109.58 35.8909V33.6639H115.546V35.8905L109.58 35.8909ZM109.58 41.1878V38.9441H116.31V41.1886L109.58 41.1878Z" fill="white"/>
<path d="M120.079 41.1877V28.2773H122.542V41.1877H120.079ZM121.129 35.8644V33.6374H124.785C125.148 33.6374 125.433 33.5309 125.639 33.3178C125.846 33.1048 125.949 32.818 125.95 32.4574V31.7296C125.95 31.3567 125.846 31.0596 125.639 30.8382C125.432 30.6167 125.147 30.5052 124.785 30.5035H121.129V28.2773H124.813C125.577 28.2773 126.236 28.4134 126.79 28.6856C127.325 28.9408 127.77 29.3487 128.069 29.8568C128.368 30.3655 128.517 30.9688 128.517 31.6668V32.4197C128.517 33.1295 128.366 33.7416 128.064 34.2561C127.764 34.7681 127.32 35.1816 126.785 35.4453C126.234 35.7241 125.577 35.8636 124.813 35.8636L121.129 35.8644ZM126.161 41.1877L123.555 35.4649L126.037 35.0571L129.005 41.1877H126.161Z" fill="white"/>
<path d="M131.341 41.1878L135.646 28.2871H137.307L141.612 41.1878H139.036L136.477 32.5638L133.919 41.1878H131.341ZM133.737 39.1561V36.9559H139.274V39.1561H133.737Z" fill="white"/>
<path d="M143.14 30.5141V28.2871H151.693V30.5141H143.14ZM146.166 41.1878V29.3609H148.658V41.1878H146.166Z" fill="white"/>
<path d="M158.762 41.3194C157.884 41.3194 157.122 41.1626 156.476 40.8492C155.831 40.5358 155.333 40.0862 154.982 39.5006C154.632 38.915 154.457 38.2259 154.457 37.4334V32.0407C154.457 31.2423 154.632 30.5517 154.982 29.9689C155.332 29.386 155.83 28.938 156.476 28.6249C157.122 28.3112 157.884 28.1543 158.762 28.1543C159.641 28.1543 160.403 28.3106 161.048 28.6232C161.694 28.9367 162.192 29.3846 162.542 29.9672C162.893 30.5497 163.068 31.2409 163.068 32.0407V37.4367C163.068 38.2295 162.893 38.9186 162.542 39.504C162.192 40.0893 161.694 40.5377 161.048 40.8492C160.403 41.1629 159.641 41.3196 158.762 41.3194ZM158.762 39.0037C159.303 39.0037 159.731 38.8514 160.046 38.5469C160.361 38.2424 160.519 37.8305 160.519 37.3112V32.1541C160.519 31.6337 160.361 31.2213 160.046 30.9167C159.731 30.6122 159.303 30.4598 158.762 30.4595C158.227 30.4595 157.801 30.6119 157.483 30.9167C157.165 31.2215 157.006 31.634 157.006 32.1541V37.3112C157.006 37.8319 157.165 38.2445 157.483 38.549C157.801 38.8535 158.228 39.0051 158.762 39.0037Z" fill="white"/>
<path d="M167.075 41.1877V28.2773H169.538V41.1877H167.075ZM168.125 35.8644V33.6374H171.781C172.144 33.6374 172.428 33.5309 172.635 33.3178C172.842 33.1048 172.945 32.818 172.945 32.4574V31.7296C172.945 31.3567 172.842 31.0596 172.635 30.8382C172.428 30.6167 172.143 30.5052 171.781 30.5035H168.125V28.2773H171.809C172.573 28.2773 173.232 28.4134 173.786 28.6856C174.32 28.9408 174.766 29.3487 175.064 29.8568C175.364 30.3655 175.513 30.9688 175.513 31.6668V32.4197C175.513 33.1295 175.362 33.7416 175.06 34.2561C174.76 34.7681 174.315 35.1816 173.781 35.4453C173.23 35.7241 172.573 35.8636 171.809 35.8636L168.125 35.8644ZM173.155 41.1877L170.552 35.4649L173.033 35.0571L176 41.1877H173.155Z" fill="white"/>
</g>
<defs>
<linearGradient id="paint0_linear_2201_5414" x1="50.815" y1="23.47" x2="28.1391" y2="11.9736" gradientUnits="userSpaceOnUse">
<stop offset="0.14" stop-color="#116A00"/>
<stop offset="0.22" stop-color="#127700"/>
<stop offset="0.38" stop-color="#149800"/>
<stop offset="0.58" stop-color="#18CE00"/>
<stop offset="0.75" stop-color="#1CFF00"/>
</linearGradient>
<linearGradient id="paint1_linear_2201_5414" x1="55.6784" y1="23.7246" x2="28.1002" y2="51.5711" gradientUnits="userSpaceOnUse">
<stop offset="0.04" stop-color="#116A00"/>
<stop offset="0.15" stop-color="#127A00"/>
<stop offset="0.35" stop-color="#15A200"/>
<stop offset="0.64" stop-color="#1AE300"/>
<stop offset="0.75" stop-color="#1CFF00"/>
</linearGradient>
<linearGradient id="paint2_linear_2201_5414" x1="8.95529" y1="33.5199" x2="31.6312" y2="45.0164" gradientUnits="userSpaceOnUse">
<stop offset="0.14" stop-color="#116A00"/>
<stop offset="0.22" stop-color="#127700"/>
<stop offset="0.38" stop-color="#149800"/>
<stop offset="0.58" stop-color="#18CE00"/>
<stop offset="0.75" stop-color="#1CFF00"/>
</linearGradient>
<linearGradient id="paint3_linear_2201_5414" x1="4.09224" y1="33.266" x2="31.6704" y2="5.41952" gradientUnits="userSpaceOnUse">
<stop offset="0.04" stop-color="#116A00"/>
<stop offset="0.15" stop-color="#127A00"/>
<stop offset="0.35" stop-color="#15A200"/>
<stop offset="0.64" stop-color="#1AE300"/>
<stop offset="0.75" stop-color="#1CFF00"/>
</linearGradient>
<clipPath id="clip0_2201_5414">
<rect width="176" height="56.9905" fill="white"/>
</clipPath>
</defs>
</svg>
