<svg width="176" height="57" viewBox="0 0 176 57" fill="none" xmlns="http://www.w3.org/2000/svg">
<path d="M31.985 0L59.0718 26.8258C59.2931 27.045 59.4687 27.3052 59.5885 27.5916C59.7083 27.8781 59.77 28.185 59.77 28.495C59.77 28.805 59.7083 29.112 59.5885 29.3984C59.4687 29.6848 59.2931 29.9451 59.0718 30.1642L52.5462 36.6269C52.3249 36.8462 52.0622 37.02 51.773 37.1387C51.4839 37.2573 51.1739 37.3184 50.861 37.3184C50.548 37.3184 50.238 37.2573 49.9489 37.1387C49.6597 37.02 49.397 36.8462 49.1757 36.6269L32.6832 20.2933C32.2362 19.8506 31.985 19.2503 31.985 18.6243V0Z" fill="url(#paint0_linear_2030_945)"/>
<path d="M32.6832 36.697L49.1757 20.3633C49.397 20.1441 49.6597 19.9702 49.9489 19.8516C50.238 19.7329 50.548 19.6719 50.861 19.6719C51.1739 19.6719 51.4839 19.7329 51.773 19.8516C52.0622 19.9702 52.3249 20.1441 52.5462 20.3633L59.0718 26.826C59.2931 27.0452 59.4687 27.3054 59.5885 27.5918C59.7083 27.8782 59.77 28.1852 59.77 28.4952C59.77 28.8052 59.7083 29.1122 59.5885 29.3986C59.4687 29.685 59.2931 29.9453 59.0718 30.1644L31.985 56.9903V38.366C31.985 37.74 32.2362 37.1396 32.6832 36.697Z" fill="url(#paint1_linear_2030_945)"/>
<path d="M27.7849 56.9903L0.698174 30.1641C0.47683 29.9449 0.301246 29.6847 0.181452 29.3983C0.0616578 29.112 0 28.805 0 28.4951C0 28.1851 0.0616578 27.8781 0.181452 27.5918C0.301246 27.3054 0.47683 27.0452 0.698174 26.8261L7.22247 20.3634C7.44379 20.1441 7.70655 19.9702 7.99574 19.8516C8.28494 19.7329 8.59489 19.6719 8.90792 19.6719C9.22094 19.6719 9.5309 19.7329 9.82009 19.8516C10.1093 19.9702 10.372 20.1441 10.5934 20.3634L27.0868 36.6966C27.3082 36.9158 27.4838 37.1761 27.6036 37.4625C27.7234 37.749 27.785 38.056 27.7849 38.366V56.9903Z" fill="url(#paint2_linear_2030_945)"/>
<path d="M27.0868 20.2937L10.5946 36.6269C10.3733 36.8462 10.1106 37.0201 9.82136 37.1387C9.53217 37.2574 9.22221 37.3184 8.90919 37.3184C8.59616 37.3184 8.2862 37.2574 7.99701 37.1387C7.70782 37.0201 7.44506 36.8462 7.22373 36.6269L0.698174 30.1642C0.47683 29.9451 0.301246 29.6849 0.181452 29.3985C0.0616578 29.1122 0 28.8052 0 28.4952C0 28.1853 0.0616578 27.8783 0.181452 27.592C0.301246 27.3056 0.47683 27.0454 0.698174 26.8262L27.7849 0V18.6243C27.785 18.9343 27.7233 19.2413 27.6035 19.5278C27.4837 19.8142 27.3081 20.0745 27.0868 20.2937Z" fill="url(#paint3_linear_2030_945)"/>
<path d="M75.3788 25.3489C74.7335 25.3489 74.1733 25.2336 73.6983 25.003C73.2407 24.7881 72.8584 24.4429 72.6001 24.0116C72.3427 23.5813 72.2142 23.0749 72.2145 22.4924V18.5265C72.2145 17.9409 72.343 17.4333 72.6001 17.0039C72.8592 16.574 73.2414 16.23 73.6983 16.0154C74.173 15.7854 74.7332 15.6702 75.3788 15.6699C76.0245 15.6696 76.5847 15.7848 77.0594 16.0154C77.5162 16.23 77.8984 16.574 78.1576 17.0039C78.4147 17.4322 78.5432 17.9397 78.5432 18.5265V22.4919C78.5432 23.0745 78.4147 23.5809 78.1576 24.0112C77.8993 24.4425 77.517 24.7877 77.0594 25.0026C76.5847 25.2334 76.0245 25.3489 75.3788 25.3489ZM75.3788 23.6464C75.7762 23.6464 76.0907 23.5349 76.3224 23.3118C76.5542 23.0887 76.67 22.7854 76.67 22.402V18.6114C76.67 18.2285 76.5542 17.9252 76.3224 17.7016C76.0907 17.4779 75.7762 17.3664 75.3788 17.367C74.9846 17.367 74.6712 17.4785 74.4387 17.7016C74.2061 17.9247 74.0891 18.2279 74.0877 18.6114V22.4003C74.0877 22.7829 74.2047 23.0862 74.4387 23.3101C74.6727 23.534 74.986 23.646 75.3788 23.646V23.6464ZM78.4102 25.6229L74.9227 22.8835L76.0103 21.6901L79.4906 24.409L78.4102 25.6229Z" fill="#333333"/>
<path d="M86.2894 25.349C85.3166 25.349 84.5611 25.0902 84.023 24.5727C83.4849 24.0551 83.216 23.3268 83.2163 22.3879V15.77H85.0477V22.4331C85.0477 22.8204 85.1553 23.1216 85.3704 23.3366C85.5855 23.5516 85.8919 23.6592 86.2894 23.6595C86.6873 23.6595 86.9961 23.5519 87.2157 23.3366C87.4353 23.1213 87.5453 22.8201 87.5456 22.4331V15.77H89.3769V22.3875C89.3769 23.3264 89.1056 24.0547 88.563 24.5722C88.0204 25.0898 87.2626 25.3487 86.2894 25.349Z" fill="#333333"/>
<path d="M95.6022 15.77V25.2528H93.7438V15.77H95.6022Z" fill="#333333"/>
<path d="M103.195 25.3488C102.549 25.3488 101.997 25.2325 101.539 24.9999C101.091 24.7773 100.723 24.423 100.486 23.9855C100.243 23.5421 100.121 23.0052 100.121 22.3747V18.6518C100.121 18.0174 100.243 17.4784 100.486 17.0347C100.723 16.5973 101.091 16.2431 101.539 16.0207C101.997 15.7882 102.549 15.6719 103.195 15.6719C103.831 15.6719 104.368 15.7882 104.805 16.0207C105.243 16.2533 105.581 16.6098 105.819 17.0903C106.057 17.5711 106.2 18.1744 106.247 18.9003H104.367C104.339 18.5567 104.277 18.273 104.181 18.0491C104.085 17.8251 103.955 17.6588 103.791 17.55C103.613 17.4376 103.405 17.3809 103.195 17.3873C102.825 17.3873 102.534 17.497 102.321 17.7165C102.108 17.936 102.002 18.2472 102.001 18.6502V22.373C102.001 22.7729 102.108 23.0827 102.321 23.3025C102.534 23.5222 102.825 23.6319 103.194 23.6317C103.545 23.6317 103.818 23.5077 104.012 23.2598C104.206 23.0119 104.324 22.6315 104.366 22.1187H106.247C106.195 22.8437 106.05 23.447 105.812 23.9286C105.573 24.4102 105.236 24.7668 104.801 24.9982C104.367 25.2319 103.831 25.3488 103.195 25.3488Z" fill="#333333"/>
<path d="M110.556 25.2503V15.7696H112.38V25.2524L110.556 25.2503ZM111.945 23.8009L111.818 21.205L114.864 15.7671H117.046L111.945 23.8009ZM115.334 25.2486L112.983 20.2546L114.408 19.2833L117.425 25.2507L115.334 25.2486Z" fill="#333333"/>
<path d="M126.59 17.4047V15.77H132.876V17.4068L126.59 17.4047ZM128.815 25.2507V16.5573H130.646V25.2507H128.815Z" fill="#333333"/>
<path d="M139.656 25.3489C139.01 25.3489 138.45 25.2336 137.975 25.003C137.518 24.7881 137.135 24.4429 136.877 24.0116C136.62 23.5813 136.491 23.0749 136.491 22.4924V18.5265C136.491 17.9409 136.62 17.4333 136.877 17.0039C137.136 16.574 137.518 16.23 137.975 16.0154C138.45 15.7854 139.01 15.6702 139.656 15.6699C140.301 15.6696 140.862 15.7848 141.336 16.0154C141.793 16.2301 142.175 16.5741 142.435 17.0039C142.692 17.4322 142.82 17.9397 142.82 18.5265V22.4919C142.82 23.0745 142.692 23.5809 142.435 24.0112C142.176 24.4424 141.794 24.7876 141.336 25.0026C140.861 25.2335 140.301 25.3489 139.656 25.3489ZM139.656 23.6464C140.053 23.6464 140.368 23.5349 140.599 23.3118C140.831 23.0887 140.947 22.7854 140.947 22.402V18.6114C140.947 18.2285 140.831 17.9252 140.599 17.7016C140.368 17.4779 140.053 17.3664 139.656 17.367C139.262 17.367 138.948 17.4785 138.716 17.7016C138.483 17.9247 138.366 18.2279 138.365 18.6114V22.4003C138.365 22.7829 138.482 23.0862 138.716 23.3101C138.95 23.5341 139.263 23.646 139.656 23.646V23.6464Z" fill="#333333"/>
<path d="M147.347 25.2503V15.7696H149.171V25.2524L147.347 25.2503ZM148.736 23.8009L148.609 21.205L151.654 15.7671H153.837L148.736 23.8009ZM152.125 25.2486L149.774 20.2529L151.199 19.2833L154.216 25.2507L152.125 25.2486Z" fill="#333333"/>
<path d="M158.181 25.2507V15.77H160.005V25.2528L158.181 25.2507ZM158.911 17.4181V15.77H163.858V17.4181H158.911ZM158.911 21.3572V19.72H163.296V21.3572H158.911ZM158.911 25.2507V23.6005H163.858V25.2507H158.911Z" fill="#333333"/>
<path d="M168.209 25.244V15.77H170.061L173.162 22.5594L172.98 22.7744V15.77H174.691V25.244H172.817L169.745 18.6897L169.914 18.4743V25.244H168.209Z" fill="#333333"/>
<path d="M75.7843 34.0982H79.9366V37.2923C79.9366 38.1205 79.7616 38.8362 79.4116 39.4394C79.0692 40.0357 78.5583 40.5198 77.9417 40.8323C77.3121 41.1578 76.5609 41.3203 75.688 41.3201C74.81 41.3201 74.0479 41.1633 73.4017 40.8499C72.7555 40.5365 72.2575 40.0929 71.9078 39.5193C71.5578 38.9454 71.3828 38.2651 71.3828 37.4784V32.2259C71.3828 31.3859 71.5563 30.6628 71.9032 30.0566C72.2452 29.4549 72.758 28.9659 73.3781 28.6503C74.0142 28.319 74.7651 28.1533 75.631 28.1533C76.4833 28.1533 77.2088 28.3027 77.8074 28.6013C78.4033 28.898 78.8941 29.3668 79.2152 29.9457C79.5556 30.5431 79.7576 31.2883 79.8213 32.1815H77.2153C77.1646 31.6196 77.0007 31.2041 76.7236 30.935C76.4466 30.6659 76.0823 30.5313 75.631 30.5313C75.1216 30.5313 74.7143 30.6847 74.4091 30.9915C74.1038 31.2982 73.9511 31.7093 73.9508 32.2246V37.4793C73.9508 37.9229 74.1083 38.2778 74.4234 38.5438C74.7385 38.8099 75.16 38.943 75.688 38.9433C76.2162 38.9433 76.6363 38.8014 76.9483 38.5175C77.2603 38.2336 77.4162 37.8343 77.4159 37.3195V36.3252H75.7835L75.7843 34.0982Z" fill="#333333"/>
<path d="M83.9347 41.1873V28.2866H86.4161V41.1873H83.9347ZM84.9273 30.5316V28.2866H91.6572V30.5316H84.9273ZM84.9273 35.8904V33.6634H90.8932V35.89L84.9273 35.8904ZM84.9273 41.1873V38.9436H91.6572V41.1882L84.9273 41.1873Z" fill="#333333"/>
<path d="M95.426 41.1785V28.2866H97.9467L102.165 37.5214L101.917 37.8142V28.2866H104.246V41.1785H101.697L97.5159 32.2617L97.7452 31.9689V41.1785H95.426Z" fill="#333333"/>
<path d="M108.587 41.1873V28.2866H111.07V41.1873H108.587ZM109.58 30.5316V28.2866H116.31V30.5316H109.58ZM109.58 35.8904V33.6634H115.546V35.89L109.58 35.8904ZM109.58 41.1873V38.9436H116.31V41.1882L109.58 41.1873Z" fill="#333333"/>
<path d="M120.079 41.1872V28.2769H122.542V41.1872H120.079ZM121.129 35.8639V33.6369H124.785C125.148 33.6369 125.433 33.5304 125.639 33.3173C125.846 33.1043 125.949 32.8175 125.95 32.4569V31.7291C125.95 31.3562 125.846 31.0591 125.639 30.8377C125.432 30.6163 125.147 30.5047 124.785 30.503H121.129V28.2769H124.813C125.577 28.2769 126.236 28.4129 126.79 28.6851C127.325 28.9403 127.77 29.3482 128.069 29.8563C128.368 30.365 128.517 30.9683 128.517 31.6663V32.4193C128.517 33.129 128.366 33.7411 128.064 34.2556C127.764 34.7676 127.32 35.1812 126.785 35.4448C126.234 35.7237 125.577 35.8631 124.813 35.8631L121.129 35.8639ZM126.161 41.1872L123.555 35.4645L126.037 35.0566L129.005 41.1872H126.161Z" fill="#333333"/>
<path d="M131.341 41.1873L135.646 28.2866H137.307L141.612 41.1873H139.036L136.477 32.5633L133.919 41.1873H131.341ZM133.737 39.1557V36.9554H139.274V39.1557H133.737Z" fill="#333333"/>
<path d="M143.14 30.5136V28.2866H151.693V30.5136H143.14ZM146.166 41.1873V29.3604H148.658V41.1873H146.166Z" fill="#333333"/>
<path d="M158.762 41.3203C157.884 41.3203 157.122 41.1636 156.476 40.8502C155.831 40.5367 155.333 40.0872 154.982 39.5016C154.632 38.916 154.457 38.2269 154.457 37.4344V32.0417C154.457 31.2433 154.632 30.5527 154.982 29.9698C155.332 29.387 155.83 28.939 156.476 28.6259C157.122 28.3121 157.884 28.1553 158.762 28.1553C159.641 28.1553 160.403 28.3116 161.048 28.6242C161.694 28.9376 162.192 29.3856 162.542 29.9682C162.893 30.5507 163.068 31.2419 163.068 32.0417V37.4377C163.068 38.2305 162.893 38.9196 162.542 39.5049C162.192 40.0903 161.694 40.5387 161.048 40.8502C160.403 41.1639 159.641 41.3206 158.762 41.3203ZM158.762 39.0046C159.303 39.0046 159.731 38.8524 160.046 38.5479C160.361 38.2433 160.519 37.8315 160.519 37.3122V32.155C160.519 31.6347 160.361 31.2222 160.046 30.9177C159.731 30.6132 159.303 30.4608 158.762 30.4605C158.227 30.4605 157.801 30.6129 157.483 30.9177C157.165 31.2225 157.006 31.6349 157.006 32.155V37.3122C157.006 37.8329 157.165 38.2454 157.483 38.55C157.801 38.8545 158.228 39.006 158.762 39.0046Z" fill="#333333"/>
<path d="M167.075 41.1872V28.2769H169.538V41.1872H167.075ZM168.125 35.8639V33.6369H171.781C172.144 33.6369 172.428 33.5304 172.635 33.3173C172.842 33.1043 172.945 32.8175 172.945 32.4569V31.7291C172.945 31.3562 172.842 31.0591 172.635 30.8377C172.428 30.6163 172.143 30.5047 171.781 30.503H168.125V28.2769H171.809C172.573 28.2769 173.232 28.4129 173.786 28.6851C174.32 28.9403 174.766 29.3482 175.064 29.8563C175.364 30.365 175.513 30.9683 175.513 31.6663V32.4193C175.513 33.129 175.362 33.7411 175.06 34.2556C174.76 34.7676 174.315 35.1812 173.781 35.4448C173.23 35.7237 172.573 35.8631 171.809 35.8631L168.125 35.8639ZM173.155 41.1872L170.552 35.4645L173.033 35.0566L176 41.1872H173.155Z" fill="#333333"/>
<defs>
<linearGradient id="paint0_linear_2030_945" x1="50.815" y1="23.47" x2="28.1391" y2="11.9736" gradientUnits="userSpaceOnUse">
<stop offset="0.14" stop-color="#116A00"/>
<stop offset="0.22" stop-color="#127700"/>
<stop offset="0.38" stop-color="#149800"/>
<stop offset="0.58" stop-color="#18CE00"/>
<stop offset="0.75" stop-color="#1CFF00"/>
</linearGradient>
<linearGradient id="paint1_linear_2030_945" x1="55.6784" y1="23.7246" x2="28.1002" y2="51.5711" gradientUnits="userSpaceOnUse">
<stop offset="0.04" stop-color="#116A00"/>
<stop offset="0.15" stop-color="#127A00"/>
<stop offset="0.35" stop-color="#15A200"/>
<stop offset="0.64" stop-color="#1AE300"/>
<stop offset="0.75" stop-color="#1CFF00"/>
</linearGradient>
<linearGradient id="paint2_linear_2030_945" x1="8.95529" y1="33.5199" x2="31.6312" y2="45.0164" gradientUnits="userSpaceOnUse">
<stop offset="0.14" stop-color="#116A00"/>
<stop offset="0.22" stop-color="#127700"/>
<stop offset="0.38" stop-color="#149800"/>
<stop offset="0.58" stop-color="#18CE00"/>
<stop offset="0.75" stop-color="#1CFF00"/>
</linearGradient>
<linearGradient id="paint3_linear_2030_945" x1="4.09224" y1="33.266" x2="31.6704" y2="5.41952" gradientUnits="userSpaceOnUse">
<stop offset="0.04" stop-color="#116A00"/>
<stop offset="0.15" stop-color="#127A00"/>
<stop offset="0.35" stop-color="#15A200"/>
<stop offset="0.64" stop-color="#1AE300"/>
<stop offset="0.75" stop-color="#1CFF00"/>
</linearGradient>
</defs>
</svg>
