<svg width="58" height="57" viewBox="0 0 58 57" fill="none" xmlns="http://www.w3.org/2000/svg">
<g clip-path="url(#clip0_2035_1401)">
<g clip-path="url(#clip1_2035_1401)">
<rect x="0.5" width="57" height="57" fill="#4A21EF"/>
<path d="M27.0335 12.54C26.5525 12.54 26.0762 12.6347 25.6318 12.8188C25.1874 13.0029 24.7836 13.2727 24.4435 13.6128L13.6531 24.4034C13.4584 24.5976 13.304 24.8284 13.1988 25.0824C13.0936 25.3364 13.0396 25.6088 13.04 25.8837C13.04 26.4195 13.2444 26.9551 13.6531 27.3637L20.7245 34.4352V21.9163C20.7245 20.982 21.4758 20.2245 22.41 20.2245H37.2753L44.9598 12.54H27.0335ZM20.7248 36.7756H35.5841C36.0327 36.7755 36.463 36.5972 36.7802 36.28C37.0974 35.9627 37.2756 35.5325 37.2756 35.0838V22.5649L44.347 29.6363C44.5416 29.8305 44.696 30.0612 44.8012 30.3152C44.9064 30.5692 44.9604 30.8414 44.96 31.1163C44.9604 31.3913 44.9064 31.6635 44.8012 31.9175C44.696 32.1715 44.5417 32.4022 44.347 32.5963L33.5566 43.3873C32.8696 44.0741 31.938 44.46 30.9665 44.46H13.0403L20.7248 36.7756Z" fill="white"/>
</g>
</g>
<defs>
<clipPath id="clip0_2035_1401">
<rect x="0.5" width="57" height="57" fill="white"/>
</clipPath>
<clipPath id="clip1_2035_1401">
<rect x="0.5" width="57" height="57" rx="5" fill="white"/>
</clipPath>
</defs>
</svg>
