<svg width="64" height="64" viewBox="0 0 64 64" fill="none" xmlns="http://www.w3.org/2000/svg">
<path d="M0 32C0 14.3269 14.3269 0 32 0V0C49.6731 0 64 14.3269 64 32V32C64 49.6731 49.6731 64 32 64V64C14.3269 64 0 49.6731 0 32V32Z" fill="#16C500"/>
<path fill-rule="evenodd" clip-rule="evenodd" d="M25.3332 38.5049L45.1714 18.6667C45.9525 17.8856 47.2188 17.8856 47.9999 18.6667C48.7809 19.4477 48.7809 20.714 47.9999 21.4951L25.3332 44.1618L15.9998 34.8284C15.2188 34.0474 15.2188 32.781 15.9998 32C16.7809 31.2189 18.0472 31.2189 18.8283 32L25.3332 38.5049Z" fill="white"/>
</svg>
