<svg width="33" height="31" viewBox="0 0 33 31" fill="none" xmlns="http://www.w3.org/2000/svg">
<path d="M17.2646 0L31.8853 14.4798C32.0048 14.5982 32.0996 14.7386 32.1643 14.8932C32.2289 15.0478 32.2622 15.2135 32.2622 15.3808C32.2622 15.5482 32.2289 15.7139 32.1643 15.8685C32.0996 16.0231 32.0048 16.1635 31.8853 16.2818L28.363 19.7702C28.2436 19.8885 28.1018 19.9824 27.9457 20.0464C27.7896 20.1105 27.6223 20.1434 27.4534 20.1434C27.2844 20.1434 27.1172 20.1105 26.9611 20.0464C26.805 19.9824 26.6632 19.8885 26.5437 19.7702L17.6415 10.9538C17.4002 10.7148 17.2647 10.3908 17.2646 10.0529V0Z" fill="url(#paint0_linear_2079_2420)"/>
<path d="M17.6415 19.808L26.5437 10.9915C26.6632 10.8732 26.805 10.7793 26.9611 10.7153C27.1172 10.6512 27.2844 10.6183 27.4534 10.6183C27.6223 10.6183 27.7896 10.6512 27.9457 10.7153C28.1018 10.7793 28.2436 10.8732 28.363 10.9915L31.8853 14.4799C32.0048 14.5982 32.0996 14.7387 32.1643 14.8933C32.2289 15.0479 32.2622 15.2136 32.2622 15.3809C32.2622 15.5482 32.2289 15.7139 32.1643 15.8685C32.0996 16.0231 32.0048 16.1636 31.8853 16.2819L17.2646 30.7617V20.7089C17.2647 20.371 17.4002 20.0469 17.6415 19.808Z" fill="url(#paint1_linear_2079_2420)"/>
<path d="M14.9976 30.7619L0.376856 16.2818C0.25738 16.1635 0.162604 16.0231 0.0979428 15.8685C0.0332812 15.7139 0 15.5482 0 15.3809C0 15.2136 0.0332812 15.0479 0.0979428 14.8934C0.162604 14.7388 0.25738 14.5983 0.376856 14.48L3.89849 10.9917C4.01796 10.8733 4.15979 10.7795 4.31589 10.7154C4.47198 10.6514 4.63929 10.6184 4.80825 10.6184C4.97721 10.6184 5.14452 10.6514 5.30062 10.7154C5.45672 10.7795 5.59855 10.8733 5.71801 10.9917L14.6207 19.8079C14.7402 19.9262 14.835 20.0667 14.8997 20.2213C14.9643 20.3759 14.9976 20.5417 14.9976 20.709V30.7619Z" fill="url(#paint2_linear_2079_2420)"/>
<path d="M14.6207 10.954L5.7187 19.7702C5.59923 19.8886 5.4574 19.9824 5.3013 20.0465C5.1452 20.1105 4.9779 20.1435 4.80894 20.1435C4.63997 20.1435 4.47267 20.1105 4.31657 20.0465C4.16047 19.9824 4.01864 19.8886 3.89917 19.7702L0.376856 16.2818C0.25738 16.1635 0.162604 16.0231 0.0979428 15.8685C0.0332812 15.7139 0 15.5483 0 15.381C0 15.2136 0.0332812 15.048 0.0979428 14.8934C0.162604 14.7388 0.25738 14.5984 0.376856 14.4801L14.9976 0V10.0529C14.9976 10.2202 14.9643 10.3859 14.8996 10.5406C14.835 10.6952 14.7402 10.8357 14.6207 10.954Z" fill="url(#paint3_linear_2079_2420)"/>
<defs>
<linearGradient id="paint0_linear_2079_2420" x1="27.4286" y1="12.6685" x2="15.1887" y2="6.463" gradientUnits="userSpaceOnUse">
<stop offset="0.14" stop-color="#116A00"/>
<stop offset="0.22" stop-color="#127700"/>
<stop offset="0.38" stop-color="#149800"/>
<stop offset="0.58" stop-color="#18CE00"/>
<stop offset="0.75" stop-color="#1CFF00"/>
</linearGradient>
<linearGradient id="paint1_linear_2079_2420" x1="30.0537" y1="12.8058" x2="15.1677" y2="27.8366" gradientUnits="userSpaceOnUse">
<stop offset="0.04" stop-color="#116A00"/>
<stop offset="0.15" stop-color="#127A00"/>
<stop offset="0.35" stop-color="#15A200"/>
<stop offset="0.64" stop-color="#1AE300"/>
<stop offset="0.75" stop-color="#1CFF00"/>
</linearGradient>
<linearGradient id="paint2_linear_2079_2420" x1="4.83382" y1="18.0932" x2="17.0737" y2="24.2987" gradientUnits="userSpaceOnUse">
<stop offset="0.14" stop-color="#116A00"/>
<stop offset="0.22" stop-color="#127700"/>
<stop offset="0.38" stop-color="#149800"/>
<stop offset="0.58" stop-color="#18CE00"/>
<stop offset="0.75" stop-color="#1CFF00"/>
</linearGradient>
<linearGradient id="paint3_linear_2079_2420" x1="2.20888" y1="17.9561" x2="17.0948" y2="2.92531" gradientUnits="userSpaceOnUse">
<stop offset="0.04" stop-color="#116A00"/>
<stop offset="0.15" stop-color="#127A00"/>
<stop offset="0.35" stop-color="#15A200"/>
<stop offset="0.64" stop-color="#1AE300"/>
<stop offset="0.75" stop-color="#1CFF00"/>
</linearGradient>
</defs>
</svg>
