<svg width="104" height="76" viewBox="0 0 104 76" fill="none" xmlns="http://www.w3.org/2000/svg">
<path d="M28.3688 75.9009C21.9129 75.4834 15.7788 73.359 10.8422 69.8308C5.90558 66.3027 2.41897 61.5512 0.880183 56.255C-0.658604 50.9587 -0.170881 45.3884 2.27371 40.3395C4.7183 35.2905 8.99477 31.0211 14.4925 28.1408C15.6623 20.4598 20.1158 13.4009 27.0195 8.28523C33.9232 3.16955 42.8041 0.347656 52 0.347656C61.196 0.347656 70.0768 3.16955 76.9806 8.28523C83.8843 13.4009 88.3378 20.4598 89.5076 28.1408C95.0053 31.0211 99.2817 35.2905 101.726 40.3395C104.171 45.3884 104.659 50.9587 103.12 56.255C101.581 61.5512 98.0945 66.3027 93.1579 69.8308C88.2213 73.359 82.0871 75.4834 75.6313 75.9009V75.9765H28.3688V75.9009ZM56.7263 44.1365H70.905L52 24.2365L33.095 44.1365H47.2738V60.0565H56.7263V44.1365Z" fill="#16C500"/>
</svg>
