<svg width="218" height="218" viewBox="0 0 218 218" fill="none" xmlns="http://www.w3.org/2000/svg">
<path d="M102.873 175.199C92.3451 186.714 39.544 214.93 15.4579 187.456C4.87913 175.389 6.01418 152.191 25.6865 138.339C54.9755 117.718 2.14831 96.8801 16.2108 54.9776C20.9879 40.7422 48.5779 21.4812 78.6867 36.9403C102.404 49.1163 105.031 85.4627 140.786 88.4741C157.533 89.8838 183.936 89.9027 194.552 114.442C200.251 127.615 193.977 152.454 170.498 157.552C149.528 162.106 116.146 160.683 102.873 175.197V175.199Z" fill="#DEFFDE"/>
<path d="M169.466 141.429C169.459 141.429 169.45 141.429 169.443 141.429C169.12 141.416 168.87 141.144 168.883 140.821C168.941 139.391 169.091 137.903 169.328 136.397C169.377 136.079 169.678 135.861 169.995 135.911C170.313 135.96 170.531 136.259 170.482 136.578C170.252 138.04 170.107 139.483 170.05 140.868C170.037 141.182 169.778 141.429 169.467 141.429H169.466Z" fill="#00FF00"/>
<path d="M97.0084 216.325C96.148 216.325 95.2877 216.319 94.4273 216.307C94.1047 216.303 93.846 216.038 93.8503 215.716C93.8547 215.393 94.1163 215.133 94.4418 215.139C95.2979 215.15 96.1524 215.156 97.0084 215.156C99.1245 215.156 101.274 215.121 103.394 215.053C103.716 215.039 103.986 215.296 103.998 215.618C104.008 215.941 103.755 216.21 103.432 216.222C101.299 216.29 99.1376 216.325 97.0084 216.325ZM85.4588 215.985C85.4472 215.985 85.4355 215.985 85.4239 215.985C82.4053 215.806 79.3839 215.553 76.4467 215.235C76.1255 215.2 75.8944 214.912 75.9293 214.591C75.9642 214.27 76.2519 214.039 76.5731 214.074C79.4929 214.39 82.494 214.642 85.4937 214.819C85.8163 214.838 86.0619 215.114 86.0416 215.437C86.0227 215.746 85.7654 215.986 85.4588 215.986V215.985ZM112.377 215.726C112.075 215.726 111.819 215.493 111.796 215.187C111.771 214.866 112.011 214.584 112.332 214.559C115.322 214.325 118.319 214.02 121.24 213.651C121.558 213.611 121.852 213.837 121.892 214.156C121.933 214.476 121.706 214.768 121.387 214.809C118.448 215.181 115.432 215.488 112.424 215.723C112.408 215.723 112.393 215.724 112.377 215.724V215.726ZM67.6089 214.039C67.5784 214.039 67.5464 214.036 67.5145 214.031C64.5032 213.544 61.5238 212.975 58.6608 212.338C58.3454 212.268 58.1477 211.956 58.2175 211.642C58.2873 211.327 58.6012 211.13 58.9151 211.199C61.7564 211.83 64.7125 212.396 67.702 212.879C68.0202 212.931 68.2368 213.231 68.1859 213.549C68.1394 213.835 67.8909 214.04 67.6104 214.04L67.6089 214.039ZM130.189 213.462C129.912 213.462 129.666 213.264 129.615 212.981C129.559 212.664 129.769 212.36 130.088 212.303C133.077 211.767 136.025 211.152 138.846 210.477C139.161 210.402 139.475 210.594 139.55 210.908C139.626 211.222 139.433 211.537 139.119 211.613C136.276 212.295 133.307 212.914 130.294 213.454C130.259 213.46 130.224 213.463 130.191 213.463L130.189 213.462ZM50.0905 210.119C50.0367 210.119 49.98 210.112 49.9262 210.096C46.9673 209.228 44.0882 208.263 41.3705 207.227C41.0696 207.112 40.917 206.775 41.0318 206.473C41.1467 206.172 41.4838 206.021 41.7861 206.134C44.4748 207.159 47.3248 208.113 50.2547 208.974C50.5643 209.064 50.7416 209.389 50.65 209.699C50.5759 209.953 50.3419 210.119 50.0905 210.119ZM147.638 209.247C147.39 209.247 147.16 209.087 147.082 208.837C146.986 208.529 147.157 208.202 147.464 208.105C150.411 207.182 153.239 206.167 155.868 205.09C156.168 204.968 156.508 205.111 156.63 205.41C156.752 205.708 156.61 206.05 156.31 206.172C153.651 207.26 150.79 208.286 147.813 209.219C147.754 209.238 147.696 209.247 147.638 209.247ZM33.3466 203.688C33.2594 203.688 33.1722 203.669 33.0879 203.627C30.2932 202.245 27.6466 200.745 25.2239 199.167C24.9536 198.991 24.8766 198.629 25.0539 198.359C25.2297 198.088 25.5916 198.011 25.8619 198.189C28.2454 199.742 30.8512 201.219 33.6053 202.581C33.8945 202.723 34.0137 203.073 33.8698 203.362C33.7681 203.569 33.5603 203.688 33.3452 203.688H33.3466ZM164.202 202.376C163.995 202.376 163.795 202.267 163.689 202.072C163.533 201.788 163.636 201.434 163.92 201.278C166.688 199.76 169.188 198.128 171.348 196.429C171.601 196.229 171.968 196.273 172.168 196.527C172.367 196.782 172.323 197.148 172.069 197.347C169.858 199.085 167.306 200.752 164.481 202.302C164.392 202.351 164.295 202.374 164.2 202.374L164.202 202.376ZM18.402 193.843C18.2639 193.843 18.1259 193.794 18.0139 193.695C15.6799 191.619 13.5929 189.396 11.8111 187.085C11.6135 186.829 11.6614 186.463 11.9172 186.265C12.173 186.069 12.5392 186.116 12.7369 186.371C14.4751 188.626 16.5112 190.795 18.7915 192.821C19.0327 193.035 19.0545 193.406 18.8394 193.645C18.7246 193.775 18.5633 193.842 18.4034 193.842L18.402 193.843ZM178.035 191.15C177.913 191.15 177.789 191.112 177.683 191.032C177.426 190.838 177.373 190.471 177.568 190.214C179.434 187.739 180.728 185.126 181.412 182.447C181.492 182.135 181.809 181.946 182.123 182.026C182.435 182.106 182.624 182.424 182.544 182.737C181.822 185.565 180.462 188.318 178.501 190.918C178.386 191.07 178.212 191.15 178.035 191.15ZM7.60808 179.68C7.38717 179.68 7.17644 179.555 7.07761 179.343C5.80158 176.602 4.84384 173.703 4.23344 170.725C4.16804 170.41 4.37296 170.1 4.68833 170.036C5.00661 169.971 5.31326 170.176 5.37866 170.491C5.97017 173.379 6.89885 176.191 8.13709 178.849C8.2737 179.141 8.14726 179.489 7.85369 179.625C7.77376 179.663 7.68946 179.679 7.60808 179.679V179.68ZM182.191 174.294C181.917 174.294 181.672 174.101 181.619 173.821C181.104 171.164 180.059 168.41 178.511 165.637C178.354 165.355 178.455 164.999 178.737 164.842C179.019 164.685 179.375 164.787 179.532 165.067C181.139 167.949 182.228 170.819 182.765 173.598C182.826 173.915 182.62 174.222 182.303 174.283C182.265 174.29 182.229 174.293 182.191 174.293V174.294ZM3.98346 162.287H3.9762C3.65356 162.283 3.39486 162.018 3.39922 161.695C3.43556 158.789 3.75529 155.754 4.34825 152.676C4.40929 152.359 4.71594 152.153 5.03277 152.212C5.3496 152.273 5.55742 152.58 5.49638 152.897C4.9165 155.907 4.60404 158.872 4.5677 161.71C4.56334 162.03 4.3032 162.287 3.98346 162.287ZM174.005 158.501C173.813 158.501 173.624 158.406 173.512 158.232C171.825 155.6 170.583 152.794 169.819 149.891C169.738 149.579 169.924 149.261 170.236 149.178C170.549 149.095 170.867 149.282 170.95 149.595C171.682 152.379 172.875 155.074 174.496 157.603C174.67 157.875 174.59 158.235 174.32 158.409C174.223 158.472 174.114 158.502 174.006 158.502L174.005 158.501Z" fill="#00FF00"/>
<path d="M7.28124 144.628C7.21874 144.628 7.1548 144.617 7.09085 144.596C6.78565 144.491 6.62288 144.158 6.72752 143.853C7.19404 142.496 7.71578 141.105 8.27822 139.72C8.4003 139.42 8.74038 139.276 9.03977 139.398C9.33916 139.521 9.48158 139.861 9.36096 140.16C8.80578 141.525 8.2913 142.895 7.83205 144.232C7.74921 144.475 7.52249 144.628 7.27978 144.628H7.28124Z" fill="#00FF00"/>
<path d="M102.671 67.4074C102.386 67.4074 102.136 67.1982 102.094 66.9075C101.88 65.4498 101.732 63.9659 101.657 62.4952C101.639 62.1725 101.888 61.8979 102.21 61.8819C102.527 61.863 102.808 62.1129 102.824 62.4356C102.898 63.87 103.042 65.3175 103.251 66.7389C103.297 67.0586 103.077 67.3551 102.758 67.4016C102.729 67.406 102.7 67.4074 102.673 67.4074H102.671Z" fill="#00FF00"/>
<path d="M205.45 59.6077C205.404 59.6077 205.356 59.6019 205.309 59.5903C204.997 59.5133 204.805 59.1964 204.884 58.8825C205.616 55.9308 206.099 53.0445 206.317 50.3035C206.343 49.9823 206.617 49.7396 206.946 49.7672C207.267 49.7934 207.507 50.0739 207.482 50.3965C207.258 53.2 206.766 56.1502 206.019 59.1645C205.952 59.4304 205.715 59.6077 205.452 59.6077H205.45ZM102.605 54.2653C102.579 54.2653 102.553 54.2638 102.527 54.2595C102.207 54.2159 101.983 53.9223 102.025 53.6025C102.415 50.7075 103.075 47.7892 103.986 44.9305C104.083 44.6239 104.412 44.4538 104.72 44.5512C105.026 44.6486 105.197 44.977 105.099 45.2851C104.21 48.0799 103.564 50.9313 103.184 53.7595C103.144 54.0531 102.893 54.2653 102.605 54.2653ZM206.709 42.1488C206.42 42.1488 206.168 41.9337 206.131 41.6402C205.758 38.7727 205.057 35.9489 204.042 33.2472C203.929 32.9449 204.081 32.6091 204.384 32.4958C204.686 32.3824 205.022 32.535 205.135 32.8373C206.18 35.6234 206.904 38.5344 207.287 41.4905C207.33 41.8102 207.103 42.1038 206.783 42.1445C206.757 42.1474 206.732 42.1488 206.708 42.1488H206.709ZM107.881 37.5592C107.792 37.5592 107.702 37.5389 107.618 37.4967C107.33 37.3514 107.215 36.9997 107.361 36.7119C108.674 34.1133 110.216 31.554 111.941 29.1052C112.127 28.8421 112.491 28.7782 112.755 28.9642C113.018 29.1502 113.082 29.515 112.896 29.7781C111.203 32.1804 109.692 34.6903 108.403 37.2395C108.299 37.4429 108.094 37.5607 107.881 37.5607V37.5592ZM200.63 25.7843C200.438 25.7843 200.249 25.6898 200.137 25.5154C198.64 23.1857 196.848 20.8749 194.809 18.6499C194.591 18.4115 194.607 18.0424 194.845 17.8244C195.084 17.6064 195.453 17.6224 195.671 17.8607C197.755 20.1352 199.589 22.4983 201.121 24.8847C201.295 25.1565 201.217 25.5169 200.945 25.6913C200.848 25.7538 200.739 25.7843 200.63 25.7843ZM117.966 23.1959C117.823 23.1959 117.681 23.1436 117.567 23.0389C117.332 22.8195 117.317 22.4503 117.537 22.2135C119.539 20.0611 121.712 18.0104 123.994 16.1211C124.242 15.9162 124.61 15.9496 124.817 16.1981C125.023 16.4466 124.988 16.8143 124.74 17.0207C122.497 18.8781 120.362 20.8924 118.393 23.0084C118.278 23.132 118.121 23.1945 117.966 23.1945V23.1959ZM188.869 12.7741C188.737 12.7741 188.603 12.729 188.494 12.6374C188.082 12.2901 187.66 11.9427 187.23 11.5969C185.386 10.1086 183.419 8.7861 181.388 7.66558C181.106 7.51008 181.002 7.15401 181.158 6.87206C181.313 6.59012 181.669 6.48548 181.951 6.64244C184.043 7.79638 186.066 9.1567 187.964 10.6871C188.4 11.0388 188.827 11.3905 189.247 11.7436C189.494 11.9515 189.526 12.3192 189.318 12.5662C189.204 12.7043 189.038 12.7741 188.871 12.7741H188.869ZM131.498 11.9907C131.303 11.9907 131.114 11.8933 131.003 11.7175C130.832 11.4443 130.913 11.0838 131.186 10.9123C133.714 9.32238 136.343 7.90248 139.005 6.6933C139.299 6.5596 139.645 6.6904 139.779 6.98397C139.912 7.27754 139.782 7.62344 139.488 7.75714C136.875 8.94452 134.291 10.3383 131.809 11.9021C131.711 11.9631 131.604 11.9922 131.498 11.9922V11.9907ZM147.496 4.75746C147.241 4.75746 147.007 4.59033 146.935 4.33454C146.846 4.02498 147.025 3.70089 147.336 3.61224C150.241 2.77802 153.173 2.18797 156.052 1.85806C156.376 1.82173 156.662 2.05136 156.698 2.37109C156.735 2.69228 156.505 2.98149 156.185 3.01782C153.37 3.34192 150.501 3.91889 147.659 4.73421C147.605 4.7502 147.551 4.75746 147.497 4.75746H147.496ZM173.556 4.36942C173.502 4.36942 173.447 4.36216 173.393 4.34617C170.659 3.54974 167.789 3.03817 164.863 2.82308C164.542 2.79982 164.299 2.51933 164.324 2.19814C164.347 1.87696 164.623 1.63425 164.949 1.65896C167.957 1.87986 170.908 2.40742 173.72 3.22565C174.029 3.31576 174.208 3.63985 174.118 3.94941C174.044 4.2052 173.81 4.37088 173.557 4.37088L173.556 4.36942Z" fill="#00FF00"/>
<path d="M201.156 72.0901C201.079 72.0901 201.002 72.0756 200.926 72.0421C200.63 71.9157 200.492 71.5713 200.62 71.2748C201.208 69.8999 201.756 68.5411 202.249 67.236C202.362 66.9337 202.701 66.7811 203.002 66.8959C203.304 67.0093 203.455 67.3464 203.342 67.6487C202.843 68.9698 202.288 70.3447 201.694 71.7355C201.599 71.9564 201.383 72.0901 201.156 72.0901Z" fill="#00FF00"/>
<path d="M94.6501 181.63C142.052 181.63 180.478 177.135 180.478 171.59C180.478 166.045 142.052 161.551 94.6501 161.551C47.2485 161.551 8.82202 166.045 8.82202 171.59C8.82202 177.135 47.2485 181.63 94.6501 181.63Z" fill="#C9C9C9"/>
<path d="M180.477 159.957H8.82202V171.59H180.477V159.957Z" fill="#C9C9C9"/>
<path d="M94.6501 169.997C142.052 169.997 180.478 165.502 180.478 159.957C180.478 154.413 142.052 149.918 94.6501 149.918C47.2485 149.918 8.82202 154.413 8.82202 159.957C8.82202 165.502 47.2485 169.997 94.6501 169.997Z" fill="#D8D8D8"/>
<path d="M146.163 136.335L52.1063 154.89C47.2783 155.841 42.5928 152.701 41.6408 147.873L27.3183 87.2907C25.5132 77.4472 27.1104 75.042 32.7944 72.9986L129.823 53.505C134.651 52.5531 139.337 55.6937 140.289 60.5217L153.18 125.868C154.132 130.696 150.991 135.381 146.163 136.333V136.335Z" fill="#C9C9C9"/>
<path d="M95.076 13.9074L58.2303 74.8427C57.938 75.3263 58.0929 75.9553 58.5765 76.2477L96.5925 99.2347C97.076 99.5271 97.7051 99.3722 97.9974 98.8886L134.843 37.9533C135.135 37.4697 134.98 36.8407 134.497 36.5483L96.4809 13.5612C95.9974 13.2689 95.3684 13.4238 95.076 13.9074Z" fill="#D8D8D8"/>
<path d="M94.4932 14.1991L57.6476 75.1345C57.3552 75.618 57.5102 76.247 57.9937 76.5394L96.0097 99.5265C96.4933 99.8189 97.1223 99.6639 97.4147 99.1804L134.26 38.245C134.553 37.7615 134.398 37.1325 133.914 36.8401L95.8981 13.853C95.4146 13.5606 94.7856 13.7156 94.4932 14.1991Z" fill="#B7B7B7"/>
<path d="M106.461 27.6034L74.7113 80.1105C74.6527 80.2074 74.6837 80.3334 74.7806 80.3919L81.2737 84.3181C81.3706 84.3767 81.4965 84.3456 81.5551 84.2488L113.304 31.7417C113.363 31.6448 113.332 31.5189 113.235 31.4603L106.742 27.5341C106.645 27.4756 106.519 27.5066 106.461 27.6034Z" fill="#E5E5E5"/>
<path d="M89.3842 77.4503L84.2781 85.8947C84.2196 85.9916 84.2506 86.1175 84.3475 86.1761L90.8406 90.1023C90.9374 90.1608 91.0634 90.1298 91.122 90.033L96.228 81.5885C96.2866 81.4917 96.2556 81.3657 96.1587 81.3072L89.6656 77.381C89.5688 77.3224 89.4428 77.3535 89.3842 77.4503Z" fill="#E5E5E5"/>
<path d="M86.2067 49.5863L69.6138 77.0275C69.5553 77.1244 69.5863 77.2504 69.6832 77.3089L71.9354 78.6708C72.0323 78.7293 72.1583 78.6983 72.2168 78.6015L88.8096 51.1602C88.8682 51.0634 88.8372 50.9374 88.7403 50.8788L86.4881 49.517C86.3912 49.4584 86.2652 49.4894 86.2067 49.5863Z" fill="#E5E5E5"/>
<path d="M101.362 24.5212L88.0357 46.56C87.9772 46.6568 88.0082 46.7828 88.105 46.8414L90.3573 48.2033C90.4541 48.2618 90.5801 48.2308 90.6387 48.1339L103.965 26.0951C104.023 25.9983 103.992 25.8723 103.896 25.8137L101.643 24.4519C101.546 24.3933 101.42 24.4243 101.362 24.5212Z" fill="#E5E5E5"/>
<path d="M109.383 44.3732L102.23 56.204C102.171 56.3009 102.202 56.4269 102.299 56.4854L104.551 57.8473C104.648 57.9059 104.774 57.8748 104.833 57.778L111.986 45.9471C112.045 45.8502 112.014 45.7243 111.917 45.6657L109.665 44.3038C109.568 44.2453 109.442 44.2763 109.383 44.3732Z" fill="#E5E5E5"/>
<path d="M116.025 33.3876L110.303 42.8505C110.244 42.9474 110.276 43.0734 110.372 43.1319L112.625 44.4938C112.721 44.5523 112.847 44.5213 112.906 44.4245L118.628 34.9615C118.687 34.8646 118.656 34.7387 118.559 34.6801L116.306 33.3182C116.21 33.2597 116.084 33.2907 116.025 33.3876Z" fill="#E5E5E5"/>
<path d="M132.734 57.1556L29.8954 77.4435C27.4929 77.9175 25.9294 80.2494 26.4034 82.652L41.0275 156.781C41.5015 159.183 43.8334 160.747 46.236 160.273L149.074 139.985C151.477 139.511 153.04 137.179 152.566 134.776L137.942 60.6477C137.468 58.2451 135.136 56.6817 132.734 57.1556Z" fill="#E5E5E5"/>
<path d="M126.975 111.88C122.624 112.73 118.406 109.893 117.556 105.542C116.706 101.19 119.561 97.0629 123.894 96.1226C132.692 94.2144 141.565 91.2641 143.874 90.7148C146.184 90.1654 144.531 81.7303 144.531 81.7303C144.531 81.7303 147.339 81.5646 148.769 87.173C150.199 92.7814 152.706 103.892 147.208 105.872C141.71 107.851 126.975 111.881 126.975 111.881V111.88Z" fill="#B7B7B7"/>
<path d="M125.452 109.108C128.163 109.108 130.361 106.91 130.361 104.198C130.361 101.487 128.163 99.2891 125.452 99.2891C122.74 99.2891 120.542 101.487 120.542 104.198C120.542 106.91 122.74 109.108 125.452 109.108Z" fill="#E5E5E5"/>
<path d="M183.976 134.823C167.09 134.823 153.351 121.085 153.351 104.199C153.351 87.3123 167.09 73.574 183.976 73.574C200.862 73.574 214.601 87.3123 214.601 104.199C214.601 121.085 200.862 134.823 183.976 134.823ZM183.976 79.3626C170.281 79.3626 159.14 90.5039 159.14 104.199C159.14 117.893 170.281 129.035 183.976 129.035C197.671 129.035 208.812 117.893 208.812 104.199C208.812 90.5039 197.671 79.3626 183.976 79.3626Z" fill="#00FF00"/>
<path d="M197.391 120.508C196.649 120.508 195.91 120.225 195.344 119.661L168.514 92.8309C167.384 91.7002 167.384 89.8675 168.514 88.7368C169.645 87.6076 171.478 87.6076 172.608 88.7368L199.438 115.567C200.569 116.698 200.569 118.53 199.438 119.661C198.873 120.226 198.132 120.508 197.392 120.508H197.391Z" fill="#00FF00"/>
<path d="M170.561 120.508C169.819 120.508 169.08 120.225 168.514 119.661C167.384 118.53 167.384 116.698 168.514 115.567L195.344 88.7368C196.475 87.6076 198.308 87.6076 199.438 88.7368C200.569 89.8675 200.569 91.7002 199.438 92.8309L172.608 119.661C172.043 120.226 171.302 120.508 170.562 120.508H170.561Z" fill="#00FF00"/>
<path opacity="0.18" d="M94.0478 111.573C95.2269 111.573 96.1827 110.617 96.1827 109.438C96.1827 108.259 95.2269 107.303 94.0478 107.303C92.8687 107.303 91.9128 108.259 91.9128 109.438C91.9128 110.617 92.8687 111.573 94.0478 111.573Z" fill="#B7B7B7"/>
<path opacity="0.18" d="M57.6293 118.758C58.8084 118.758 59.7643 117.802 59.7643 116.623C59.7643 115.444 58.8084 114.488 57.6293 114.488C56.4502 114.488 55.4944 115.444 55.4944 116.623C55.4944 117.802 56.4502 118.758 57.6293 118.758Z" fill="#B7B7B7"/>
<path opacity="0.55" d="M64.9133 117.321C66.0924 117.321 67.0482 116.365 67.0482 115.186C67.0482 114.007 66.0924 113.051 64.9133 113.051C63.7342 113.051 62.7783 114.007 62.7783 115.186C62.7783 116.365 63.7342 117.321 64.9133 117.321Z" fill="#B7B7B7"/>
<path opacity="0.75" d="M72.1972 115.884C73.3763 115.884 74.3321 114.928 74.3321 113.749C74.3321 112.57 73.3763 111.614 72.1972 111.614C71.0181 111.614 70.0623 112.57 70.0623 113.749C70.0623 114.928 71.0181 115.884 72.1972 115.884Z" fill="#B7B7B7"/>
<path d="M79.4799 114.448C80.659 114.448 81.6149 113.492 81.6149 112.313C81.6149 111.134 80.659 110.178 79.4799 110.178C78.3008 110.178 77.345 111.134 77.345 112.313C77.345 113.492 78.3008 114.448 79.4799 114.448Z" fill="#B7B7B7"/>
<path opacity="0.55" d="M86.7639 113.011C87.943 113.011 88.8988 112.055 88.8988 110.876C88.8988 109.697 87.943 108.741 86.7639 108.741C85.5848 108.741 84.6289 109.697 84.6289 110.876C84.6289 112.055 85.5848 113.011 86.7639 113.011Z" fill="#B7B7B7"/>
</svg>
