<svg width="58" height="57" viewBox="0 0 58 57" fill="none" xmlns="http://www.w3.org/2000/svg">
<g clip-path="url(#clip0_2035_1395)">
<g clip-path="url(#clip1_2035_1395)">
<rect x="0.5" width="57" height="57" fill="url(#paint0_radial_2035_1395)"/>
<path d="M18.396 22.0124C24.1294 16.4125 33.4364 16.4125 39.1698 22.0124L39.8601 22.6915C40.1495 22.9698 40.1495 23.4262 39.8601 23.7045L37.4999 26.009C37.3552 26.1538 37.1214 26.1538 36.9767 26.009L36.0304 25.085C32.0226 21.1774 25.5433 21.1774 21.5354 25.085L20.5224 26.0758C20.3776 26.2206 20.1438 26.2206 19.9991 26.0758L17.639 23.7713C17.3495 23.493 17.3495 23.0366 17.639 22.7583L18.396 22.0124ZM44.0571 26.7772L46.1612 28.8256C46.4507 29.104 46.4507 29.5604 46.1612 29.8387L36.6872 39.0901C36.3978 39.3684 35.9302 39.3684 35.6519 39.0901L28.9276 32.5217C28.8608 32.4549 28.7384 32.4549 28.6716 32.5217L21.9474 39.0901C21.6579 39.3684 21.1903 39.3684 20.912 39.0901L11.4046 29.8387C11.1151 29.5604 11.1151 29.104 11.4046 28.8256L13.5087 26.7772C13.7981 26.4989 14.2657 26.4989 14.544 26.7772L21.2683 33.3456C21.3351 33.4124 21.4575 33.4124 21.5243 33.3456L28.2485 26.7772C28.538 26.4989 29.0056 26.4989 29.2839 26.7772L36.0081 33.3456C36.0749 33.4124 36.1974 33.4124 36.2642 33.3456L42.9884 26.7772C43.3001 26.4989 43.7677 26.4989 44.0571 26.7772Z" fill="white"/>
</g>
</g>
<defs>
<radialGradient id="paint0_radial_2035_1395" cx="0" cy="0" r="1" gradientUnits="userSpaceOnUse" gradientTransform="translate(0.500177 28.5009) scale(57)">
<stop stop-color="#5D9DF6"/>
<stop offset="1" stop-color="#006FFF"/>
</radialGradient>
<clipPath id="clip0_2035_1395">
<rect x="0.5" width="57" height="57" fill="white"/>
</clipPath>
<clipPath id="clip1_2035_1395">
<rect x="0.5" width="57" height="57" rx="5" fill="white"/>
</clipPath>
</defs>
</svg>
