<svg width="218" height="218" viewBox="0 0 218 218" fill="none" xmlns="http://www.w3.org/2000/svg">
<path d="M102.873 175.199C92.3451 186.714 39.544 214.93 15.4579 187.456C4.87913 175.389 6.01418 152.191 25.6865 138.339C54.9755 117.718 2.14831 96.8801 16.2108 54.9776C20.9879 40.7422 48.5779 21.4812 78.6867 36.9403C102.404 49.1163 105.031 85.4627 140.786 88.4741C157.533 89.8838 183.936 89.9027 194.552 114.442C200.251 127.615 193.977 152.454 170.498 157.552C149.528 162.106 116.146 160.683 102.873 175.197V175.199Z" fill="#0A410A"/>
<path d="M169.466 141.43C169.459 141.43 169.45 141.43 169.443 141.43C169.12 141.417 168.87 141.145 168.883 140.822C168.941 139.392 169.091 137.904 169.328 136.398C169.377 136.08 169.678 135.862 169.995 135.911C170.313 135.961 170.531 136.26 170.482 136.578C170.252 138.04 170.107 139.484 170.05 140.869C170.037 141.183 169.778 141.43 169.467 141.43H169.466Z" fill="#00FF00"/>
<path d="M97.0084 216.325C96.148 216.325 95.2877 216.319 94.4273 216.307C94.1047 216.303 93.846 216.038 93.8503 215.716C93.8547 215.393 94.1163 215.133 94.4418 215.139C95.2979 215.15 96.1524 215.156 97.0084 215.156C99.1245 215.156 101.274 215.121 103.394 215.053C103.716 215.039 103.986 215.296 103.998 215.618C104.008 215.941 103.755 216.21 103.432 216.222C101.299 216.29 99.1376 216.325 97.0084 216.325ZM85.4588 215.985C85.4472 215.985 85.4355 215.985 85.4239 215.985C82.4053 215.806 79.3839 215.553 76.4467 215.235C76.1255 215.2 75.8944 214.912 75.9293 214.591C75.9642 214.27 76.2519 214.039 76.5731 214.074C79.4929 214.39 82.494 214.642 85.4937 214.819C85.8163 214.838 86.0619 215.114 86.0416 215.437C86.0227 215.746 85.7654 215.986 85.4588 215.986V215.985ZM112.377 215.726C112.075 215.726 111.819 215.493 111.796 215.187C111.771 214.866 112.011 214.584 112.332 214.559C115.322 214.325 118.319 214.02 121.24 213.651C121.558 213.611 121.852 213.837 121.892 214.156C121.933 214.476 121.706 214.768 121.387 214.809C118.448 215.181 115.432 215.488 112.424 215.723C112.408 215.723 112.393 215.724 112.377 215.724V215.726ZM67.6089 214.039C67.5784 214.039 67.5464 214.036 67.5145 214.031C64.5032 213.544 61.5238 212.975 58.6608 212.338C58.3454 212.268 58.1477 211.956 58.2175 211.642C58.2873 211.327 58.6012 211.13 58.9151 211.199C61.7564 211.83 64.7125 212.396 67.702 212.879C68.0202 212.931 68.2368 213.231 68.1859 213.549C68.1394 213.835 67.8909 214.04 67.6104 214.04L67.6089 214.039ZM130.189 213.462C129.912 213.462 129.666 213.264 129.615 212.981C129.559 212.664 129.769 212.36 130.088 212.303C133.077 211.767 136.025 211.152 138.846 210.477C139.161 210.402 139.475 210.594 139.55 210.908C139.626 211.222 139.433 211.537 139.119 211.613C136.276 212.295 133.307 212.914 130.294 213.454C130.259 213.46 130.224 213.463 130.191 213.463L130.189 213.462ZM50.0905 210.119C50.0367 210.119 49.98 210.112 49.9262 210.096C46.9673 209.228 44.0882 208.263 41.3705 207.227C41.0696 207.112 40.917 206.775 41.0318 206.473C41.1467 206.172 41.4838 206.021 41.7861 206.134C44.4748 207.159 47.3248 208.113 50.2547 208.974C50.5643 209.064 50.7416 209.389 50.65 209.699C50.5759 209.953 50.3419 210.119 50.0905 210.119ZM147.638 209.247C147.39 209.247 147.16 209.087 147.082 208.837C146.986 208.529 147.157 208.202 147.464 208.105C150.411 207.182 153.239 206.167 155.868 205.09C156.168 204.968 156.508 205.111 156.63 205.41C156.752 205.708 156.61 206.05 156.31 206.172C153.651 207.26 150.79 208.286 147.813 209.219C147.754 209.238 147.696 209.247 147.638 209.247ZM33.3466 203.688C33.2594 203.688 33.1722 203.669 33.0879 203.627C30.2932 202.245 27.6466 200.745 25.2239 199.167C24.9536 198.991 24.8766 198.629 25.0539 198.359C25.2297 198.088 25.5916 198.011 25.8619 198.189C28.2454 199.742 30.8512 201.219 33.6053 202.581C33.8945 202.723 34.0137 203.073 33.8698 203.362C33.7681 203.569 33.5603 203.688 33.3452 203.688H33.3466ZM164.202 202.376C163.995 202.376 163.795 202.267 163.689 202.072C163.533 201.788 163.636 201.434 163.92 201.278C166.688 199.76 169.188 198.128 171.348 196.429C171.601 196.229 171.968 196.273 172.168 196.527C172.367 196.782 172.323 197.148 172.069 197.347C169.858 199.085 167.306 200.752 164.481 202.302C164.392 202.351 164.295 202.374 164.2 202.374L164.202 202.376ZM18.402 193.843C18.2639 193.843 18.1259 193.794 18.0139 193.695C15.6799 191.619 13.5929 189.396 11.8111 187.085C11.6135 186.829 11.6614 186.463 11.9172 186.265C12.173 186.069 12.5392 186.116 12.7369 186.371C14.4751 188.626 16.5112 190.795 18.7915 192.821C19.0327 193.035 19.0545 193.406 18.8394 193.645C18.7246 193.775 18.5633 193.842 18.4034 193.842L18.402 193.843ZM178.035 191.15C177.913 191.15 177.789 191.112 177.683 191.032C177.426 190.838 177.373 190.471 177.568 190.214C179.434 187.739 180.728 185.126 181.412 182.447C181.492 182.135 181.809 181.946 182.123 182.026C182.435 182.106 182.624 182.424 182.544 182.737C181.822 185.565 180.462 188.318 178.501 190.918C178.386 191.07 178.212 191.15 178.035 191.15ZM7.60808 179.68C7.38717 179.68 7.17644 179.555 7.07761 179.343C5.80158 176.602 4.84384 173.703 4.23344 170.725C4.16804 170.41 4.37296 170.1 4.68833 170.036C5.00661 169.971 5.31326 170.176 5.37866 170.491C5.97017 173.379 6.89885 176.191 8.13709 178.849C8.2737 179.141 8.14726 179.489 7.85369 179.625C7.77376 179.663 7.68946 179.679 7.60808 179.679V179.68ZM182.191 174.294C181.917 174.294 181.672 174.101 181.619 173.821C181.104 171.164 180.059 168.41 178.511 165.637C178.354 165.355 178.455 164.999 178.737 164.842C179.019 164.685 179.375 164.787 179.532 165.067C181.139 167.949 182.228 170.819 182.765 173.598C182.826 173.915 182.62 174.222 182.303 174.283C182.265 174.29 182.229 174.293 182.191 174.293V174.294ZM3.98346 162.287H3.9762C3.65356 162.283 3.39486 162.018 3.39922 161.695C3.43556 158.789 3.75529 155.754 4.34825 152.676C4.40929 152.359 4.71594 152.153 5.03277 152.212C5.3496 152.273 5.55742 152.58 5.49638 152.897C4.9165 155.907 4.60404 158.872 4.5677 161.71C4.56334 162.03 4.3032 162.287 3.98346 162.287ZM174.005 158.501C173.813 158.501 173.624 158.406 173.512 158.232C171.825 155.6 170.583 152.794 169.819 149.891C169.738 149.579 169.924 149.261 170.236 149.178C170.549 149.095 170.867 149.282 170.95 149.595C171.682 152.379 172.875 155.074 174.496 157.603C174.67 157.875 174.59 158.235 174.32 158.409C174.223 158.472 174.114 158.502 174.006 158.502L174.005 158.501Z" fill="#00FF00"/>
<path d="M7.28124 144.628C7.21874 144.628 7.1548 144.618 7.09085 144.596C6.78565 144.491 6.62288 144.159 6.72752 143.853C7.19404 142.496 7.71578 141.105 8.27822 139.72C8.4003 139.421 8.74038 139.277 9.03977 139.399C9.33916 139.521 9.48158 139.861 9.36096 140.16C8.80578 141.525 8.2913 142.896 7.83205 144.233C7.74921 144.475 7.52249 144.628 7.27978 144.628H7.28124Z" fill="#00FF00"/>
<path d="M102.671 67.4074C102.386 67.4074 102.136 67.1982 102.094 66.9075C101.88 65.4498 101.732 63.9659 101.657 62.4952C101.639 62.1725 101.888 61.8979 102.21 61.8819C102.527 61.863 102.808 62.1129 102.824 62.4356C102.898 63.87 103.042 65.3175 103.251 66.7389C103.297 67.0586 103.077 67.3551 102.758 67.4016C102.729 67.406 102.7 67.4074 102.673 67.4074H102.671Z" fill="#00FF00"/>
<path d="M205.45 59.6067C205.404 59.6067 205.356 59.6009 205.309 59.5893C204.997 59.5123 204.805 59.1954 204.884 58.8815C205.616 55.9298 206.099 53.0435 206.317 50.3025C206.343 49.9813 206.617 49.7386 206.946 49.7662C207.267 49.7924 207.507 50.0729 207.482 50.3955C207.258 53.199 206.766 56.1493 206.019 59.1635C205.952 59.4294 205.715 59.6067 205.452 59.6067H205.45ZM102.605 54.2643C102.579 54.2643 102.553 54.2628 102.527 54.2585C102.207 54.2149 101.983 53.9213 102.025 53.6016C102.415 50.7065 103.075 47.7882 103.986 44.9295C104.083 44.6229 104.412 44.4528 104.72 44.5502C105.026 44.6476 105.197 44.976 105.099 45.2841C104.21 48.0789 103.564 50.9303 103.184 53.7585C103.144 54.0521 102.893 54.2643 102.605 54.2643ZM206.709 42.1478C206.42 42.1478 206.168 41.9328 206.131 41.6392C205.758 38.7718 205.057 35.9479 204.042 33.2462C203.929 32.9439 204.081 32.6082 204.384 32.4948C204.686 32.3814 205.022 32.534 205.135 32.8363C206.18 35.6224 206.904 38.5334 207.287 41.4895C207.33 41.8092 207.103 42.1028 206.783 42.1435C206.757 42.1464 206.732 42.1478 206.708 42.1478H206.709ZM107.881 37.5582C107.792 37.5582 107.702 37.5379 107.618 37.4957C107.33 37.3504 107.215 36.9987 107.361 36.7109C108.674 34.1124 110.216 31.553 111.941 29.1042C112.127 28.8411 112.491 28.7772 112.755 28.9632C113.018 29.1492 113.082 29.514 112.896 29.7771C111.203 32.1794 109.692 34.6893 108.403 37.2385C108.299 37.442 108.094 37.5597 107.881 37.5597V37.5582ZM200.63 25.7833C200.438 25.7833 200.249 25.6888 200.137 25.5144C198.64 23.1848 196.848 20.874 194.809 18.6489C194.591 18.4106 194.607 18.0414 194.845 17.8234C195.084 17.6054 195.453 17.6214 195.671 17.8597C197.755 20.1342 199.589 22.4973 201.121 24.8837C201.295 25.1555 201.217 25.5159 200.945 25.6903C200.848 25.7528 200.739 25.7833 200.63 25.7833ZM117.966 23.1949C117.823 23.1949 117.681 23.1426 117.567 23.038C117.332 22.8185 117.317 22.4494 117.537 22.2125C119.539 20.0601 121.712 18.0094 123.994 16.1201C124.242 15.9152 124.61 15.9486 124.817 16.1971C125.023 16.4456 124.988 16.8133 124.74 17.0197C122.497 18.8771 120.362 20.8914 118.393 23.0074C118.278 23.131 118.121 23.1935 117.966 23.1935V23.1949ZM188.869 12.7731C188.737 12.7731 188.603 12.728 188.494 12.6365C188.082 12.2891 187.66 11.9418 187.23 11.5959C185.386 10.1077 183.419 8.78513 181.388 7.66461C181.106 7.5091 181.002 7.15303 181.158 6.87109C181.313 6.58914 181.669 6.4845 181.951 6.64146C184.043 7.79541 186.066 9.15573 187.964 10.6861C188.4 11.0378 188.827 11.3895 189.247 11.7427C189.494 11.9505 189.526 12.3182 189.318 12.5652C189.204 12.7033 189.038 12.7731 188.871 12.7731H188.869ZM131.498 11.9897C131.303 11.9897 131.114 11.8924 131.003 11.7165C130.832 11.4433 130.913 11.0828 131.186 10.9114C133.714 9.32141 136.343 7.9015 139.005 6.69233C139.299 6.55862 139.645 6.68942 139.779 6.98299C139.912 7.27657 139.782 7.62246 139.488 7.75617C136.875 8.94354 134.291 10.3373 131.809 11.9011C131.711 11.9621 131.604 11.9912 131.498 11.9912V11.9897ZM147.496 4.75649C147.241 4.75649 147.007 4.58935 146.935 4.33357C146.846 4.02401 147.025 3.69991 147.336 3.61126C150.241 2.77705 153.173 2.18699 156.052 1.85709C156.376 1.82075 156.662 2.05038 156.698 2.37011C156.735 2.6913 156.505 2.98051 156.185 3.01685C153.37 3.34094 150.501 3.91791 147.659 4.73323C147.605 4.74922 147.551 4.75649 147.497 4.75649H147.496ZM173.556 4.36845C173.502 4.36845 173.447 4.36118 173.393 4.34519C170.659 3.54877 167.789 3.03719 164.863 2.8221C164.542 2.79885 164.299 2.51835 164.324 2.19717C164.347 1.87598 164.623 1.63327 164.949 1.65798C167.957 1.87889 170.908 2.40645 173.72 3.22467C174.029 3.31478 174.208 3.63887 174.118 3.94843C174.044 4.20422 173.81 4.3699 173.557 4.3699L173.556 4.36845Z" fill="#00FF00"/>
<path d="M201.156 72.0899C201.079 72.0899 201.002 72.0753 200.926 72.0419C200.63 71.9155 200.492 71.571 200.62 71.2745C201.208 69.8997 201.756 68.5408 202.249 67.2357C202.362 66.9334 202.701 66.7808 203.002 66.8956C203.304 67.009 203.455 67.3462 203.342 67.6485C202.843 68.9696 202.288 70.3444 201.694 71.7353C201.599 71.9562 201.383 72.0899 201.156 72.0899Z" fill="#00FF00"/>
<path d="M94.6501 181.63C142.052 181.63 180.478 177.135 180.478 171.59C180.478 166.046 142.052 161.551 94.6501 161.551C47.2485 161.551 8.82202 166.046 8.82202 171.59C8.82202 177.135 47.2485 181.63 94.6501 181.63Z" fill="#5C5C5C"/>
<path d="M180.477 159.957H8.82202V171.59H180.477V159.957Z" fill="#5C5C5C"/>
<path d="M94.6501 169.997C142.052 169.997 180.478 165.502 180.478 159.958C180.478 154.413 142.052 149.918 94.6501 149.918C47.2485 149.918 8.82202 154.413 8.82202 159.958C8.82202 165.502 47.2485 169.997 94.6501 169.997Z" fill="#9D9D9D"/>
<path d="M146.163 136.334L52.1063 154.889C47.2783 155.841 42.5928 152.7 41.6408 147.872L27.3183 87.2897C25.5132 77.4463 27.1104 75.041 32.7944 72.9976L129.823 53.504C134.651 52.5521 139.337 55.6928 140.289 60.5207L153.18 125.867C154.132 130.695 150.991 135.38 146.163 136.332V136.334Z" fill="#5C5C5C"/>
<path d="M95.076 13.9059L58.2303 74.8413C57.938 75.3248 58.0929 75.9538 58.5765 76.2462L96.5925 99.2333C97.076 99.5257 97.7051 99.3707 97.9974 98.8871L134.843 37.9518C135.135 37.4683 134.98 36.8392 134.497 36.5469L96.4809 13.5598C95.9974 13.2674 95.3684 13.4224 95.076 13.9059Z" fill="#9D9D9D"/>
<path d="M94.4932 14.1989L57.6476 75.1342C57.3552 75.6178 57.5102 76.2468 57.9937 76.5392L96.0097 99.5262C96.4933 99.8186 97.1223 99.6637 97.4147 99.1801L134.26 38.2448C134.553 37.7612 134.398 37.1322 133.914 36.8398L95.8981 13.8528C95.4146 13.5604 94.7856 13.7153 94.4932 14.1989Z" fill="#9D9D9D"/>
<path d="M106.461 27.6027L74.7113 80.1098C74.6527 80.2066 74.6837 80.3326 74.7806 80.3912L81.2737 84.3174C81.3706 84.3759 81.4965 84.3449 81.5551 84.248L113.304 31.7409C113.363 31.6441 113.332 31.5181 113.235 31.4596L106.742 27.5334C106.645 27.4748 106.519 27.5059 106.461 27.6027Z" fill="#1F1F1F"/>
<path d="M89.3842 77.4505L84.2781 85.895C84.2196 85.9918 84.2506 86.1178 84.3475 86.1763L90.8406 90.1025C90.9374 90.1611 91.0634 90.13 91.122 90.0332L96.228 81.5888C96.2866 81.4919 96.2556 81.366 96.1587 81.3074L89.6656 77.3812C89.5688 77.3227 89.4428 77.3537 89.3842 77.4505Z" fill="#1F1F1F"/>
<path d="M86.2067 49.5865L69.6138 77.0278C69.5553 77.1246 69.5863 77.2506 69.6832 77.3092L71.9354 78.671C72.0323 78.7296 72.1583 78.6985 72.2168 78.6017L88.8096 51.1605C88.8682 51.0636 88.8372 50.9376 88.7403 50.8791L86.4881 49.5172C86.3912 49.4586 86.2652 49.4897 86.2067 49.5865Z" fill="#1F1F1F"/>
<path d="M101.362 24.5202L88.0357 46.559C87.9772 46.6559 88.0082 46.7818 88.105 46.8404L90.3573 48.2023C90.4541 48.2608 90.5801 48.2298 90.6387 48.1329L103.965 26.0941C104.023 25.9973 103.992 25.8713 103.896 25.8128L101.643 24.4509C101.546 24.3923 101.42 24.4234 101.362 24.5202Z" fill="#1F1F1F"/>
<path d="M109.383 44.3727L102.23 56.2036C102.171 56.3004 102.202 56.4264 102.299 56.4849L104.551 57.8468C104.648 57.9054 104.774 57.8743 104.833 57.7775L111.986 45.9466C112.045 45.8498 112.014 45.7238 111.917 45.6652L109.665 44.3033C109.568 44.2448 109.442 44.2758 109.383 44.3727Z" fill="#1F1F1F"/>
<path d="M116.025 33.3871L110.303 42.85C110.244 42.9469 110.276 43.0729 110.372 43.1314L112.625 44.4933C112.721 44.5519 112.847 44.5208 112.906 44.424L118.628 34.961C118.687 34.8642 118.656 34.7382 118.559 34.6796L116.306 33.3177C116.21 33.2592 116.084 33.2902 116.025 33.3871Z" fill="#1F1F1F"/>
<path d="M132.734 57.1547L29.8954 77.4426C27.4929 77.9165 25.9294 80.2485 26.4034 82.6511L41.0275 156.78C41.5015 159.182 43.8334 160.746 46.236 160.272L149.074 139.984C151.477 139.51 153.04 137.178 152.566 134.775L137.942 60.6467C137.468 58.2441 135.136 56.6807 132.734 57.1547Z" fill="#1F1F1F"/>
<path d="M126.975 111.878C122.624 112.729 118.406 109.892 117.556 105.54C116.706 101.189 119.561 97.0617 123.894 96.1214C132.692 94.2132 141.565 91.2629 143.874 90.7135C146.184 90.1642 144.531 81.729 144.531 81.729C144.531 81.729 147.339 81.5634 148.769 87.1718C150.199 92.7802 152.706 103.891 147.208 105.87C141.71 107.85 126.975 111.88 126.975 111.88V111.878Z" fill="#9D9D9D"/>
<path d="M125.452 109.108C128.163 109.108 130.361 106.91 130.361 104.198C130.361 101.487 128.163 99.2891 125.452 99.2891C122.74 99.2891 120.542 101.487 120.542 104.198C120.542 106.91 122.74 109.108 125.452 109.108Z" fill="#1F1F1F"/>
<path d="M183.976 134.824C167.09 134.824 153.351 121.085 153.351 104.199C153.351 87.3126 167.09 73.5742 183.976 73.5742C200.862 73.5742 214.601 87.3126 214.601 104.199C214.601 121.085 200.862 134.824 183.976 134.824ZM183.976 79.3628C170.281 79.3628 159.14 90.5041 159.14 104.199C159.14 117.894 170.281 129.035 183.976 129.035C197.671 129.035 208.812 117.894 208.812 104.199C208.812 90.5041 197.671 79.3628 183.976 79.3628Z" fill="#00FF00"/>
<path d="M197.391 120.509C196.649 120.509 195.91 120.225 195.344 119.662L168.514 92.8316C167.384 91.7009 167.384 89.8682 168.514 88.7376C169.645 87.6083 171.478 87.6083 172.608 88.7376L199.438 115.568C200.569 116.698 200.569 118.531 199.438 119.662C198.873 120.227 198.132 120.509 197.392 120.509H197.391Z" fill="#00FF00"/>
<path d="M170.561 120.509C169.819 120.509 169.08 120.225 168.514 119.662C167.384 118.531 167.384 116.698 168.514 115.568L195.344 88.7376C196.475 87.6083 198.308 87.6083 199.438 88.7376C200.569 89.8682 200.569 91.7009 199.438 92.8316L172.608 119.662C172.043 120.227 171.302 120.509 170.562 120.509H170.561Z" fill="#00FF00"/>
<path opacity="0.18" d="M94.0478 111.573C95.2269 111.573 96.1827 110.617 96.1827 109.438C96.1827 108.259 95.2269 107.303 94.0478 107.303C92.8687 107.303 91.9128 108.259 91.9128 109.438C91.9128 110.617 92.8687 111.573 94.0478 111.573Z" fill="#9D9D9D"/>
<path opacity="0.18" d="M57.6293 118.758C58.8084 118.758 59.7643 117.802 59.7643 116.623C59.7643 115.444 58.8084 114.488 57.6293 114.488C56.4502 114.488 55.4944 115.444 55.4944 116.623C55.4944 117.802 56.4502 118.758 57.6293 118.758Z" fill="#9D9D9D"/>
<path opacity="0.55" d="M64.9133 117.321C66.0924 117.321 67.0482 116.365 67.0482 115.186C67.0482 114.007 66.0924 113.051 64.9133 113.051C63.7342 113.051 62.7783 114.007 62.7783 115.186C62.7783 116.365 63.7342 117.321 64.9133 117.321Z" fill="#9D9D9D"/>
<path opacity="0.75" d="M72.1972 115.883C73.3763 115.883 74.3321 114.927 74.3321 113.748C74.3321 112.569 73.3763 111.613 72.1972 111.613C71.0181 111.613 70.0623 112.569 70.0623 113.748C70.0623 114.927 71.0181 115.883 72.1972 115.883Z" fill="#9D9D9D"/>
<path d="M79.4799 114.448C80.659 114.448 81.6149 113.492 81.6149 112.313C81.6149 111.134 80.659 110.178 79.4799 110.178C78.3008 110.178 77.345 111.134 77.345 112.313C77.345 113.492 78.3008 114.448 79.4799 114.448Z" fill="#9D9D9D"/>
<path opacity="0.55" d="M86.7639 113.01C87.943 113.01 88.8988 112.054 88.8988 110.875C88.8988 109.696 87.943 108.74 86.7639 108.74C85.5848 108.74 84.6289 109.696 84.6289 110.875C84.6289 112.054 85.5848 113.01 86.7639 113.01Z" fill="#9D9D9D"/>
</svg>
