<svg width="50" height="50" viewBox="0 0 50 50" fill="none" xmlns="http://www.w3.org/2000/svg">
<g clip-path="url(#clip0_3888_67305)">
<path d="M25 50C38.8071 50 50 38.8071 50 25C50 11.1929 38.8071 0 25 0C11.1929 0 0 11.1929 0 25C0 38.8071 11.1929 50 25 50Z" fill="white"/>
<path d="M31.0002 31.0869C29.6364 33.8964 27.3653 36.1641 24.5536 37.5235C21.742 38.8829 18.5541 39.2546 15.5051 38.5786C12.4562 37.9025 9.72417 36.2182 7.75063 33.7978C5.77709 31.3774 4.67728 28.3622 4.62891 25.2396C4.64673 25.5657 4.68271 25.8905 4.73669 26.2126C4.8289 26.7809 4.97117 27.34 5.16184 27.8833C6.00951 30.2824 7.77421 32.2472 10.0688 33.3468C12.3634 34.4464 15.0004 34.5909 17.4014 33.7485C18.6988 33.2968 19.8821 32.5672 20.8684 31.6108L20.8894 31.5929L20.9253 31.5569C20.9433 31.539 20.9642 31.521 20.9822 31.5C22.1163 30.3723 22.95 28.9787 23.4073 27.4461L23.4253 27.3893C23.4253 27.3893 23.4253 27.3563 23.4253 27.3414L27.7097 29.3953L27.8295 29.4521L31.0331 30.9881L30.9822 31.0958L31.0002 31.0869Z" fill="white"/>
<path d="M31.0002 31.0869C29.6364 33.8964 27.3653 36.1641 24.5536 37.5235C21.742 38.8829 18.5541 39.2546 15.5051 38.5786C12.4562 37.9025 9.72417 36.2182 7.75063 33.7978C5.77709 31.3774 4.67728 28.3622 4.62891 25.2396C4.64673 25.5657 4.68271 25.8905 4.73669 26.2126C4.8289 26.7809 4.97117 27.34 5.16184 27.8833C6.00951 30.2824 7.77421 32.2472 10.0688 33.3468C12.3634 34.4464 15.0004 34.5909 17.4014 33.7485C18.6988 33.2968 19.8821 32.5672 20.8684 31.6108L20.8894 31.5929L20.9253 31.5569C20.9433 31.539 20.9642 31.521 20.9822 31.5C22.1163 30.3723 22.95 28.9787 23.4073 27.4461L23.4253 27.3893C23.4253 27.3893 23.4253 27.3563 23.4253 27.3414L27.7097 29.3953L27.8295 29.4521L31.0331 30.9881L30.9822 31.0958L31.0002 31.0869Z" fill="url(#paint0_linear_3888_67305)"/>
<path d="M30.9855 31.0869C29.6228 33.8974 27.352 36.1661 24.5402 37.5263C21.7285 38.8864 18.5402 39.2584 15.4908 38.5822C12.4415 37.906 9.70933 36.2211 7.73615 33.7999C5.76296 31.3786 4.66408 28.3626 4.61719 25.2396C4.63401 25.5656 4.669 25.8905 4.72198 26.2126C4.94729 27.5992 5.47363 28.9195 6.26397 30.0808C7.05431 31.2421 8.08947 32.2162 9.29665 32.9345C10.5038 33.6528 11.8537 34.0979 13.2514 34.2386C14.649 34.3792 16.0606 34.2119 17.3866 33.7485C18.6847 33.2961 19.8688 32.5667 20.8567 31.6108L20.8747 31.5929L20.9106 31.5569C20.931 31.5395 20.9501 31.5205 20.9675 31.5C22.1016 30.3723 22.9353 28.9787 23.3926 27.4461C23.4 27.4276 23.406 27.4086 23.4106 27.3893C23.4106 27.3893 23.4106 27.3563 23.4106 27.3414L27.695 29.3953L27.8148 29.4521L31.0214 30.9881C31.0214 30.9881 30.9765 31.0749 30.9705 31.0958L30.9855 31.0869Z" fill="url(#paint1_linear_3888_67305)"/>
<path d="M24.4151 12.8413L24.3612 12.9521H24.3133L24.2534 12.9371C22.6845 12.5035 21.0304 12.4813 19.4504 12.8725C17.8705 13.2637 16.4178 14.0551 15.2325 15.1706L15.1726 15.2245L15.1367 15.2604L15.1187 15.2784C13.8276 16.5393 12.9221 18.1416 12.508 19.8982C12.0939 21.6547 12.1884 23.4928 12.7804 25.1976C13.0176 25.8659 13.3268 26.5063 13.7025 27.1077C13.7804 27.2305 13.8612 27.3562 13.948 27.476C14.0738 27.6586 14.2115 27.8383 14.3522 28.0149C14.6175 28.3423 14.9046 28.6514 15.2115 28.9401C15.8032 29.4412 16.5017 29.8005 17.2534 29.9905C18.0052 30.1805 18.7904 30.1963 19.5492 30.0365C20.308 29.8768 21.0202 29.5458 21.6316 29.0688C22.243 28.5919 22.7373 27.9815 23.0768 27.2844L23.1037 27.2305L23.1307 27.1766L23.2384 27.2275L23.3163 27.2634L23.4241 27.3173C23.4254 27.3333 23.4254 27.3493 23.4241 27.3652L23.4061 27.4221C22.9474 28.954 22.1138 30.3474 20.981 31.476L20.9241 31.5329L20.8881 31.5688L20.8672 31.5868C19.8793 32.5419 18.6951 33.2704 17.3971 33.7215C14.9993 34.5658 12.3645 34.4251 10.0703 33.3301C7.77601 32.2352 6.0094 30.2754 5.15761 27.8802C4.9652 27.3385 4.82289 26.7802 4.73246 26.2125C4.67865 25.8894 4.64266 25.5636 4.62467 25.2365C4.59877 24.7825 4.60577 24.3272 4.64563 23.8742C4.70833 23.1303 4.856 22.3959 5.08575 21.6856C5.64299 19.4671 6.74099 17.4213 8.28168 15.7306C9.82237 14.04 11.7578 12.7572 13.9151 11.997C15.6165 11.3915 17.4208 11.1282 19.2243 11.2222C21.0277 11.3162 22.7949 11.7657 24.4241 12.5449L24.478 12.5688L24.5319 12.5958L24.4151 12.8413Z" fill="url(#paint2_linear_3888_67305)"/>
<path opacity="0.61" d="M17.4058 33.7485C18.7033 33.2967 19.8865 32.5671 20.8728 31.6108L20.8938 31.5928L20.9297 31.5569C20.9477 31.5389 20.9687 31.5209 20.9866 31.5C22.1207 30.3723 22.9544 28.9786 23.4118 27.4461L23.4297 27.3892C23.4311 27.3733 23.4311 27.3572 23.4297 27.3413L24.1932 27.7066C23.6943 29.3602 22.7944 30.865 21.5734 32.0868L21.4866 32.1736L21.4297 32.2275C20.3897 33.2264 19.1541 33.9992 17.8008 34.4971C16.4474 34.9951 15.0056 35.2074 13.5662 35.1208C12.1268 35.0342 10.7208 34.6504 9.43698 33.9938C8.15312 33.3371 7.01912 32.4218 6.10638 31.3054C5.15164 29.4228 4.63962 27.3471 4.60938 25.2365C4.62736 25.5636 4.66335 25.8894 4.71716 26.2126C4.9409 27.5998 5.4663 28.9211 6.25631 30.0832C7.04633 31.2452 8.0817 32.2198 9.2894 32.9382C10.4971 33.6565 11.8477 34.1011 13.2459 34.2406C14.6442 34.3801 16.056 34.2111 17.3818 33.7455L17.4058 33.7485Z" fill="url(#paint3_linear_3888_67305)"/>
<g opacity="0.79">
<path d="M7.18156 23.9522C7.19751 24.2532 7.23049 24.5531 7.28036 24.8504C7.33545 25.1923 7.41246 25.5303 7.5109 25.8624C7.62268 26.2451 7.76176 26.6193 7.92707 26.9821C8.0465 27.2439 8.18044 27.4988 8.32827 27.7456C8.58275 28.1804 8.87745 28.5904 9.20851 28.9702C10.0933 29.9991 11.214 30.7986 12.4749 31.3005C13.7358 31.8024 15.0994 31.9917 16.4493 31.8523C17.7992 31.7128 19.0953 31.2488 20.2269 30.4998C21.3586 29.7508 22.2922 28.7391 22.948 27.551L22.9929 27.4672L23.0558 27.3504C23.068 27.3291 23.079 27.3071 23.0887 27.2845L23.1157 27.2306L23.1426 27.1767L23.2504 27.2276L23.3283 27.2636L23.4361 27.3175C23.4374 27.3334 23.4374 27.3494 23.4361 27.3654L23.4181 27.4222C22.9593 28.9542 22.1258 30.3475 20.9929 31.4761L20.9361 31.533L20.9001 31.569L20.8792 31.5869C19.8912 32.5421 18.7071 33.2705 17.4091 33.7216C15.0098 34.5696 12.372 34.4308 10.0749 33.3356C7.77784 32.2404 6.00929 30.2784 5.15761 27.8803C4.9652 27.3386 4.82289 26.7804 4.73246 26.2127C4.67865 25.8895 4.64266 25.5637 4.62467 25.2366C4.59877 24.7826 4.60577 24.3273 4.64563 23.8743C4.70833 23.1304 4.856 22.3961 5.08575 21.6857C5.95312 18.2096 8.13372 15.2049 11.1696 13.3025C9.68551 14.6168 8.54604 16.2747 7.85083 18.1313C7.15561 19.9878 6.92583 21.9863 7.18156 23.9522Z" fill="url(#paint4_linear_3888_67305)"/>
</g>
<path opacity="0.41" d="M5.68614 20.2007C5.57438 20.5343 5.4824 20.8742 5.41069 21.2186C5.32756 21.6048 5.26857 21.9958 5.23404 22.3893C5.19517 22.8423 5.18916 23.2976 5.21608 23.7516C5.23291 24.0786 5.26789 24.4044 5.32087 24.7276C5.54705 26.1136 6.07396 27.4333 6.86459 28.594C7.65522 29.7546 8.69038 30.7281 9.89737 31.446C11.1044 32.164 12.4539 32.6089 13.8512 32.7496C15.2485 32.8903 16.6596 32.7234 17.9855 32.2605C19.2829 31.808 20.4667 31.0797 21.4556 30.1258L21.4736 30.1078L21.5095 30.0719C21.5304 30.0539 21.5484 30.033 21.5664 30.015C22.3165 29.2682 22.9377 28.4021 23.4047 27.4522C22.9468 28.9787 22.1153 30.3669 20.9855 31.4911C20.9676 31.512 20.9466 31.53 20.9287 31.548L20.8927 31.5839L20.8718 31.6019C19.8838 32.5577 18.6998 33.2871 17.4017 33.7396C15.0012 34.5818 12.3645 34.4372 10.0704 33.3376C7.77634 32.238 6.01221 30.2732 5.16518 27.8743C4.97311 27.3315 4.83081 26.7723 4.74003 26.2036C4.68605 25.8815 4.65007 25.5567 4.63225 25.2306C4.58436 24.3802 4.65082 23.5273 4.82985 22.6947C4.90235 22.3517 4.9933 22.0129 5.10231 21.6797C5.31454 20.8374 5.6042 20.0166 5.96758 19.2276C5.86278 19.548 5.76698 19.8713 5.68614 20.2007Z" fill="url(#paint5_linear_3888_67305)"/>
<path d="M18.9992 18.9131C20.3629 16.1036 22.6341 13.8359 25.4457 12.4765C28.2574 11.1171 31.4453 10.7454 34.4942 11.4214C37.5432 12.0975 40.2752 13.7818 42.2487 16.2022C44.2223 18.6227 45.3221 21.6378 45.3705 24.7604C45.3511 24.4345 45.3152 24.1097 45.2627 23.7874C45.1705 23.2191 45.0282 22.66 44.8375 22.1167C43.9899 19.7177 42.2252 17.7528 39.9306 16.6532C37.636 15.5536 34.999 15.4092 32.598 16.2515C31.3005 16.7033 30.1173 17.4328 29.1309 18.3892L29.11 18.4072L29.0741 18.4431L29.0172 18.5C27.8831 19.6277 27.0494 21.0213 26.592 22.5539C26.5847 22.5724 26.5787 22.5914 26.5741 22.6107C26.5741 22.6107 26.5741 22.6437 26.5741 22.6587L22.2717 20.6137L22.1519 20.5569L18.9453 19.0209L18.9992 18.9131Z" fill="url(#paint6_linear_3888_67305)"/>
<path d="M18.9992 18.9131C20.3629 16.1036 22.6341 13.8359 25.4457 12.4765C28.2574 11.1171 31.4453 10.7454 34.4942 11.4214C37.5432 12.0975 40.2752 13.7818 42.2487 16.2022C44.2223 18.6227 45.3221 21.6378 45.3705 24.7604C45.3511 24.4345 45.3152 24.1097 45.2627 23.7874C45.1705 23.2191 45.0282 22.66 44.8375 22.1167C43.9899 19.7177 42.2252 17.7528 39.9306 16.6532C37.636 15.5536 34.999 15.4092 32.598 16.2515C31.3005 16.7033 30.1173 17.4328 29.1309 18.3892L29.11 18.4072L29.0741 18.4431L29.0172 18.5C27.8831 19.6277 27.0494 21.0213 26.592 22.5539C26.5847 22.5724 26.5787 22.5914 26.5741 22.6107C26.5741 22.6107 26.5741 22.6437 26.5741 22.6587L22.2717 20.6137L22.1519 20.5569L18.9453 19.0209L18.9992 18.9131Z" fill="url(#paint7_linear_3888_67305)"/>
<path d="M19.004 18.9131C20.3677 16.1036 22.6389 13.8359 25.4506 12.4765C28.2622 11.1171 31.4501 10.7454 34.4991 11.4214C37.548 12.0975 40.28 13.7818 42.2536 16.2022C44.2271 18.6227 45.3269 21.6378 45.3753 24.7604C45.3575 24.4343 45.3215 24.1095 45.2675 23.7874C45.1767 23.2188 45.0344 22.6596 44.8423 22.1167C43.9953 19.7179 42.2312 17.753 39.9371 16.6534C37.643 15.5538 35.0064 15.4093 32.6058 16.2515C31.3078 16.7039 30.1237 17.4334 29.1358 18.3892L29.1178 18.4072L29.0789 18.4431L29.025 18.5C27.8909 19.6277 27.0572 21.0213 26.5998 22.5539C26.5998 22.5718 26.5998 22.5928 26.5789 22.6107C26.5789 22.6107 26.5789 22.6437 26.5789 22.6587L22.2765 20.6137L22.1567 20.5569L18.9531 19.0209L19.004 18.9131Z" fill="url(#paint8_linear_3888_67305)"/>
<path d="M25.5855 37.1588L25.6394 37.048L25.6873 37.0629H25.7472C27.3161 37.4965 28.9702 37.5187 30.5502 37.1276C32.1302 36.7364 33.5828 35.9449 34.7682 34.8294L34.828 34.7755L34.864 34.7426L34.8819 34.7216C36.1749 33.4582 37.0808 31.8523 37.4933 30.0922C37.9059 28.3321 37.8081 26.4909 37.2113 24.7845C36.9747 24.1169 36.6654 23.4773 36.2891 22.8773C36.2113 22.7516 36.1304 22.6288 36.0436 22.5061C35.9179 22.3234 35.7801 22.1438 35.6394 21.9671C35.3741 21.6398 35.0871 21.3307 34.7801 21.042C34.0982 20.4754 33.2813 20.0949 32.4088 19.9375C31.5363 19.7801 30.638 19.8512 29.8011 20.1438C28.5409 20.5846 27.5044 21.5028 26.9149 22.7007L26.8879 22.7546L26.861 22.8085L26.7502 22.7546L26.6723 22.7186L26.5646 22.6647C26.5632 22.6488 26.5632 22.6328 26.5646 22.6168L26.5825 22.557C27.0403 21.0255 27.874 19.6329 29.0077 18.5061L29.0646 18.4492L29.1005 18.4132C29.1082 18.407 29.1152 18.4 29.1214 18.3923C30.1094 17.4372 31.2935 16.7087 32.5915 16.2576C34.9921 15.4153 37.6287 15.5599 39.9228 16.6595C42.2169 17.7591 43.981 19.724 44.828 22.1228C45.0204 22.6645 45.1628 23.2228 45.2532 23.7905C45.307 24.1136 45.343 24.4395 45.361 24.7665C45.3869 25.2205 45.3799 25.6758 45.34 26.1288C45.2828 26.8713 45.1401 27.6047 44.9149 28.3144C44.4202 30.3006 43.4905 32.152 42.1929 33.7349C40.8953 35.3178 39.2623 36.5927 37.4118 37.4674C35.5613 38.3421 33.5396 38.7947 31.4928 38.7926C29.446 38.7905 27.4252 38.3337 25.5765 37.4552L25.5226 37.4312L25.4688 37.4043L25.5855 37.1588Z" fill="url(#paint9_linear_3888_67305)"/>
<path opacity="0.61" d="M32.5999 16.2515C31.3036 16.7057 30.1208 17.4349 29.1329 18.3892L29.1119 18.4072L29.076 18.4431L29.0191 18.5C27.885 19.6277 27.0513 21.0214 26.5939 22.5539C26.5866 22.5724 26.5806 22.5914 26.576 22.6108C26.576 22.6108 26.576 22.6437 26.576 22.6587L25.8125 22.2904C26.3114 20.6368 27.2113 19.1321 28.4323 17.9102L28.5191 17.8264L28.576 17.7725C29.6493 16.734 30.9354 15.9413 32.3454 15.4491C34.3716 14.7414 36.5661 14.6729 38.6325 15.2528C40.6988 15.8327 42.5373 17.0331 43.8993 18.6916C44.1638 19.2317 44.3918 19.7888 44.582 20.3593C45.0823 21.7748 45.3493 23.2623 45.3724 24.7635C45.3531 24.4375 45.3171 24.1127 45.2646 23.7904C45.1724 23.2221 45.0301 22.6631 44.8394 22.1198C43.9918 19.7207 42.2271 17.7558 39.9325 16.6563C37.6379 15.5567 35.0009 15.4122 32.5999 16.2545V16.2515Z" fill="url(#paint10_linear_3888_67305)"/>
<g opacity="0.79">
<path d="M42.8122 26.0478C42.797 25.7398 42.764 25.4329 42.7134 25.1286C42.6583 24.7867 42.5813 24.4487 42.4828 24.1167C42.3714 23.7334 42.2313 23.3591 42.0637 22.9969C41.9453 22.7352 41.8123 22.4803 41.6655 22.2334C41.4102 21.7991 41.1156 21.3892 40.7852 21.0089C39.3301 19.3176 37.2632 18.2729 35.0385 18.1045C32.8137 17.9361 30.6131 18.6577 28.92 20.1107C28.1617 20.7602 27.5268 21.5412 27.0457 22.4161L27.0008 22.4999L26.9379 22.6167L26.902 22.6825L26.878 22.7364L26.8511 22.7903L26.7433 22.7544L26.6655 22.7185L26.5547 22.6646C26.5547 22.6646 26.5547 22.6316 26.5547 22.6167C26.5593 22.5963 26.5653 22.5763 26.5727 22.5568C27.0305 21.0253 27.8642 19.6328 28.9978 18.5059L29.0547 18.449L29.0906 18.4131C29.0983 18.4069 29.1054 18.3998 29.1116 18.3921C30.0989 17.4377 31.2819 16.7093 32.5786 16.2574C33.9045 15.7918 35.3163 15.6228 36.7145 15.7623C38.1128 15.9018 39.4634 16.3464 40.6711 17.0647C41.8788 17.7831 42.9141 18.7576 43.7042 19.9197C44.4942 21.0818 45.0196 22.4031 45.2433 23.7903C45.2971 24.1135 45.3331 24.4393 45.3511 24.7664C45.377 25.2204 45.37 25.6757 45.3301 26.1286C45.2956 26.5231 45.2366 26.9151 45.1535 27.3023C45.0814 27.6457 44.9894 27.9846 44.878 28.3173C44.0107 31.7934 41.8301 34.7981 38.7942 36.7005C40.2841 35.3889 41.4296 33.7319 42.1301 31.8746C42.8306 30.0174 43.0648 28.0166 42.8122 26.0478Z" fill="url(#paint11_linear_3888_67305)"/>
</g>
<path opacity="0.41" d="M44.3123 29.7994C44.4241 29.4658 44.516 29.1259 44.5878 28.7814C44.6696 28.395 44.7286 28.0041 44.7644 27.6108C44.8033 27.1577 44.8093 26.7024 44.7824 26.2485C44.7644 25.9214 44.7284 25.5956 44.6746 25.2725C44.5842 24.7047 44.4418 24.1465 44.2494 23.6048C43.7151 22.09 42.8093 20.7335 41.615 19.6595C40.4207 18.5854 38.9761 17.8281 37.4133 17.457C35.8506 17.0858 34.2197 17.1126 32.67 17.5349C31.1202 17.9572 29.7012 18.7615 28.5429 19.8743L28.5249 19.8952L28.486 19.9282L28.4321 19.985C27.6828 20.7326 27.0617 21.5985 26.5938 22.5479C27.0517 21.0213 27.8831 19.6331 29.0129 18.509C29.0309 18.488 29.0518 18.4701 29.0698 18.4521L29.1057 18.4162L29.1267 18.3982C30.1137 17.4412 31.298 16.7115 32.5967 16.2605C34.9973 15.4183 37.6339 15.5628 39.928 16.6624C42.2221 17.7621 43.9862 19.7269 44.8333 22.1258C45.0253 22.6686 45.1676 23.2278 45.2584 23.7964C45.3122 24.1185 45.3482 24.4434 45.3662 24.7695C45.3921 25.2235 45.3851 25.6788 45.3452 26.1317C45.2791 26.8772 45.1274 27.6126 44.8932 28.3234C44.6831 29.1653 44.3934 29.9854 44.0279 30.7725C44.1357 30.4521 44.2315 30.1287 44.3123 29.7994Z" fill="url(#paint12_linear_3888_67305)"/>
<rect x="28" y="30" width="19" height="19" rx="9.5" fill="#F2A437"/>
<path d="M34.9596 42.6392L36.8418 35H37.8608L37.9257 36.6096L35.9137 44.45H34.8363L34.9596 42.6392ZM33.7719 35L35.3166 42.6132V44.45H34.1418L32 35H33.7719ZM39.8793 42.5808L41.3981 35H43.1765L41.0346 44.45H39.8599L39.8793 42.5808ZM38.3476 35L40.2298 42.6652L40.3402 44.45H39.2628L37.2572 36.6031L37.3351 35H38.3476Z" fill="white"/>
</g>
<defs>
<linearGradient id="paint0_linear_3888_67305" x1="6.98775" y1="34.1096" x2="29.3766" y2="26.2253" gradientUnits="userSpaceOnUse">
<stop stop-color="#759400"/>
<stop offset="1" stop-color="#00E920"/>
</linearGradient>
<linearGradient id="paint1_linear_3888_67305" x1="6.97647" y1="34.1078" x2="29.3657" y2="26.2246" gradientUnits="userSpaceOnUse">
<stop stop-color="#3BE900"/>
<stop offset="1" stop-color="#095A1B"/>
</linearGradient>
<linearGradient id="paint2_linear_3888_67305" x1="9.23619" y1="34.8367" x2="18.9491" y2="14.5642" gradientUnits="userSpaceOnUse">
<stop stop-color="#116A00"/>
<stop offset="1" stop-color="#1CFF00"/>
</linearGradient>
<linearGradient id="paint3_linear_3888_67305" x1="4.63333" y1="30.1916" x2="24.2231" y2="30.1916" gradientUnits="userSpaceOnUse">
<stop stop-color="#15BF00" stop-opacity="0"/>
<stop offset="1" stop-color="#4CAA00"/>
</linearGradient>
<linearGradient id="paint4_linear_3888_67305" x1="23.1273" y1="29.0384" x2="-2.92405" y2="17.1483" gradientUnits="userSpaceOnUse">
<stop stop-color="#299400" stop-opacity="0.93"/>
<stop offset="0.01" stop-color="#279601" stop-opacity="0.9"/>
<stop offset="0.17" stop-color="#1BAF13" stop-opacity="0.63"/>
<stop offset="0.32" stop-color="#11C421" stop-opacity="0.4"/>
<stop offset="0.48" stop-color="#09D42C" stop-opacity="0.22"/>
<stop offset="0.64" stop-color="#04DF34" stop-opacity="0.1"/>
<stop offset="0.81" stop-color="#01E639" stop-opacity="0.02"/>
<stop offset="1" stop-color="#00E93B" stop-opacity="0"/>
</linearGradient>
<linearGradient id="paint5_linear_3888_67305" x1="5.44662" y1="28.6819" x2="21.8062" y2="22.9208" gradientUnits="userSpaceOnUse">
<stop stop-color="#1AE800" stop-opacity="0.02"/>
<stop offset="0.07" stop-color="#27D900" stop-opacity="0.25"/>
<stop offset="0.14" stop-color="#32CC00" stop-opacity="0.45"/>
<stop offset="0.22" stop-color="#3CC100" stop-opacity="0.62"/>
<stop offset="0.31" stop-color="#43B900" stop-opacity="0.76"/>
<stop offset="0.41" stop-color="#49B200" stop-opacity="0.87"/>
<stop offset="0.52" stop-color="#4DAD00" stop-opacity="0.94"/>
<stop offset="0.67" stop-color="#50AA00" stop-opacity="0.99"/>
<stop offset="1" stop-color="#51AA00"/>
</linearGradient>
<linearGradient id="paint6_linear_3888_67305" x1="43.0107" y1="15.8905" x2="20.6219" y2="23.7749" gradientUnits="userSpaceOnUse">
<stop stop-color="#5729EA"/>
<stop offset="1" stop-color="#4010BB"/>
</linearGradient>
<linearGradient id="paint7_linear_3888_67305" x1="43.0107" y1="15.8905" x2="20.6219" y2="23.7749" gradientUnits="userSpaceOnUse">
<stop stop-color="#759400"/>
<stop offset="1" stop-color="#00E920"/>
</linearGradient>
<linearGradient id="paint8_linear_3888_67305" x1="43.016" y1="15.8922" x2="20.6268" y2="23.7754" gradientUnits="userSpaceOnUse">
<stop stop-color="#3BE900"/>
<stop offset="1" stop-color="#08571B"/>
</linearGradient>
<linearGradient id="paint9_linear_3888_67305" x1="40.7617" y1="15.1673" x2="31.0478" y2="35.437" gradientUnits="userSpaceOnUse">
<stop stop-color="#116A00"/>
<stop offset="1" stop-color="#1CFF00"/>
</linearGradient>
<linearGradient id="paint10_linear_3888_67305" x1="45.3724" y1="19.8084" x2="25.7826" y2="19.8084" gradientUnits="userSpaceOnUse">
<stop stop-color="#15BF00" stop-opacity="0"/>
<stop offset="1" stop-color="#4CAA00"/>
</linearGradient>
<linearGradient id="paint11_linear_3888_67305" x1="26.8751" y1="20.9646" x2="52.9236" y2="32.8557" gradientUnits="userSpaceOnUse">
<stop stop-color="#299400" stop-opacity="0.93"/>
<stop offset="0.01" stop-color="#279601" stop-opacity="0.9"/>
<stop offset="0.17" stop-color="#1BAF13" stop-opacity="0.63"/>
<stop offset="0.32" stop-color="#11C421" stop-opacity="0.4"/>
<stop offset="0.48" stop-color="#09D42C" stop-opacity="0.22"/>
<stop offset="0.64" stop-color="#04DF34" stop-opacity="0.1"/>
<stop offset="0.81" stop-color="#01E639" stop-opacity="0.02"/>
<stop offset="1" stop-color="#00E93B" stop-opacity="0"/>
</linearGradient>
<linearGradient id="paint12_linear_3888_67305" x1="44.55" y1="21.3185" x2="28.1904" y2="27.0796" gradientUnits="userSpaceOnUse">
<stop stop-color="#1AE800" stop-opacity="0.02"/>
<stop offset="0.07" stop-color="#27D900" stop-opacity="0.25"/>
<stop offset="0.14" stop-color="#32CC00" stop-opacity="0.45"/>
<stop offset="0.22" stop-color="#3CC100" stop-opacity="0.62"/>
<stop offset="0.31" stop-color="#43B900" stop-opacity="0.76"/>
<stop offset="0.41" stop-color="#49B200" stop-opacity="0.87"/>
<stop offset="0.52" stop-color="#4DAD00" stop-opacity="0.94"/>
<stop offset="0.67" stop-color="#50AA00" stop-opacity="0.99"/>
<stop offset="1" stop-color="#51AA00"/>
</linearGradient>
<clipPath id="clip0_3888_67305">
<rect width="50" height="50" fill="white"/>
</clipPath>
</defs>
</svg>
